<svg width="44" height="44" viewBox="0 0 44 44" fill="none" xmlns="http://www.w3.org/2000/svg">
<path d="M11.2417 0.487793C11.6984 0.488043 12.0739 0.872667 12.0739 1.34035V3.6685H12.2139M11.2417 0.487793H11.2413C10.7846 0.488043 10.4092 0.872667 10.4092 1.34035V3.6685H10.2692M11.2417 0.487793V0.347793M11.2417 0.487793V0.347793M12.2139 3.6685V3.8085H31.8046V3.6685M12.2139 3.6685H31.8046M12.2139 3.6685V1.34035C12.2139 0.798492 11.7788 0.348042 11.2417 0.347793M31.8046 3.6685H31.9446V1.34035C31.9446 0.872515 32.3203 0.487793 32.7772 0.487793C33.2341 0.487793 33.6098 0.872515 33.6098 1.34035V3.6685H33.7498M31.8046 3.6685V1.34035C31.8046 0.798342 32.2399 0.347793 32.7772 0.347793C33.3145 0.347793 33.7498 0.798343 33.7498 1.34035V3.6685M33.7498 3.6685V3.8085H37.8119C40.6644 3.8085 43 6.20017 43 9.12108V38.1832C43 41.1041 40.6644 43.4958 37.8119 43.4958H6.1881C3.33562 43.4958 1 41.1041 1 38.1832V9.12108C1 6.20017 3.33562 3.8085 6.1881 3.8085H10.2692V3.6685M33.7498 3.6685H37.8119C40.7448 3.6685 43.14 6.126 43.14 9.12108V38.1832C43.14 41.1783 40.7448 43.6358 37.8119 43.6358H6.1881C3.25519 43.6358 0.86 41.1783 0.86 38.1832V9.12108C0.86 6.126 3.25519 3.6685 6.1881 3.6685H10.2692M10.2692 3.6685V1.34035C10.2692 0.798492 10.7042 0.348042 11.2413 0.347793C11.2414 0.347793 11.2416 0.347793 11.2417 0.347793M41.2452 9.12108V12.7746H2.7552V9.12108C2.7552 7.18191 4.30237 5.60223 6.18832 5.60223H10.2694V7.47534C10.2694 8.01735 10.7047 8.4679 11.242 8.4679C11.7793 8.4679 12.2145 8.01735 12.2145 7.47534V5.60223H31.8053V7.47534C31.8053 8.01735 32.2406 8.4679 32.7779 8.4679C33.3152 8.4679 33.7505 8.01735 33.7505 7.47534V5.60223H37.8121C39.6979 5.60223 41.2452 7.18169 41.2452 9.12108ZM41.2452 14.6817V38.1832C41.2452 40.1224 39.6981 41.7021 37.8121 41.7021H6.18832C4.30258 41.7021 2.7552 40.1226 2.7552 38.1832V14.6817H41.2452Z" fill="#00E2D5" stroke="#00E2D5" stroke-width="0.28"/>
<path d="M21.5787 27.5479C21.5787 28.6063 21.4639 29.5275 21.2343 30.3115C21.0103 31.0899 20.6967 31.7339 20.2935 32.2435C19.8959 32.7531 19.4227 33.1339 18.8739 33.3859C18.3307 33.6323 17.7427 33.7555 17.1099 33.7555C16.4771 33.7555 15.8891 33.6323 15.3459 33.3859C14.8083 33.1339 14.3407 32.7531 13.9431 32.2435C13.5455 31.7339 13.2347 31.0899 13.0107 30.3115C12.7867 29.5275 12.6747 28.6063 12.6747 27.5479C12.6747 26.4839 12.7867 25.5627 13.0107 24.7843C13.2347 24.0059 13.5455 23.3619 13.9431 22.8523C14.3407 22.3427 14.8083 21.9647 15.3459 21.7183C15.8891 21.4663 16.4771 21.3403 17.1099 21.3403C17.7427 21.3403 18.3307 21.4663 18.8739 21.7183C19.4227 21.9647 19.8959 22.3427 20.2935 22.8523C20.6967 23.3619 21.0103 24.0059 21.2343 24.7843C21.4639 25.5627 21.5787 26.4839 21.5787 27.5479ZM19.4367 27.5479C19.4367 26.6687 19.3723 25.9407 19.2435 25.3639C19.1147 24.7871 18.9411 24.3279 18.7227 23.9863C18.5099 23.6447 18.2635 23.4067 17.9835 23.2723C17.7035 23.1323 17.4123 23.0623 17.1099 23.0623C16.8131 23.0623 16.5247 23.1323 16.2447 23.2723C15.9703 23.4067 15.7267 23.6447 15.5139 23.9863C15.3011 24.3279 15.1303 24.7871 15.0015 25.3639C14.8783 25.9407 14.8167 26.6687 14.8167 27.5479C14.8167 28.4271 14.8783 29.1551 15.0015 29.7319C15.1303 30.3087 15.3011 30.7679 15.5139 31.1095C15.7267 31.4511 15.9703 31.6919 16.2447 31.8319C16.5247 31.9663 16.8131 32.0335 17.1099 32.0335C17.4123 32.0335 17.7035 31.9663 17.9835 31.8319C18.2635 31.6919 18.5099 31.4511 18.7227 31.1095C18.9411 30.7679 19.1147 30.3087 19.2435 29.7319C19.3723 29.1551 19.4367 28.4271 19.4367 27.5479ZM26.872 33.7555C26.2448 33.7555 25.6708 33.6715 25.15 33.5035C24.6348 33.3355 24.1924 33.0975 23.8228 32.7895C23.4532 32.4815 23.1648 32.1091 22.9576 31.6723C22.756 31.2355 22.6552 30.7483 22.6552 30.2107C22.6552 29.4939 22.8316 28.8891 23.1844 28.3963C23.5372 27.8979 24.086 27.5283 24.8308 27.2875C24.2372 27.0411 23.792 26.6911 23.4952 26.2375C23.204 25.7839 23.0584 25.2379 23.0584 24.5995C23.0584 24.1403 23.1508 23.7119 23.3356 23.3143C23.526 22.9167 23.7892 22.5723 24.1252 22.2811C24.4612 21.9843 24.8616 21.7547 25.3264 21.5923C25.7968 21.4243 26.312 21.3403 26.872 21.3403C27.432 21.3403 27.9444 21.4243 28.4092 21.5923C28.8796 21.7547 29.2828 21.9843 29.6188 22.2811C29.9548 22.5723 30.2152 22.9167 30.4 23.3143C30.5904 23.7119 30.6856 24.1403 30.6856 24.5995C30.6856 25.2379 30.5372 25.7839 30.2404 26.2375C29.9436 26.6911 29.5012 27.0411 28.9132 27.2875C29.658 27.5283 30.2068 27.8979 30.5596 28.3963C30.9124 28.8891 31.0888 29.4939 31.0888 30.2107C31.0888 30.7483 30.9852 31.2355 30.778 31.6723C30.5764 32.1091 30.2908 32.4815 29.9212 32.7895C29.5516 33.0975 29.1064 33.3355 28.5856 33.5035C28.0704 33.6715 27.4992 33.7555 26.872 33.7555ZM26.872 32.1343C27.2136 32.1343 27.5132 32.0867 27.7708 31.9915C28.0284 31.8907 28.244 31.7535 28.4176 31.5799C28.5968 31.4063 28.7312 31.1991 28.8208 30.9583C28.9104 30.7175 28.9552 30.4571 28.9552 30.1771C28.9552 29.5107 28.7704 29.0067 28.4008 28.6651C28.0312 28.3235 27.5216 28.1527 26.872 28.1527C26.2224 28.1527 25.7128 28.3235 25.3432 28.6651C24.9736 29.0067 24.7888 29.5107 24.7888 30.1771C24.7888 30.4571 24.8336 30.7175 24.9232 30.9583C25.0128 31.1991 25.1444 31.4063 25.318 31.5799C25.4972 31.7535 25.7156 31.8907 25.9732 31.9915C26.2308 32.0867 26.5304 32.1343 26.872 32.1343ZM26.872 26.5231C27.208 26.5231 27.4908 26.4699 27.7204 26.3635C27.95 26.2571 28.1348 26.1171 28.2748 25.9435C28.4148 25.7643 28.5128 25.5627 28.5688 25.3387C28.6304 25.1091 28.6612 24.8739 28.6612 24.6331C28.6612 24.4035 28.6248 24.1851 28.552 23.9779C28.4792 23.7707 28.37 23.5887 28.2244 23.4319C28.0788 23.2695 27.894 23.1407 27.67 23.0455C27.446 22.9503 27.18 22.9027 26.872 22.9027C26.564 22.9027 26.298 22.9503 26.074 23.0455C25.85 23.1407 25.6624 23.2695 25.5112 23.4319C25.3656 23.5887 25.2564 23.7707 25.1836 23.9779C25.1164 24.1851 25.0828 24.4035 25.0828 24.6331C25.0828 24.8739 25.1108 25.1091 25.1668 25.3387C25.2284 25.5627 25.3292 25.7643 25.4692 25.9435C25.6092 26.1171 25.794 26.2571 26.0236 26.3635C26.2532 26.4699 26.536 26.5231 26.872 26.5231Z" fill="#00E2D5"/>
</svg>
