<svg width="42" height="45" viewBox="0 0 42 45" fill="none" xmlns="http://www.w3.org/2000/svg">
<path fill-rule="evenodd" clip-rule="evenodd" d="M37.3333 29.5161V43.4516H34.2222C34.2222 42.8153 34.3691 41.9031 33.4444 41.9031C32.5198 41.9031 32.6666 42.8151 32.6666 43.4516H29.5556V25.7419C29.9952 25.7322 29.9419 25.6451 30.4306 25.6451H36.264C38.5146 25.6451 40.4445 27.1147 40.4445 29.3225V36.1936C40.4445 37.4205 39.8736 37.804 38.8889 38.0323V30.484C38.8902 29.5877 39.0267 28.742 38.1111 28.742C37.6408 28.742 37.3333 29.0481 37.3333 29.5162V29.5161ZM30.3334 18.0968C30.2221 17.5245 30.6199 16.4258 31.1814 15.8442C34.1467 12.7727 38.3828 17.1913 35.7075 19.9622C35.1496 20.5401 34.5811 20.8812 33.6114 20.9791C32.1957 21.1222 30.7596 20.0743 30.4165 18.4009C30.3484 18.0679 30.3715 18.2932 30.3334 18.0968ZM5.44449 18.0968C5.40234 17.88 5.60191 16.9599 5.67407 16.777C6.10081 15.6953 7.16997 14.9503 8.38857 14.8273C10.8243 14.5813 12.8507 17.8575 10.8186 19.9624C9.58881 21.2362 7.71549 21.3311 6.487 20.156C5.78997 19.4892 5.69099 19.1976 5.52767 18.4011C5.4595 18.068 5.48265 18.2934 5.44449 18.0969V18.0968ZM21 10.9356C22.5703 10.9356 24.1053 12.3583 24.1029 14.0316C24.1005 15.684 22.6603 17.1203 21 17.1203C17.5316 17.1203 16.8646 12.3732 19.7464 11.2362C19.9832 11.1428 20.715 10.9356 21 10.9356ZM26.4445 4.9355C26.3332 4.36326 26.7311 3.26454 27.2925 2.68292C28.5223 1.40908 30.3956 1.3142 31.6241 2.48936C34.2392 4.99064 31.4013 8.77434 28.4241 7.61015C27.7681 7.35367 27.1281 6.73502 26.7994 6.13068C26.6956 5.93983 26.637 5.81079 26.5834 5.57147L26.4445 4.9355ZM9.33337 4.9355C9.22209 4.36326 9.61994 3.26454 10.1814 2.68292C11.0304 1.8035 12.3119 1.37952 13.5759 1.87374C14.6626 2.29867 15.411 3.36274 15.5346 4.57572C15.6896 6.09651 14.4035 7.63685 12.6114 7.81801C11.1957 7.96103 9.75947 6.91316 9.41655 5.23982C9.34838 4.90674 9.37152 5.13192 9.33337 4.93566V4.9355ZM24.8889 4.35483C24.8889 5.87499 24.9684 6.3182 25.8611 7.64511C25.3635 7.97676 25.1438 8.41282 24.7201 8.83203L23.5277 10.0646C23.0052 9.92566 21.6913 8.88399 19.4781 9.6142C19.0275 9.76278 18.7879 9.98065 18.4723 10.0646C18.1931 9.87847 17.7895 9.33213 17.329 8.87986C16.901 8.45922 16.6288 7.97168 16.1389 7.64511C18.7753 3.72618 15.5788 0.0967776 12.8333 0.0967776C11.3097 0.0967776 10.2357 0.305588 9.11162 1.42449C6.97935 3.54692 7.36554 7.41024 10.3023 8.90624C12.6467 10.1006 14.3672 8.87033 14.972 8.70967C15.294 8.92436 15.2825 9.03019 15.5319 9.31369L17.3054 11.1291C16.5215 12.2943 16.3332 12.6955 16.3332 14.6129C15.7769 14.8786 13.1269 15.5876 12.736 15.7743C12.0385 14.4621 10.5039 13.2582 8.94431 13.2582C7.49629 13.2582 6.33772 13.4739 5.22162 14.5848C4.93649 14.8686 4.53003 15.4479 4.33925 15.8356C2.76447 19.0359 5.3238 22.5484 8.1665 22.5484C9.7906 22.5484 11.0662 22.2274 12.1255 20.9729C13.1277 19.7857 13.2221 18.7768 13.2221 17.3226C13.7783 17.0569 16.4283 16.3481 16.8193 16.1612C18.6307 19.5686 23.4088 19.4939 25.1804 16.1612L26.9418 16.7304C27.5371 16.9186 28.2662 17.0783 28.7776 17.3226C28.7776 18.9857 28.8683 19.6946 29.9285 21.0157C31.6744 23.191 36.0454 23.253 37.6604 19.9708C38.5197 18.2247 38.1713 15.9715 36.7782 14.5847C34.6717 12.4878 30.8372 12.8142 29.2639 15.7741C28.919 15.6095 26.1902 14.8629 25.6667 14.6128C25.6667 12.7505 25.4468 12.2472 24.6944 11.1289C25.1149 10.8486 26.7746 8.87827 27.0277 8.70967C27.96 8.95741 27.573 9.38711 29.9443 9.38711C31.2009 9.38711 32.3306 8.61432 32.9843 7.96151C35.9632 4.98715 33.5302 0 29.6526 0C27.105 0 24.8887 2.1566 24.8887 4.35483H24.8889ZM3.11107 38.0322C2.13785 37.8065 1.55546 37.435 1.55546 36.1934V29.3223C1.55546 27.1146 3.48545 25.645 5.73601 25.645H11.5694C12.0581 25.645 12.0048 25.732 12.4444 25.7417V43.4514H9.33337C9.33337 42.8151 9.48024 41.903 8.55556 41.903C7.63088 41.903 7.77775 42.815 7.77775 43.4514H4.66668V29.5159C4.66668 29.0477 4.3592 28.7417 3.88888 28.7417C2.97329 28.7417 3.10979 29.5874 3.11107 30.4837V38.032V38.0322ZM15.5555 34.1612C14.5823 33.9356 13.9999 33.564 13.9999 32.3225V25.8385C13.9999 23.4891 15.7168 21.774 18.0832 21.774C18.3011 22.2263 18.5151 22.8587 18.703 23.383L19.945 26.695C20.1374 27.2145 20.2921 27.9676 21 27.9676C21.6871 27.9676 21.8195 27.3148 22.0285 26.7654L23.9166 21.774C25.0077 21.774 26.2173 22.2113 26.9036 22.9622C27.1699 23.2535 27.5651 23.8397 27.6979 24.2039C28.2078 25.6033 28.0001 30.406 28.0001 32.2258C28.0001 33.2324 27.4504 34.0646 26.4445 34.0646V25.6453C26.4445 24.6065 24.8889 24.6065 24.8889 25.6453V43.4517H21.7778V39.5808C21.7778 38.542 20.2222 38.542 20.2222 39.5808V43.4517H17.1111V25.6453C17.1111 25.1771 16.8036 24.8711 16.3333 24.8711C15.4177 24.8711 15.5542 25.7168 15.5555 26.6129V34.1614V34.1612ZM19.8333 21.7742H22.1666C22.009 22.4478 21.14 24.2605 21.0971 24.7743L19.8331 21.7742H19.8333ZM12.6389 24.1936C12.1109 23.9414 4.96427 24.0339 4.20306 24.216C3.67207 24.343 3.14108 24.5475 2.65639 24.8054C2.38499 24.9497 2.24083 25.0514 2.01844 25.235C0.955017 26.1123 0 27.2328 0 28.742V36.6774C0 38.2005 1.37537 39.5806 3.11107 39.5806V43.6451C3.11107 44.2495 3.86509 45 4.47223 45H12.6389C13.2927 45 13.9477 44.2685 14.0004 43.6456L13.9999 35.3226C14.5665 35.621 14.896 35.7097 15.5555 35.7097V43.6451C15.5555 44.2495 16.3095 45 16.9167 45H25.0833C25.6905 45 26.4445 44.2495 26.4445 43.6451V35.7097C27.2884 35.7097 27.3936 35.4632 28.0001 35.3226C28.0001 37.3511 27.9091 41.7061 27.9955 43.5529C28.0284 44.2568 28.6614 45 29.3611 45H37.5278C38.1349 45 38.8889 44.2495 38.8889 43.6451V39.5806C39.8208 39.5806 40.5225 39.269 41.1047 38.6894C41.4899 38.306 42 37.4973 42 36.7742V28.742C42 28.1785 41.7521 27.4732 41.5495 27.0613C41.4197 26.7975 41.3055 26.6124 41.14 26.4046C40.9851 26.21 40.8283 26 40.6639 25.8139C38.7992 23.7023 35.9281 24.0968 33.6389 24.0968C32.7744 24.0968 29.8744 23.9486 29.3611 24.1936C29.1108 23.1243 28.3708 22.0699 27.6265 21.4686C26.8813 20.8666 25.7242 20.2259 24.4027 20.2259H17.4028C16.2683 20.2259 14.9675 20.9667 14.3198 21.5121C13.585 22.1308 12.8884 23.1271 12.6387 24.1938L12.6389 24.1936Z" fill="#00E2D5"/>
</svg>
