<svg width="51" height="38" viewBox="0 0 51 38" fill="none" xmlns="http://www.w3.org/2000/svg">
<mask id="path-1-outside-1_20_317" maskUnits="userSpaceOnUse" x="0" y="0" width="51" height="38" fill="black">
<rect fill="white" width="51" height="38"/>
<path fill-rule="evenodd" clip-rule="evenodd" d="M4.46399 1C2.55934 1 1 2.55934 1 4.46399V25.0935C1 26.9982 2.55934 28.5575 4.46399 28.5575H18.2458L18.3202 28.6501C20.1479 30.926 21.9477 33.224 23.7616 35.5107C24.0138 35.8286 24.2658 36.1475 24.5251 36.4598C24.7135 36.6867 24.9087 36.9153 25.1174 37.1238C25.3028 37.3089 25.6104 37.5964 25.8928 37.5964C26.1753 37.5964 26.4828 37.3089 26.6682 37.1238C26.8772 36.9153 27.0721 36.6867 27.2605 36.4598C27.5198 36.1475 27.7718 35.8286 28.0241 35.5107C29.8379 33.224 31.638 30.926 33.4654 28.6501L33.5399 28.5575H47.3216C49.2263 28.5575 50.7856 26.9982 50.7856 25.0935V4.46399C50.7856 2.55934 49.2263 1 47.3216 1H4.46349L4.46399 1ZM4.46399 2.74696H47.3221C48.267 2.74696 49.0392 3.51908 49.0392 4.46399V25.0935C49.0392 26.0384 48.267 26.8106 47.3221 26.8106H33.8872C33.6457 26.8106 33.3716 26.8068 33.1329 26.8428C33.0205 26.8596 32.9156 26.886 32.8246 26.9567C32.7199 27.0379 32.6216 27.179 32.5446 27.2859C32.3754 27.5211 32.2101 27.753 32.0298 27.9803L25.8933 35.7119L19.7568 27.9803C19.5765 27.753 19.4112 27.5208 19.242 27.2859C19.1648 27.1788 19.0667 27.0379 18.9621 26.9567C18.871 26.886 18.7664 26.8596 18.6537 26.8428C18.4148 26.8068 18.1409 26.8106 17.8994 26.8106H4.4645C3.51959 26.8106 2.74746 26.0384 2.74746 25.0935V4.46399C2.74746 3.51908 3.51959 2.74696 4.4645 2.74696H4.46399ZM45.3873 10.5034C45.5598 10.226 45.5918 9.92947 45.4001 9.64904C45.2892 9.48682 45.0375 9.28008 44.8305 9.28008C44.4809 9.28008 44.0402 9.6674 43.799 9.89149C43.6026 10.0738 43.4157 10.2662 43.2261 10.4554C43.0561 10.6251 42.8788 10.8014 42.6889 10.9491L41.1419 12.3361C40.9283 12.5275 40.7968 12.7061 40.5486 12.8721L40.1628 13.1304V12.6661C40.1628 12.2139 40.1851 11.7624 40.1972 11.3107C40.2073 10.93 40.2143 10.5288 40.1665 10.1505C40.0984 9.61283 39.9412 9.18174 39.3303 9.18174C38.8255 9.18174 38.5959 9.66489 38.5959 10.1126V19.738C38.5959 19.9756 38.6316 20.1723 38.7646 20.3723C39.0707 20.8315 39.826 20.7789 40.069 20.293C40.2151 20.0005 40.1668 19.6638 40.1643 19.3486C40.1575 18.529 40.1628 17.7093 40.1628 16.8897V16.4254L40.5486 16.6837C40.7996 16.8517 41.041 17.0642 41.2646 17.2672C41.5556 17.5315 41.838 17.8064 42.1187 18.0815C42.7166 18.6675 43.3099 19.2697 43.9379 19.8227C44.0697 19.9389 44.1864 20.0634 44.3018 20.1954C44.3808 20.2857 44.461 20.3828 44.5503 20.463C44.7465 20.6389 44.966 20.6688 45.2236 20.6688C45.7213 20.6688 45.8596 20.2732 45.8596 19.8363C45.8596 19.5715 45.2128 18.9336 45.0297 18.7561C44.5473 18.2885 44.0239 17.8577 43.5503 17.3841C43.1406 16.9744 42.7291 16.567 42.3219 16.155C41.8828 15.7106 41.3456 15.3972 40.9905 14.8668L40.8939 14.7224L40.9965 14.5823C41.0898 14.4551 41.2377 14.3303 41.3577 14.227C41.4832 14.1186 41.6165 14.0099 41.7327 13.8922L41.7364 13.8882L45.3876 10.5032L45.3873 10.5034ZM22.7309 10.9453H23.5681V19.5418C23.5681 19.9336 23.7263 20.3059 24.1182 20.4414C24.4077 20.5415 24.7573 20.4739 24.9552 20.2304C25.0535 20.1097 25.135 19.8959 25.135 19.7382V10.1128C25.135 9.59824 24.7515 9.45186 24.3018 9.38723C23.7014 9.30071 23.0432 9.37842 22.4364 9.37842C21.2445 9.37842 21.1358 10.9453 22.7311 10.9453H22.7309ZM27.8898 13.354C27.8898 13.9508 27.8709 14.5466 27.8598 15.1432C27.85 15.6741 27.846 16.2088 27.883 16.739C27.9504 17.7091 28.1546 18.5966 28.726 19.3999C29.9204 21.0787 32.9556 21.1009 34.1812 19.453C34.7785 18.6499 34.9936 17.7599 35.064 16.7762C35.1022 16.241 35.0977 15.7008 35.0871 15.1646C35.0753 14.561 35.0552 13.9578 35.0552 13.354C35.0552 11.9576 34.5886 10.5318 33.3794 9.72852C32.3344 9.03411 31.0286 9.02858 29.9068 9.55121C29.4534 9.76247 29.1679 10.0615 28.8216 10.4083C28.0663 11.1644 27.8898 12.3314 27.8898 13.354ZM29.4567 17.1847V12.6666C29.4567 11.7816 30.2474 10.7491 31.1777 10.7491H31.767C32.6973 10.7491 33.488 11.7818 33.488 12.6666V17.1847C33.488 19.8282 29.4564 19.8282 29.4564 17.1847H29.4567ZM8.88748 17.3824L10.2602 18.7526C11.1845 19.6751 12.0668 21.1036 13.3952 19.7382L17.0725 15.9593C18.0161 14.8882 18.9472 14.0084 18.9472 12.4699C18.9472 10.5522 17.1595 8.39604 15.1681 8.39604C13.6477 8.39604 13.5579 8.63195 12.3595 9.43451L12.1535 9.57233L12.0157 9.36635C11.5318 8.64352 10.5291 8.38648 9.70739 8.39378C8.66163 8.40308 7.60153 8.807 6.87242 9.56831C6.28515 10.1815 5.69235 11.307 5.69235 12.1752C5.69235 14.7773 6.98559 15.1759 8.50268 16.8985C8.64126 17.0556 8.74614 17.2282 8.88773 17.3821L8.88748 17.3824ZM7.16064 12.4699C7.16064 11.271 8.32713 9.86483 9.56931 9.86483C11.0482 9.86483 11.5685 11.4362 12.2212 11.4362C13.1757 11.4362 13.4312 9.86483 14.9714 9.86483C15.6095 9.86483 16.2083 10.1943 16.6334 10.6556C17.113 11.1759 17.3801 11.8603 17.3801 12.5683C17.3801 13.5215 16.4226 14.4163 15.8175 15.0705C15.488 15.4266 15.1266 15.7609 14.7757 16.0956C14.4495 16.407 14.1045 16.732 13.8155 17.0778C13.3962 17.5795 13.0079 18.1022 12.4574 18.4709L12.2871 18.5848L8.18829 14.4382C7.70415 13.9483 7.16064 13.1835 7.16064 12.4699Z"/>
</mask>
<path fill-rule="evenodd" clip-rule="evenodd" d="M4.46399 1C2.55934 1 1 2.55934 1 4.46399V25.0935C1 26.9982 2.55934 28.5575 4.46399 28.5575H18.2458L18.3202 28.6501C20.1479 30.926 21.9477 33.224 23.7616 35.5107C24.0138 35.8286 24.2658 36.1475 24.5251 36.4598C24.7135 36.6867 24.9087 36.9153 25.1174 37.1238C25.3028 37.3089 25.6104 37.5964 25.8928 37.5964C26.1753 37.5964 26.4828 37.3089 26.6682 37.1238C26.8772 36.9153 27.0721 36.6867 27.2605 36.4598C27.5198 36.1475 27.7718 35.8286 28.0241 35.5107C29.8379 33.224 31.638 30.926 33.4654 28.6501L33.5399 28.5575H47.3216C49.2263 28.5575 50.7856 26.9982 50.7856 25.0935V4.46399C50.7856 2.55934 49.2263 1 47.3216 1H4.46349L4.46399 1ZM4.46399 2.74696H47.3221C48.267 2.74696 49.0392 3.51908 49.0392 4.46399V25.0935C49.0392 26.0384 48.267 26.8106 47.3221 26.8106H33.8872C33.6457 26.8106 33.3716 26.8068 33.1329 26.8428C33.0205 26.8596 32.9156 26.886 32.8246 26.9567C32.7199 27.0379 32.6216 27.179 32.5446 27.2859C32.3754 27.5211 32.2101 27.753 32.0298 27.9803L25.8933 35.7119L19.7568 27.9803C19.5765 27.753 19.4112 27.5208 19.242 27.2859C19.1648 27.1788 19.0667 27.0379 18.9621 26.9567C18.871 26.886 18.7664 26.8596 18.6537 26.8428C18.4148 26.8068 18.1409 26.8106 17.8994 26.8106H4.4645C3.51959 26.8106 2.74746 26.0384 2.74746 25.0935V4.46399C2.74746 3.51908 3.51959 2.74696 4.4645 2.74696H4.46399ZM45.3873 10.5034C45.5598 10.226 45.5918 9.92947 45.4001 9.64904C45.2892 9.48682 45.0375 9.28008 44.8305 9.28008C44.4809 9.28008 44.0402 9.6674 43.799 9.89149C43.6026 10.0738 43.4157 10.2662 43.2261 10.4554C43.0561 10.6251 42.8788 10.8014 42.6889 10.9491L41.1419 12.3361C40.9283 12.5275 40.7968 12.7061 40.5486 12.8721L40.1628 13.1304V12.6661C40.1628 12.2139 40.1851 11.7624 40.1972 11.3107C40.2073 10.93 40.2143 10.5288 40.1665 10.1505C40.0984 9.61283 39.9412 9.18174 39.3303 9.18174C38.8255 9.18174 38.5959 9.66489 38.5959 10.1126V19.738C38.5959 19.9756 38.6316 20.1723 38.7646 20.3723C39.0707 20.8315 39.826 20.7789 40.069 20.293C40.2151 20.0005 40.1668 19.6638 40.1643 19.3486C40.1575 18.529 40.1628 17.7093 40.1628 16.8897V16.4254L40.5486 16.6837C40.7996 16.8517 41.041 17.0642 41.2646 17.2672C41.5556 17.5315 41.838 17.8064 42.1187 18.0815C42.7166 18.6675 43.3099 19.2697 43.9379 19.8227C44.0697 19.9389 44.1864 20.0634 44.3018 20.1954C44.3808 20.2857 44.461 20.3828 44.5503 20.463C44.7465 20.6389 44.966 20.6688 45.2236 20.6688C45.7213 20.6688 45.8596 20.2732 45.8596 19.8363C45.8596 19.5715 45.2128 18.9336 45.0297 18.7561C44.5473 18.2885 44.0239 17.8577 43.5503 17.3841C43.1406 16.9744 42.7291 16.567 42.3219 16.155C41.8828 15.7106 41.3456 15.3972 40.9905 14.8668L40.8939 14.7224L40.9965 14.5823C41.0898 14.4551 41.2377 14.3303 41.3577 14.227C41.4832 14.1186 41.6165 14.0099 41.7327 13.8922L41.7364 13.8882L45.3876 10.5032L45.3873 10.5034ZM22.7309 10.9453H23.5681V19.5418C23.5681 19.9336 23.7263 20.3059 24.1182 20.4414C24.4077 20.5415 24.7573 20.4739 24.9552 20.2304C25.0535 20.1097 25.135 19.8959 25.135 19.7382V10.1128C25.135 9.59824 24.7515 9.45186 24.3018 9.38723C23.7014 9.30071 23.0432 9.37842 22.4364 9.37842C21.2445 9.37842 21.1358 10.9453 22.7311 10.9453H22.7309ZM27.8898 13.354C27.8898 13.9508 27.8709 14.5466 27.8598 15.1432C27.85 15.6741 27.846 16.2088 27.883 16.739C27.9504 17.7091 28.1546 18.5966 28.726 19.3999C29.9204 21.0787 32.9556 21.1009 34.1812 19.453C34.7785 18.6499 34.9936 17.7599 35.064 16.7762C35.1022 16.241 35.0977 15.7008 35.0871 15.1646C35.0753 14.561 35.0552 13.9578 35.0552 13.354C35.0552 11.9576 34.5886 10.5318 33.3794 9.72852C32.3344 9.03411 31.0286 9.02858 29.9068 9.55121C29.4534 9.76247 29.1679 10.0615 28.8216 10.4083C28.0663 11.1644 27.8898 12.3314 27.8898 13.354ZM29.4567 17.1847V12.6666C29.4567 11.7816 30.2474 10.7491 31.1777 10.7491H31.767C32.6973 10.7491 33.488 11.7818 33.488 12.6666V17.1847C33.488 19.8282 29.4564 19.8282 29.4564 17.1847H29.4567ZM8.88748 17.3824L10.2602 18.7526C11.1845 19.6751 12.0668 21.1036 13.3952 19.7382L17.0725 15.9593C18.0161 14.8882 18.9472 14.0084 18.9472 12.4699C18.9472 10.5522 17.1595 8.39604 15.1681 8.39604C13.6477 8.39604 13.5579 8.63195 12.3595 9.43451L12.1535 9.57233L12.0157 9.36635C11.5318 8.64352 10.5291 8.38648 9.70739 8.39378C8.66163 8.40308 7.60153 8.807 6.87242 9.56831C6.28515 10.1815 5.69235 11.307 5.69235 12.1752C5.69235 14.7773 6.98559 15.1759 8.50268 16.8985C8.64126 17.0556 8.74614 17.2282 8.88773 17.3821L8.88748 17.3824ZM7.16064 12.4699C7.16064 11.271 8.32713 9.86483 9.56931 9.86483C11.0482 9.86483 11.5685 11.4362 12.2212 11.4362C13.1757 11.4362 13.4312 9.86483 14.9714 9.86483C15.6095 9.86483 16.2083 10.1943 16.6334 10.6556C17.113 11.1759 17.3801 11.8603 17.3801 12.5683C17.3801 13.5215 16.4226 14.4163 15.8175 15.0705C15.488 15.4266 15.1266 15.7609 14.7757 16.0956C14.4495 16.407 14.1045 16.732 13.8155 17.0778C13.3962 17.5795 13.0079 18.1022 12.4574 18.4709L12.2871 18.5848L8.18829 14.4382C7.70415 13.9483 7.16064 13.1835 7.16064 12.4699Z" fill="#00E2D5"/>
<path fill-rule="evenodd" clip-rule="evenodd" d="M4.46399 1C2.55934 1 1 2.55934 1 4.46399V25.0935C1 26.9982 2.55934 28.5575 4.46399 28.5575H18.2458L18.3202 28.6501C20.1479 30.926 21.9477 33.224 23.7616 35.5107C24.0138 35.8286 24.2658 36.1475 24.5251 36.4598C24.7135 36.6867 24.9087 36.9153 25.1174 37.1238C25.3028 37.3089 25.6104 37.5964 25.8928 37.5964C26.1753 37.5964 26.4828 37.3089 26.6682 37.1238C26.8772 36.9153 27.0721 36.6867 27.2605 36.4598C27.5198 36.1475 27.7718 35.8286 28.0241 35.5107C29.8379 33.224 31.638 30.926 33.4654 28.6501L33.5399 28.5575H47.3216C49.2263 28.5575 50.7856 26.9982 50.7856 25.0935V4.46399C50.7856 2.55934 49.2263 1 47.3216 1H4.46349L4.46399 1ZM4.46399 2.74696H47.3221C48.267 2.74696 49.0392 3.51908 49.0392 4.46399V25.0935C49.0392 26.0384 48.267 26.8106 47.3221 26.8106H33.8872C33.6457 26.8106 33.3716 26.8068 33.1329 26.8428C33.0205 26.8596 32.9156 26.886 32.8246 26.9567C32.7199 27.0379 32.6216 27.179 32.5446 27.2859C32.3754 27.5211 32.2101 27.753 32.0298 27.9803L25.8933 35.7119L19.7568 27.9803C19.5765 27.753 19.4112 27.5208 19.242 27.2859C19.1648 27.1788 19.0667 27.0379 18.9621 26.9567C18.871 26.886 18.7664 26.8596 18.6537 26.8428C18.4148 26.8068 18.1409 26.8106 17.8994 26.8106H4.4645C3.51959 26.8106 2.74746 26.0384 2.74746 25.0935V4.46399C2.74746 3.51908 3.51959 2.74696 4.4645 2.74696H4.46399ZM45.3873 10.5034C45.5598 10.226 45.5918 9.92947 45.4001 9.64904C45.2892 9.48682 45.0375 9.28008 44.8305 9.28008C44.4809 9.28008 44.0402 9.6674 43.799 9.89149C43.6026 10.0738 43.4157 10.2662 43.2261 10.4554C43.0561 10.6251 42.8788 10.8014 42.6889 10.9491L41.1419 12.3361C40.9283 12.5275 40.7968 12.7061 40.5486 12.8721L40.1628 13.1304V12.6661C40.1628 12.2139 40.1851 11.7624 40.1972 11.3107C40.2073 10.93 40.2143 10.5288 40.1665 10.1505C40.0984 9.61283 39.9412 9.18174 39.3303 9.18174C38.8255 9.18174 38.5959 9.66489 38.5959 10.1126V19.738C38.5959 19.9756 38.6316 20.1723 38.7646 20.3723C39.0707 20.8315 39.826 20.7789 40.069 20.293C40.2151 20.0005 40.1668 19.6638 40.1643 19.3486C40.1575 18.529 40.1628 17.7093 40.1628 16.8897V16.4254L40.5486 16.6837C40.7996 16.8517 41.041 17.0642 41.2646 17.2672C41.5556 17.5315 41.838 17.8064 42.1187 18.0815C42.7166 18.6675 43.3099 19.2697 43.9379 19.8227C44.0697 19.9389 44.1864 20.0634 44.3018 20.1954C44.3808 20.2857 44.461 20.3828 44.5503 20.463C44.7465 20.6389 44.966 20.6688 45.2236 20.6688C45.7213 20.6688 45.8596 20.2732 45.8596 19.8363C45.8596 19.5715 45.2128 18.9336 45.0297 18.7561C44.5473 18.2885 44.0239 17.8577 43.5503 17.3841C43.1406 16.9744 42.7291 16.567 42.3219 16.155C41.8828 15.7106 41.3456 15.3972 40.9905 14.8668L40.8939 14.7224L40.9965 14.5823C41.0898 14.4551 41.2377 14.3303 41.3577 14.227C41.4832 14.1186 41.6165 14.0099 41.7327 13.8922L41.7364 13.8882L45.3876 10.5032L45.3873 10.5034ZM22.7309 10.9453H23.5681V19.5418C23.5681 19.9336 23.7263 20.3059 24.1182 20.4414C24.4077 20.5415 24.7573 20.4739 24.9552 20.2304C25.0535 20.1097 25.135 19.8959 25.135 19.7382V10.1128C25.135 9.59824 24.7515 9.45186 24.3018 9.38723C23.7014 9.30071 23.0432 9.37842 22.4364 9.37842C21.2445 9.37842 21.1358 10.9453 22.7311 10.9453H22.7309ZM27.8898 13.354C27.8898 13.9508 27.8709 14.5466 27.8598 15.1432C27.85 15.6741 27.846 16.2088 27.883 16.739C27.9504 17.7091 28.1546 18.5966 28.726 19.3999C29.9204 21.0787 32.9556 21.1009 34.1812 19.453C34.7785 18.6499 34.9936 17.7599 35.064 16.7762C35.1022 16.241 35.0977 15.7008 35.0871 15.1646C35.0753 14.561 35.0552 13.9578 35.0552 13.354C35.0552 11.9576 34.5886 10.5318 33.3794 9.72852C32.3344 9.03411 31.0286 9.02858 29.9068 9.55121C29.4534 9.76247 29.1679 10.0615 28.8216 10.4083C28.0663 11.1644 27.8898 12.3314 27.8898 13.354ZM29.4567 17.1847V12.6666C29.4567 11.7816 30.2474 10.7491 31.1777 10.7491H31.767C32.6973 10.7491 33.488 11.7818 33.488 12.6666V17.1847C33.488 19.8282 29.4564 19.8282 29.4564 17.1847H29.4567ZM8.88748 17.3824L10.2602 18.7526C11.1845 19.6751 12.0668 21.1036 13.3952 19.7382L17.0725 15.9593C18.0161 14.8882 18.9472 14.0084 18.9472 12.4699C18.9472 10.5522 17.1595 8.39604 15.1681 8.39604C13.6477 8.39604 13.5579 8.63195 12.3595 9.43451L12.1535 9.57233L12.0157 9.36635C11.5318 8.64352 10.5291 8.38648 9.70739 8.39378C8.66163 8.40308 7.60153 8.807 6.87242 9.56831C6.28515 10.1815 5.69235 11.307 5.69235 12.1752C5.69235 14.7773 6.98559 15.1759 8.50268 16.8985C8.64126 17.0556 8.74614 17.2282 8.88773 17.3821L8.88748 17.3824ZM7.16064 12.4699C7.16064 11.271 8.32713 9.86483 9.56931 9.86483C11.0482 9.86483 11.5685 11.4362 12.2212 11.4362C13.1757 11.4362 13.4312 9.86483 14.9714 9.86483C15.6095 9.86483 16.2083 10.1943 16.6334 10.6556C17.113 11.1759 17.3801 11.8603 17.3801 12.5683C17.3801 13.5215 16.4226 14.4163 15.8175 15.0705C15.488 15.4266 15.1266 15.7609 14.7757 16.0956C14.4495 16.407 14.1045 16.732 13.8155 17.0778C13.3962 17.5795 13.0079 18.1022 12.4574 18.4709L12.2871 18.5848L8.18829 14.4382C7.70415 13.9483 7.16064 13.1835 7.16064 12.4699Z" stroke="#00E2D5" stroke-width="0.4" mask="url(#path-1-outside-1_20_317)"/>
</svg>
