<svg width="132" height="145" viewBox="0 0 132 145" fill="none" xmlns="http://www.w3.org/2000/svg">
<g filter="url(#filter0_b_82_23)">
<mask id="path-1-outside-1_82_23" maskUnits="userSpaceOnUse" x="0" y="0" width="133" height="145" fill="black">
<rect fill="white" width="133" height="145"/>
<path fill-rule="evenodd" clip-rule="evenodd" d="M12.6023 119.581C12.6023 119.482 12.7705 119.317 12.7885 119.362C12.8072 119.407 12.8952 119.227 12.92 119.19L13.9544 117.493C14.4549 116.682 14.7957 116.055 15.3134 115.21C16.311 113.58 17.1045 112.29 18.033 110.648C18.9478 109.028 19.8131 107.619 20.733 106.066L23.509 101.558C30.7105 103.178 33.138 102.304 36.5538 107.831C39.2991 112.272 40.3625 115.692 44.9092 118.634C44.5803 119.997 38.9292 128.869 37.6864 131.129C37.0612 132.266 37.4156 132.406 36.2249 132.713L33.7812 123.39C33.3319 121.928 32.8792 120.358 32.5034 118.933C31.2221 114.082 29.5266 115.325 21.2071 117.608L12.6014 119.581H12.6023ZM32.5042 62.9131C32.5042 56.3643 32.8664 53.0172 35.7039 47.1309C38.8156 40.6744 45.6369 34.345 52.483 31.5829C61.6584 27.8812 70.1479 27.8935 79.2986 31.4971C86.4257 34.3038 92.6167 40.1769 96.0957 46.7283C101.67 57.2256 100.385 70.6112 93.2949 80.2876C91.9957 82.0605 90.9382 83.0126 89.3409 84.557C73.4168 99.963 46.105 95.5121 35.8098 75.5983C34.186 72.4583 32.5051 67.472 32.5051 62.9131H32.5042ZM27.2315 61.1154C27.2315 69.1493 29.8648 77.1443 34.4081 82.9416C37.8598 87.3455 37.5164 86.8521 41.2679 90.096C42.1793 90.8839 43.0428 91.4721 44.102 92.1519C57.9727 101.059 74.0293 101.059 87.9 92.1519C93.692 88.4328 98.1362 83.1553 101.157 77.0957C106.949 65.4747 105.609 50.9745 98.2003 40.5003C91.6096 31.1828 79.8555 23.9682 67.8622 23.9682C57.4021 23.9682 51.5862 25.5753 43.4161 30.9122C41.4328 32.2083 39.9952 33.6586 38.3202 35.2764C31.3972 41.9614 27.2323 51.2666 27.2323 61.1138L27.2315 61.1154ZM95.7762 132.712C94.5838 132.404 95.0348 132.475 94.4172 131.329L91.2303 126.019C90.2011 124.193 87.4234 120.006 87.0919 118.633C93.6903 115.261 94.1294 105.445 100.458 103.383C103.107 102.52 107.591 101.975 108.492 101.558L119.348 119.831C116.533 119.198 113.933 118.363 111.035 117.675C109.722 117.363 108.188 116.922 106.876 116.599C102.222 115.455 100.659 114.36 99.5593 118.693L96.9789 127.884C96.6346 129.004 95.8838 131.457 95.7753 132.713L95.7762 132.712ZM18.2372 31.7578C18.2372 23.7834 29.1679 27.1642 36.1771 22.7233C42.0623 18.9934 44.1797 8.09272 48.6333 8.09272C52.9417 8.09272 53.8497 9.36487 57.5841 10.8309C65.5192 13.9453 66.089 14.1672 74.1975 10.9159C84.2399 6.8874 84.1468 6.07725 89.7065 15.1547C94.7956 23.4649 95.5515 23.6794 106.093 25.69C117.734 27.91 112.836 31.9443 112.836 42.2436C112.836 49.0919 117.397 52.0289 121.287 56.2496C130.391 66.1281 112.836 68.0702 112.836 79.9889C112.836 91.1603 117.638 94.8183 105.988 97.0392C96.8072 98.7898 93.9893 99.4391 89.6792 107.65C84.5534 117.414 82.6298 115.208 75.1286 112.215C70.4076 110.332 70.6767 109.645 65.0725 109.645C61.9711 109.645 59.4034 111.176 57.0981 112.128C49.1287 115.42 47.3581 117.084 42.4296 107.85C40.869 104.926 39.2452 102.218 36.5888 100.31C33.8452 98.3402 30.1279 97.8403 26.274 97.092C24.6024 96.7678 22.344 96.2876 20.9346 95.6581C13.8912 92.5141 23.5851 81.1258 16.1171 72.1514L10.5531 66.1421C3.74972 58.6503 12.6945 56.342 17.5683 48.4855C20.6715 43.4844 18.2389 37.3447 18.2389 31.7578H18.2372ZM13.2745 30.5599C13.2745 40.2982 16.0488 43.9299 11.0306 48.7635L6.18152 53.966C2.06446 59.2947 1.86203 62.9642 6.04913 68.3944C8.02565 70.9585 11.1297 73.4863 13.037 76.3243C15.3936 79.8322 13.2753 84.486 13.2753 89.5754V91.972C13.2753 95.3537 15.8891 99.0753 18.5481 99.7609C17.9638 101.872 4.90113 121.814 4.90113 123.427C4.90113 127.787 9.39146 125.781 12.4084 124.986L27.8524 121.03C28.2838 121.898 29.091 125.265 29.4053 126.421C29.9281 128.345 30.4192 130.173 30.9522 132.117L33.3225 140.312C33.8085 141.399 34.4466 142 35.6065 142C38.0716 142 40.0866 137.069 41.9418 134.04C43.8304 130.956 45.6771 127.989 47.3922 124.925L49.9778 120.533C50.9541 118.974 51.2752 119.821 55.1497 118.338C56.8666 117.682 58.5886 116.941 60.3148 116.137C69.3203 111.945 71.5061 117.21 79.4019 119.171C82.459 119.93 81.8807 119.806 84.7174 124.822L92.7815 138.302C93.9192 140.321 94.5915 142 96.3972 142C98.8401 142 98.981 139.982 99.5362 138.142L102.663 126.784C103.02 125.526 104.118 122.436 104.15 121.03C106.662 121.232 122.669 126.123 124.931 126.123C126.431 126.123 127.413 125.175 127.413 123.726C127.413 122.349 123.482 116.57 122.546 114.946C121.902 113.829 121.334 113.074 120.695 111.94C119.871 110.478 114.053 101.25 113.766 100.06C114.792 98.7082 117.967 98.2602 118.788 92.6288C119.759 85.9644 115.656 79.6952 120.357 74.6726L123.77 71.0781C128.543 66.5216 130.884 61.3951 127.167 55.6614C126.149 54.0914 125.127 53.0238 123.91 51.618C121.134 48.4113 118.108 47.1226 118.108 42.2436C118.108 36.4694 120.306 30.4593 117.479 26.0752C114.822 21.956 110.179 21.315 104.331 20.2012C97.1428 18.8334 96.7832 17.1438 93.8142 11.7854C91.853 8.24617 88.4415 3 83.6813 3C75.4958 3 71.6333 8.09272 66.0018 8.09272C63.5085 8.09272 60.0056 6.3957 58.1478 5.49315C39.1949 -3.71632 39.967 15.3519 32.9766 18.7344C31.2452 19.5718 29.0295 20.042 26.9248 20.3786C24.5238 20.7614 22.5703 21.2226 20.4426 21.9065C16.8526 23.0607 13.2745 25.9606 13.2745 30.5608V30.5599Z"/>
</mask>
<path fill-rule="evenodd" clip-rule="evenodd" d="M12.6023 119.581C12.6023 119.482 12.7705 119.317 12.7885 119.362C12.8072 119.407 12.8952 119.227 12.92 119.19L13.9544 117.493C14.4549 116.682 14.7957 116.055 15.3134 115.21C16.311 113.58 17.1045 112.29 18.033 110.648C18.9478 109.028 19.8131 107.619 20.733 106.066L23.509 101.558C30.7105 103.178 33.138 102.304 36.5538 107.831C39.2991 112.272 40.3625 115.692 44.9092 118.634C44.5803 119.997 38.9292 128.869 37.6864 131.129C37.0612 132.266 37.4156 132.406 36.2249 132.713L33.7812 123.39C33.3319 121.928 32.8792 120.358 32.5034 118.933C31.2221 114.082 29.5266 115.325 21.2071 117.608L12.6014 119.581H12.6023ZM32.5042 62.9131C32.5042 56.3643 32.8664 53.0172 35.7039 47.1309C38.8156 40.6744 45.6369 34.345 52.483 31.5829C61.6584 27.8812 70.1479 27.8935 79.2986 31.4971C86.4257 34.3038 92.6167 40.1769 96.0957 46.7283C101.67 57.2256 100.385 70.6112 93.2949 80.2876C91.9957 82.0605 90.9382 83.0126 89.3409 84.557C73.4168 99.963 46.105 95.5121 35.8098 75.5983C34.186 72.4583 32.5051 67.472 32.5051 62.9131H32.5042ZM27.2315 61.1154C27.2315 69.1493 29.8648 77.1443 34.4081 82.9416C37.8598 87.3455 37.5164 86.8521 41.2679 90.096C42.1793 90.8839 43.0428 91.4721 44.102 92.1519C57.9727 101.059 74.0293 101.059 87.9 92.1519C93.692 88.4328 98.1362 83.1553 101.157 77.0957C106.949 65.4747 105.609 50.9745 98.2003 40.5003C91.6096 31.1828 79.8555 23.9682 67.8622 23.9682C57.4021 23.9682 51.5862 25.5753 43.4161 30.9122C41.4328 32.2083 39.9952 33.6586 38.3202 35.2764C31.3972 41.9614 27.2323 51.2666 27.2323 61.1138L27.2315 61.1154ZM95.7762 132.712C94.5838 132.404 95.0348 132.475 94.4172 131.329L91.2303 126.019C90.2011 124.193 87.4234 120.006 87.0919 118.633C93.6903 115.261 94.1294 105.445 100.458 103.383C103.107 102.52 107.591 101.975 108.492 101.558L119.348 119.831C116.533 119.198 113.933 118.363 111.035 117.675C109.722 117.363 108.188 116.922 106.876 116.599C102.222 115.455 100.659 114.36 99.5593 118.693L96.9789 127.884C96.6346 129.004 95.8838 131.457 95.7753 132.713L95.7762 132.712ZM18.2372 31.7578C18.2372 23.7834 29.1679 27.1642 36.1771 22.7233C42.0623 18.9934 44.1797 8.09272 48.6333 8.09272C52.9417 8.09272 53.8497 9.36487 57.5841 10.8309C65.5192 13.9453 66.089 14.1672 74.1975 10.9159C84.2399 6.8874 84.1468 6.07725 89.7065 15.1547C94.7956 23.4649 95.5515 23.6794 106.093 25.69C117.734 27.91 112.836 31.9443 112.836 42.2436C112.836 49.0919 117.397 52.0289 121.287 56.2496C130.391 66.1281 112.836 68.0702 112.836 79.9889C112.836 91.1603 117.638 94.8183 105.988 97.0392C96.8072 98.7898 93.9893 99.4391 89.6792 107.65C84.5534 117.414 82.6298 115.208 75.1286 112.215C70.4076 110.332 70.6767 109.645 65.0725 109.645C61.9711 109.645 59.4034 111.176 57.0981 112.128C49.1287 115.42 47.3581 117.084 42.4296 107.85C40.869 104.926 39.2452 102.218 36.5888 100.31C33.8452 98.3402 30.1279 97.8403 26.274 97.092C24.6024 96.7678 22.344 96.2876 20.9346 95.6581C13.8912 92.5141 23.5851 81.1258 16.1171 72.1514L10.5531 66.1421C3.74972 58.6503 12.6945 56.342 17.5683 48.4855C20.6715 43.4844 18.2389 37.3447 18.2389 31.7578H18.2372ZM13.2745 30.5599C13.2745 40.2982 16.0488 43.9299 11.0306 48.7635L6.18152 53.966C2.06446 59.2947 1.86203 62.9642 6.04913 68.3944C8.02565 70.9585 11.1297 73.4863 13.037 76.3243C15.3936 79.8322 13.2753 84.486 13.2753 89.5754V91.972C13.2753 95.3537 15.8891 99.0753 18.5481 99.7609C17.9638 101.872 4.90113 121.814 4.90113 123.427C4.90113 127.787 9.39146 125.781 12.4084 124.986L27.8524 121.03C28.2838 121.898 29.091 125.265 29.4053 126.421C29.9281 128.345 30.4192 130.173 30.9522 132.117L33.3225 140.312C33.8085 141.399 34.4466 142 35.6065 142C38.0716 142 40.0866 137.069 41.9418 134.04C43.8304 130.956 45.6771 127.989 47.3922 124.925L49.9778 120.533C50.9541 118.974 51.2752 119.821 55.1497 118.338C56.8666 117.682 58.5886 116.941 60.3148 116.137C69.3203 111.945 71.5061 117.21 79.4019 119.171C82.459 119.93 81.8807 119.806 84.7174 124.822L92.7815 138.302C93.9192 140.321 94.5915 142 96.3972 142C98.8401 142 98.981 139.982 99.5362 138.142L102.663 126.784C103.02 125.526 104.118 122.436 104.15 121.03C106.662 121.232 122.669 126.123 124.931 126.123C126.431 126.123 127.413 125.175 127.413 123.726C127.413 122.349 123.482 116.57 122.546 114.946C121.902 113.829 121.334 113.074 120.695 111.94C119.871 110.478 114.053 101.25 113.766 100.06C114.792 98.7082 117.967 98.2602 118.788 92.6288C119.759 85.9644 115.656 79.6952 120.357 74.6726L123.77 71.0781C128.543 66.5216 130.884 61.3951 127.167 55.6614C126.149 54.0914 125.127 53.0238 123.91 51.618C121.134 48.4113 118.108 47.1226 118.108 42.2436C118.108 36.4694 120.306 30.4593 117.479 26.0752C114.822 21.956 110.179 21.315 104.331 20.2012C97.1428 18.8334 96.7832 17.1438 93.8142 11.7854C91.853 8.24617 88.4415 3 83.6813 3C75.4958 3 71.6333 8.09272 66.0018 8.09272C63.5085 8.09272 60.0056 6.3957 58.1478 5.49315C39.1949 -3.71632 39.967 15.3519 32.9766 18.7344C31.2452 19.5718 29.0295 20.042 26.9248 20.3786C24.5238 20.7614 22.5703 21.2226 20.4426 21.9065C16.8526 23.0607 13.2745 25.9606 13.2745 30.5608V30.5599Z" fill="url(#paint0_linear_82_23)"/>
<path fill-rule="evenodd" clip-rule="evenodd" d="M12.6023 119.581C12.6023 119.482 12.7705 119.317 12.7885 119.362C12.8072 119.407 12.8952 119.227 12.92 119.19L13.9544 117.493C14.4549 116.682 14.7957 116.055 15.3134 115.21C16.311 113.58 17.1045 112.29 18.033 110.648C18.9478 109.028 19.8131 107.619 20.733 106.066L23.509 101.558C30.7105 103.178 33.138 102.304 36.5538 107.831C39.2991 112.272 40.3625 115.692 44.9092 118.634C44.5803 119.997 38.9292 128.869 37.6864 131.129C37.0612 132.266 37.4156 132.406 36.2249 132.713L33.7812 123.39C33.3319 121.928 32.8792 120.358 32.5034 118.933C31.2221 114.082 29.5266 115.325 21.2071 117.608L12.6014 119.581H12.6023ZM32.5042 62.9131C32.5042 56.3643 32.8664 53.0172 35.7039 47.1309C38.8156 40.6744 45.6369 34.345 52.483 31.5829C61.6584 27.8812 70.1479 27.8935 79.2986 31.4971C86.4257 34.3038 92.6167 40.1769 96.0957 46.7283C101.67 57.2256 100.385 70.6112 93.2949 80.2876C91.9957 82.0605 90.9382 83.0126 89.3409 84.557C73.4168 99.963 46.105 95.5121 35.8098 75.5983C34.186 72.4583 32.5051 67.472 32.5051 62.9131H32.5042ZM27.2315 61.1154C27.2315 69.1493 29.8648 77.1443 34.4081 82.9416C37.8598 87.3455 37.5164 86.8521 41.2679 90.096C42.1793 90.8839 43.0428 91.4721 44.102 92.1519C57.9727 101.059 74.0293 101.059 87.9 92.1519C93.692 88.4328 98.1362 83.1553 101.157 77.0957C106.949 65.4747 105.609 50.9745 98.2003 40.5003C91.6096 31.1828 79.8555 23.9682 67.8622 23.9682C57.4021 23.9682 51.5862 25.5753 43.4161 30.9122C41.4328 32.2083 39.9952 33.6586 38.3202 35.2764C31.3972 41.9614 27.2323 51.2666 27.2323 61.1138L27.2315 61.1154ZM95.7762 132.712C94.5838 132.404 95.0348 132.475 94.4172 131.329L91.2303 126.019C90.2011 124.193 87.4234 120.006 87.0919 118.633C93.6903 115.261 94.1294 105.445 100.458 103.383C103.107 102.52 107.591 101.975 108.492 101.558L119.348 119.831C116.533 119.198 113.933 118.363 111.035 117.675C109.722 117.363 108.188 116.922 106.876 116.599C102.222 115.455 100.659 114.36 99.5593 118.693L96.9789 127.884C96.6346 129.004 95.8838 131.457 95.7753 132.713L95.7762 132.712ZM18.2372 31.7578C18.2372 23.7834 29.1679 27.1642 36.1771 22.7233C42.0623 18.9934 44.1797 8.09272 48.6333 8.09272C52.9417 8.09272 53.8497 9.36487 57.5841 10.8309C65.5192 13.9453 66.089 14.1672 74.1975 10.9159C84.2399 6.8874 84.1468 6.07725 89.7065 15.1547C94.7956 23.4649 95.5515 23.6794 106.093 25.69C117.734 27.91 112.836 31.9443 112.836 42.2436C112.836 49.0919 117.397 52.0289 121.287 56.2496C130.391 66.1281 112.836 68.0702 112.836 79.9889C112.836 91.1603 117.638 94.8183 105.988 97.0392C96.8072 98.7898 93.9893 99.4391 89.6792 107.65C84.5534 117.414 82.6298 115.208 75.1286 112.215C70.4076 110.332 70.6767 109.645 65.0725 109.645C61.9711 109.645 59.4034 111.176 57.0981 112.128C49.1287 115.42 47.3581 117.084 42.4296 107.85C40.869 104.926 39.2452 102.218 36.5888 100.31C33.8452 98.3402 30.1279 97.8403 26.274 97.092C24.6024 96.7678 22.344 96.2876 20.9346 95.6581C13.8912 92.5141 23.5851 81.1258 16.1171 72.1514L10.5531 66.1421C3.74972 58.6503 12.6945 56.342 17.5683 48.4855C20.6715 43.4844 18.2389 37.3447 18.2389 31.7578H18.2372ZM13.2745 30.5599C13.2745 40.2982 16.0488 43.9299 11.0306 48.7635L6.18152 53.966C2.06446 59.2947 1.86203 62.9642 6.04913 68.3944C8.02565 70.9585 11.1297 73.4863 13.037 76.3243C15.3936 79.8322 13.2753 84.486 13.2753 89.5754V91.972C13.2753 95.3537 15.8891 99.0753 18.5481 99.7609C17.9638 101.872 4.90113 121.814 4.90113 123.427C4.90113 127.787 9.39146 125.781 12.4084 124.986L27.8524 121.03C28.2838 121.898 29.091 125.265 29.4053 126.421C29.9281 128.345 30.4192 130.173 30.9522 132.117L33.3225 140.312C33.8085 141.399 34.4466 142 35.6065 142C38.0716 142 40.0866 137.069 41.9418 134.04C43.8304 130.956 45.6771 127.989 47.3922 124.925L49.9778 120.533C50.9541 118.974 51.2752 119.821 55.1497 118.338C56.8666 117.682 58.5886 116.941 60.3148 116.137C69.3203 111.945 71.5061 117.21 79.4019 119.171C82.459 119.93 81.8807 119.806 84.7174 124.822L92.7815 138.302C93.9192 140.321 94.5915 142 96.3972 142C98.8401 142 98.981 139.982 99.5362 138.142L102.663 126.784C103.02 125.526 104.118 122.436 104.15 121.03C106.662 121.232 122.669 126.123 124.931 126.123C126.431 126.123 127.413 125.175 127.413 123.726C127.413 122.349 123.482 116.57 122.546 114.946C121.902 113.829 121.334 113.074 120.695 111.94C119.871 110.478 114.053 101.25 113.766 100.06C114.792 98.7082 117.967 98.2602 118.788 92.6288C119.759 85.9644 115.656 79.6952 120.357 74.6726L123.77 71.0781C128.543 66.5216 130.884 61.3951 127.167 55.6614C126.149 54.0914 125.127 53.0238 123.91 51.618C121.134 48.4113 118.108 47.1226 118.108 42.2436C118.108 36.4694 120.306 30.4593 117.479 26.0752C114.822 21.956 110.179 21.315 104.331 20.2012C97.1428 18.8334 96.7832 17.1438 93.8142 11.7854C91.853 8.24617 88.4415 3 83.6813 3C75.4958 3 71.6333 8.09272 66.0018 8.09272C63.5085 8.09272 60.0056 6.3957 58.1478 5.49315C39.1949 -3.71632 39.967 15.3519 32.9766 18.7344C31.2452 19.5718 29.0295 20.042 26.9248 20.3786C24.5238 20.7614 22.5703 21.2226 20.4426 21.9065C16.8526 23.0607 13.2745 25.9606 13.2745 30.5608V30.5599Z" stroke="#014949" stroke-width="6" mask="url(#path-1-outside-1_82_23)"/>
<path d="M80.62 46.353V48.9907C80.62 49.7796 80.5378 50.4206 80.3735 50.9136C80.2091 51.3902 80.0448 51.7929 79.8804 52.1216L66.371 79.9292C66.0916 80.5044 65.6972 80.9975 65.1877 81.4083C64.6782 81.8028 63.9962 82 63.1416 82H58.7289L72.5094 54.7593C72.8217 54.2006 73.1257 53.6911 73.4216 53.2309C73.7338 52.7543 74.0789 52.3023 74.4569 51.875H57.3976C57.0196 51.875 56.6909 51.7353 56.4116 51.456C56.1322 51.1766 55.9925 50.8479 55.9925 50.4699V46.353H80.62Z" fill="#00E2D5"/>
<path d="M80.62 46.353H82.62V44.353H80.62V46.353ZM80.3735 50.9136L82.2642 51.5656L82.2676 51.5558L82.2708 51.5461L80.3735 50.9136ZM79.8804 52.1216L78.0916 51.2271L78.0865 51.2373L78.0815 51.2476L79.8804 52.1216ZM66.371 79.9292L64.5721 79.0553L64.572 79.0554L66.371 79.9292ZM65.1877 81.4083L66.4121 82.9898L66.4278 82.9776L66.4432 82.9652L65.1877 81.4083ZM58.7289 82L56.9442 81.0972L55.4757 84H58.7289V82ZM72.5094 54.7593L70.7635 53.7837L70.7434 53.8197L70.7248 53.8565L72.5094 54.7593ZM73.4216 53.2309L71.7486 52.1349L71.7439 52.1421L71.7392 52.1494L73.4216 53.2309ZM74.4569 51.875L75.9549 53.2002L78.8964 49.875H74.4569V51.875ZM56.4116 51.456L57.8258 50.0417L57.8258 50.0417L56.4116 51.456ZM55.9925 46.353V44.353H53.9925V46.353H55.9925ZM78.62 46.353V48.9907H82.62V46.353H78.62ZM78.62 48.9907C78.62 49.664 78.5469 50.0688 78.4761 50.2812L82.2708 51.5461C82.5287 50.7724 82.62 49.8952 82.62 48.9907H78.62ZM78.4827 50.2616C78.3373 50.6834 78.2053 50.9997 78.0916 51.2271L81.6693 53.016C81.8842 52.586 82.081 52.097 82.2642 51.5656L78.4827 50.2616ZM78.0815 51.2476L64.5721 79.0553L68.17 80.8032L81.6794 52.9955L78.0815 51.2476ZM64.572 79.0554C64.4244 79.3594 64.218 79.6211 63.9322 79.8515L66.4432 82.9652C67.1764 82.3739 67.7589 81.6495 68.17 80.803L64.572 79.0554ZM63.9634 79.8269C63.9036 79.8732 63.6975 80 63.1416 80V84C64.295 84 65.4529 83.7324 66.4121 82.9898L63.9634 79.8269ZM63.1416 80H58.7289V84H63.1416V80ZM60.5135 82.9028L74.2941 55.6622L70.7248 53.8565L56.9442 81.0972L60.5135 82.9028ZM74.2553 55.735C74.5508 55.2063 74.8337 54.7328 75.1039 54.3124L71.7392 52.1494C71.4178 52.6494 71.0926 53.1948 70.7635 53.7837L74.2553 55.735ZM75.0945 54.327C75.3539 53.9309 75.6406 53.5555 75.9549 53.2002L72.959 50.5499C72.5173 51.0492 72.1137 51.5777 71.7486 52.1349L75.0945 54.327ZM74.4569 49.875H57.3976V53.875H74.4569V49.875ZM57.3976 49.875C57.4615 49.875 57.5526 49.8883 57.6499 49.9296C57.7455 49.9702 57.8034 50.0194 57.8258 50.0417L54.9973 52.8702C55.6329 53.5057 56.463 53.875 57.3976 53.875V49.875ZM57.8258 50.0417C57.8481 50.0641 57.8973 50.122 57.9379 50.2176C57.9793 50.3149 57.9925 50.406 57.9925 50.4699H53.9925C53.9925 51.4045 54.3618 52.2346 54.9973 52.8702L57.8258 50.0417ZM57.9925 50.4699V46.353H53.9925V50.4699H57.9925ZM55.9925 48.353H80.62V44.353H55.9925V48.353Z" fill="#014949"/>
</g>
<defs>
<filter id="filter0_b_82_23" x="-5.12195" y="-5.12195" width="142.244" height="155.244" filterUnits="userSpaceOnUse" color-interpolation-filters="sRGB">
<feFlood flood-opacity="0" result="BackgroundImageFix"/>
<feGaussianBlur in="BackgroundImage" stdDeviation="2.56098"/>
<feComposite in2="SourceAlpha" operator="in" result="effect1_backgroundBlur_82_23"/>
<feBlend mode="normal" in="SourceGraphic" in2="effect1_backgroundBlur_82_23" result="shape"/>
</filter>
<linearGradient id="paint0_linear_82_23" x1="66" y1="3" x2="66" y2="142" gradientUnits="userSpaceOnUse">
<stop stop-color="#00E2D5"/>
<stop offset="1" stop-color="#8CCEE3"/>
</linearGradient>
</defs>
</svg>
