<svg width="48" height="47" viewBox="0 0 48 47" fill="none" xmlns="http://www.w3.org/2000/svg">
<mask id="path-1-outside-1_22_326" maskUnits="userSpaceOnUse" x="0" y="0" width="48" height="47" fill="black">
<rect fill="white" width="48" height="47"/>
<path fill-rule="evenodd" clip-rule="evenodd" d="M37.2377 33.4728V28.2959C37.2377 27.1959 37.9546 26.3194 39.026 26.3194H44.5793C45.4924 26.3194 46.2736 27.1006 46.2736 28.0136V33.6611C46.2736 34.5915 45.4098 35.3553 44.4852 35.3553H39.026C38.0204 35.3553 37.2377 34.4656 37.2377 33.4729V33.4728ZM42.1321 44.9559C42.1321 41.6115 41.5136 39.3109 39.8732 36.8613C38.4488 36.8613 37.5346 36.6028 36.787 35.9C35.8354 35.0051 35.8258 34.0139 35.8258 32.9081C35.0736 32.4044 33.2486 31.4696 32.4373 31.4021C31.8873 33.7628 29.4998 36.1083 26.6016 36.1083H17.9422C15.3894 36.1083 12.7945 33.9511 12.2006 31.4021C10.5227 31.5417 8.58287 32.8157 6.92951 34.4376C4.28525 37.0315 2.59806 40.0684 2.51528 43.8168C2.50789 44.1531 2.50587 44.5268 2.50587 44.9559C15.7146 44.9559 28.9232 44.9559 42.132 44.9559H42.1321ZM2.41166 46.4621C0.973709 46.3372 1.00003 45.0066 1.00003 44.2029C0.999921 36.1581 7.89677 29.3314 15.9656 29.3314C15.9656 26.994 15.9505 28.4003 14.5343 26.1506C13.3629 24.2898 14.0544 24.6421 12.9523 24.3442C11.4937 23.9499 10.1299 22.3528 10.1299 20.4838V19.6366C10.1299 18.2794 11.2561 17.0092 12.4831 16.907C12.4831 15.3795 12.3744 9.13754 12.6162 7.91018C12.9685 6.1215 14.7235 4.27312 16.3987 3.69209C17.9984 3.13727 20.3515 3.35313 22.2719 3.35313C24.1827 3.35313 25.9958 3.63238 27.0923 1.96132C27.3444 1.57711 27.6211 1 28.2018 1C29.3529 1 30.8878 2.11804 31.4168 2.77344C33.063 4.81337 33.1742 6.76784 32.2346 9.07997C31.936 9.81446 31.7723 10.2686 31.7779 11.3529C31.7876 13.2033 31.7785 15.0562 31.7785 16.9069C33.0118 17.0095 34.1317 18.2817 34.1317 19.6365V20.4837C34.1317 22.3048 32.8865 23.7436 31.5787 24.237C30.7526 24.5488 30.7482 24.3105 30.486 24.7443C29.9816 25.5789 30.1279 25.6342 29.2911 26.7497C28.4882 27.8201 28.6724 27.2081 28.6724 29.3312C31.6438 29.3312 33.7152 30.0968 35.8258 31.2136C35.8258 30.3664 35.8268 29.5194 35.8257 28.6722C35.8244 27.5387 35.7986 27.366 36.2003 26.5996C36.7344 25.5805 37.7667 24.8132 39.3083 24.8132H44.1086C46.1361 24.8132 47.7794 26.1851 47.7794 28.1075V33.3784C47.7794 34.9033 46.9822 35.9081 45.9625 36.456C44.9155 37.0184 43.1187 36.861 41.5673 36.861C42.9376 38.9072 43.6381 41.8955 43.6381 45.0498C43.6381 45.7122 42.8888 46.4616 42.2262 46.4616L2.41166 46.4618V46.4621ZM40.532 30.8374C40.532 29.9683 41.6945 29.1028 42.6326 29.9603C43.3381 30.6051 42.9599 32.0609 41.7556 32.0609C41.1708 32.0609 40.5321 31.3981 40.5321 30.8374H40.532ZM39.1201 30.7433C39.1201 32.2624 40.2533 33.4729 41.4732 33.4729H41.9438C45.1825 33.4729 45.4154 28.3303 41.83 28.1348C41.1355 28.097 40.3056 28.5359 39.927 28.9147C39.4239 29.4181 39.1201 29.9539 39.1201 30.7433ZM43.8262 27.9196C43.8262 29.0977 45.4264 28.9695 45.4264 27.9196C45.4264 26.9285 43.8262 26.8583 43.8262 27.9196ZM18.1271 4.85594C20.1188 4.85784 24.619 5.07549 26.2135 4.47116C27.2821 4.06611 27.8858 3.39962 28.484 2.50617C29.2151 2.8569 29.8488 3.05908 30.4622 3.91646C30.9307 4.57119 31.3565 5.40538 31.3839 6.46774C31.4321 8.33248 30.2724 8.30705 30.2724 12.2952C29.9215 12.1268 29.3872 12.0128 28.8605 12.0128H15.2126C14.6389 12.0128 14.3515 12.1888 13.8948 12.2952C13.8948 10.9991 13.8996 9.79116 13.9902 8.62563C14.1494 6.57741 16.0896 4.85415 18.1271 4.85605V4.85594ZM26.1309 34.6965H18.5068C16.1293 34.6965 14.1186 33.1988 13.6124 31.0258C15.4195 30.6048 16.4171 31.0035 17.0323 30.3984C17.5134 29.9252 17.2368 29.9147 17.4714 29.4257C18.958 30.4212 20.05 31.0259 22.3658 31.0259C23.2419 31.0259 24.4445 30.7224 25.0652 30.431C26.494 29.7602 26.5116 29.4897 27.1662 29.1434C27.2163 31.3988 29.041 30.5079 30.7329 30.9493C31.0874 31.0417 31.074 31.2309 30.6438 32.0563C30.2365 32.838 29.6817 33.4369 28.9383 33.9276C28.2842 34.3593 27.1975 34.6968 26.1308 34.6968L26.1309 34.6965ZM11.6359 20.7662C11.6359 19.8721 11.3912 18.4786 12.7768 18.3304C14.7288 18.1217 13.5285 17.4967 13.9154 14.7629C14.0013 14.1559 14.3012 13.5187 15.0243 13.5187H29.237C31.1284 13.5187 29.7586 17.0339 30.4808 18.0164C30.8645 18.5382 32.6255 18.1111 32.6255 19.4485C32.6255 20.7065 32.785 21.3751 31.8997 22.2995C31.4565 22.7623 31.0735 22.9238 30.2968 23.0496C29.3404 23.2046 29.5166 23.5254 29.1455 24.2515C28.021 26.4516 25.3851 29.5198 22.7425 29.5198C20.9449 29.5198 19.8251 29.452 18.3038 28.217C17.5649 27.6171 16.6186 26.55 16.045 25.7695C15.1446 24.5446 15.0775 23.9873 14.7999 23.5319C14.3067 22.7224 13.4716 23.3944 12.4091 22.346C12.037 21.9788 11.6358 21.4632 11.6358 20.7662H11.6359Z"/>
</mask>
<path fill-rule="evenodd" clip-rule="evenodd" d="M37.2377 33.4728V28.2959C37.2377 27.1959 37.9546 26.3194 39.026 26.3194H44.5793C45.4924 26.3194 46.2736 27.1006 46.2736 28.0136V33.6611C46.2736 34.5915 45.4098 35.3553 44.4852 35.3553H39.026C38.0204 35.3553 37.2377 34.4656 37.2377 33.4729V33.4728ZM42.1321 44.9559C42.1321 41.6115 41.5136 39.3109 39.8732 36.8613C38.4488 36.8613 37.5346 36.6028 36.787 35.9C35.8354 35.0051 35.8258 34.0139 35.8258 32.9081C35.0736 32.4044 33.2486 31.4696 32.4373 31.4021C31.8873 33.7628 29.4998 36.1083 26.6016 36.1083H17.9422C15.3894 36.1083 12.7945 33.9511 12.2006 31.4021C10.5227 31.5417 8.58287 32.8157 6.92951 34.4376C4.28525 37.0315 2.59806 40.0684 2.51528 43.8168C2.50789 44.1531 2.50587 44.5268 2.50587 44.9559C15.7146 44.9559 28.9232 44.9559 42.132 44.9559H42.1321ZM2.41166 46.4621C0.973709 46.3372 1.00003 45.0066 1.00003 44.2029C0.999921 36.1581 7.89677 29.3314 15.9656 29.3314C15.9656 26.994 15.9505 28.4003 14.5343 26.1506C13.3629 24.2898 14.0544 24.6421 12.9523 24.3442C11.4937 23.9499 10.1299 22.3528 10.1299 20.4838V19.6366C10.1299 18.2794 11.2561 17.0092 12.4831 16.907C12.4831 15.3795 12.3744 9.13754 12.6162 7.91018C12.9685 6.1215 14.7235 4.27312 16.3987 3.69209C17.9984 3.13727 20.3515 3.35313 22.2719 3.35313C24.1827 3.35313 25.9958 3.63238 27.0923 1.96132C27.3444 1.57711 27.6211 1 28.2018 1C29.3529 1 30.8878 2.11804 31.4168 2.77344C33.063 4.81337 33.1742 6.76784 32.2346 9.07997C31.936 9.81446 31.7723 10.2686 31.7779 11.3529C31.7876 13.2033 31.7785 15.0562 31.7785 16.9069C33.0118 17.0095 34.1317 18.2817 34.1317 19.6365V20.4837C34.1317 22.3048 32.8865 23.7436 31.5787 24.237C30.7526 24.5488 30.7482 24.3105 30.486 24.7443C29.9816 25.5789 30.1279 25.6342 29.2911 26.7497C28.4882 27.8201 28.6724 27.2081 28.6724 29.3312C31.6438 29.3312 33.7152 30.0968 35.8258 31.2136C35.8258 30.3664 35.8268 29.5194 35.8257 28.6722C35.8244 27.5387 35.7986 27.366 36.2003 26.5996C36.7344 25.5805 37.7667 24.8132 39.3083 24.8132H44.1086C46.1361 24.8132 47.7794 26.1851 47.7794 28.1075V33.3784C47.7794 34.9033 46.9822 35.9081 45.9625 36.456C44.9155 37.0184 43.1187 36.861 41.5673 36.861C42.9376 38.9072 43.6381 41.8955 43.6381 45.0498C43.6381 45.7122 42.8888 46.4616 42.2262 46.4616L2.41166 46.4618V46.4621ZM40.532 30.8374C40.532 29.9683 41.6945 29.1028 42.6326 29.9603C43.3381 30.6051 42.9599 32.0609 41.7556 32.0609C41.1708 32.0609 40.5321 31.3981 40.5321 30.8374H40.532ZM39.1201 30.7433C39.1201 32.2624 40.2533 33.4729 41.4732 33.4729H41.9438C45.1825 33.4729 45.4154 28.3303 41.83 28.1348C41.1355 28.097 40.3056 28.5359 39.927 28.9147C39.4239 29.4181 39.1201 29.9539 39.1201 30.7433ZM43.8262 27.9196C43.8262 29.0977 45.4264 28.9695 45.4264 27.9196C45.4264 26.9285 43.8262 26.8583 43.8262 27.9196ZM18.1271 4.85594C20.1188 4.85784 24.619 5.07549 26.2135 4.47116C27.2821 4.06611 27.8858 3.39962 28.484 2.50617C29.2151 2.8569 29.8488 3.05908 30.4622 3.91646C30.9307 4.57119 31.3565 5.40538 31.3839 6.46774C31.4321 8.33248 30.2724 8.30705 30.2724 12.2952C29.9215 12.1268 29.3872 12.0128 28.8605 12.0128H15.2126C14.6389 12.0128 14.3515 12.1888 13.8948 12.2952C13.8948 10.9991 13.8996 9.79116 13.9902 8.62563C14.1494 6.57741 16.0896 4.85415 18.1271 4.85605V4.85594ZM26.1309 34.6965H18.5068C16.1293 34.6965 14.1186 33.1988 13.6124 31.0258C15.4195 30.6048 16.4171 31.0035 17.0323 30.3984C17.5134 29.9252 17.2368 29.9147 17.4714 29.4257C18.958 30.4212 20.05 31.0259 22.3658 31.0259C23.2419 31.0259 24.4445 30.7224 25.0652 30.431C26.494 29.7602 26.5116 29.4897 27.1662 29.1434C27.2163 31.3988 29.041 30.5079 30.7329 30.9493C31.0874 31.0417 31.074 31.2309 30.6438 32.0563C30.2365 32.838 29.6817 33.4369 28.9383 33.9276C28.2842 34.3593 27.1975 34.6968 26.1308 34.6968L26.1309 34.6965ZM11.6359 20.7662C11.6359 19.8721 11.3912 18.4786 12.7768 18.3304C14.7288 18.1217 13.5285 17.4967 13.9154 14.7629C14.0013 14.1559 14.3012 13.5187 15.0243 13.5187H29.237C31.1284 13.5187 29.7586 17.0339 30.4808 18.0164C30.8645 18.5382 32.6255 18.1111 32.6255 19.4485C32.6255 20.7065 32.785 21.3751 31.8997 22.2995C31.4565 22.7623 31.0735 22.9238 30.2968 23.0496C29.3404 23.2046 29.5166 23.5254 29.1455 24.2515C28.021 26.4516 25.3851 29.5198 22.7425 29.5198C20.9449 29.5198 19.8251 29.452 18.3038 28.217C17.5649 27.6171 16.6186 26.55 16.045 25.7695C15.1446 24.5446 15.0775 23.9873 14.7999 23.5319C14.3067 22.7224 13.4716 23.3944 12.4091 22.346C12.037 21.9788 11.6358 21.4632 11.6358 20.7662H11.6359Z" fill="#00E2D5"/>
<path fill-rule="evenodd" clip-rule="evenodd" d="M37.2377 33.4728V28.2959C37.2377 27.1959 37.9546 26.3194 39.026 26.3194H44.5793C45.4924 26.3194 46.2736 27.1006 46.2736 28.0136V33.6611C46.2736 34.5915 45.4098 35.3553 44.4852 35.3553H39.026C38.0204 35.3553 37.2377 34.4656 37.2377 33.4729V33.4728ZM42.1321 44.9559C42.1321 41.6115 41.5136 39.3109 39.8732 36.8613C38.4488 36.8613 37.5346 36.6028 36.787 35.9C35.8354 35.0051 35.8258 34.0139 35.8258 32.9081C35.0736 32.4044 33.2486 31.4696 32.4373 31.4021C31.8873 33.7628 29.4998 36.1083 26.6016 36.1083H17.9422C15.3894 36.1083 12.7945 33.9511 12.2006 31.4021C10.5227 31.5417 8.58287 32.8157 6.92951 34.4376C4.28525 37.0315 2.59806 40.0684 2.51528 43.8168C2.50789 44.1531 2.50587 44.5268 2.50587 44.9559C15.7146 44.9559 28.9232 44.9559 42.132 44.9559H42.1321ZM2.41166 46.4621C0.973709 46.3372 1.00003 45.0066 1.00003 44.2029C0.999921 36.1581 7.89677 29.3314 15.9656 29.3314C15.9656 26.994 15.9505 28.4003 14.5343 26.1506C13.3629 24.2898 14.0544 24.6421 12.9523 24.3442C11.4937 23.9499 10.1299 22.3528 10.1299 20.4838V19.6366C10.1299 18.2794 11.2561 17.0092 12.4831 16.907C12.4831 15.3795 12.3744 9.13754 12.6162 7.91018C12.9685 6.1215 14.7235 4.27312 16.3987 3.69209C17.9984 3.13727 20.3515 3.35313 22.2719 3.35313C24.1827 3.35313 25.9958 3.63238 27.0923 1.96132C27.3444 1.57711 27.6211 1 28.2018 1C29.3529 1 30.8878 2.11804 31.4168 2.77344C33.063 4.81337 33.1742 6.76784 32.2346 9.07997C31.936 9.81446 31.7723 10.2686 31.7779 11.3529C31.7876 13.2033 31.7785 15.0562 31.7785 16.9069C33.0118 17.0095 34.1317 18.2817 34.1317 19.6365V20.4837C34.1317 22.3048 32.8865 23.7436 31.5787 24.237C30.7526 24.5488 30.7482 24.3105 30.486 24.7443C29.9816 25.5789 30.1279 25.6342 29.2911 26.7497C28.4882 27.8201 28.6724 27.2081 28.6724 29.3312C31.6438 29.3312 33.7152 30.0968 35.8258 31.2136C35.8258 30.3664 35.8268 29.5194 35.8257 28.6722C35.8244 27.5387 35.7986 27.366 36.2003 26.5996C36.7344 25.5805 37.7667 24.8132 39.3083 24.8132H44.1086C46.1361 24.8132 47.7794 26.1851 47.7794 28.1075V33.3784C47.7794 34.9033 46.9822 35.9081 45.9625 36.456C44.9155 37.0184 43.1187 36.861 41.5673 36.861C42.9376 38.9072 43.6381 41.8955 43.6381 45.0498C43.6381 45.7122 42.8888 46.4616 42.2262 46.4616L2.41166 46.4618V46.4621ZM40.532 30.8374C40.532 29.9683 41.6945 29.1028 42.6326 29.9603C43.3381 30.6051 42.9599 32.0609 41.7556 32.0609C41.1708 32.0609 40.5321 31.3981 40.5321 30.8374H40.532ZM39.1201 30.7433C39.1201 32.2624 40.2533 33.4729 41.4732 33.4729H41.9438C45.1825 33.4729 45.4154 28.3303 41.83 28.1348C41.1355 28.097 40.3056 28.5359 39.927 28.9147C39.4239 29.4181 39.1201 29.9539 39.1201 30.7433ZM43.8262 27.9196C43.8262 29.0977 45.4264 28.9695 45.4264 27.9196C45.4264 26.9285 43.8262 26.8583 43.8262 27.9196ZM18.1271 4.85594C20.1188 4.85784 24.619 5.07549 26.2135 4.47116C27.2821 4.06611 27.8858 3.39962 28.484 2.50617C29.2151 2.8569 29.8488 3.05908 30.4622 3.91646C30.9307 4.57119 31.3565 5.40538 31.3839 6.46774C31.4321 8.33248 30.2724 8.30705 30.2724 12.2952C29.9215 12.1268 29.3872 12.0128 28.8605 12.0128H15.2126C14.6389 12.0128 14.3515 12.1888 13.8948 12.2952C13.8948 10.9991 13.8996 9.79116 13.9902 8.62563C14.1494 6.57741 16.0896 4.85415 18.1271 4.85605V4.85594ZM26.1309 34.6965H18.5068C16.1293 34.6965 14.1186 33.1988 13.6124 31.0258C15.4195 30.6048 16.4171 31.0035 17.0323 30.3984C17.5134 29.9252 17.2368 29.9147 17.4714 29.4257C18.958 30.4212 20.05 31.0259 22.3658 31.0259C23.2419 31.0259 24.4445 30.7224 25.0652 30.431C26.494 29.7602 26.5116 29.4897 27.1662 29.1434C27.2163 31.3988 29.041 30.5079 30.7329 30.9493C31.0874 31.0417 31.074 31.2309 30.6438 32.0563C30.2365 32.838 29.6817 33.4369 28.9383 33.9276C28.2842 34.3593 27.1975 34.6968 26.1308 34.6968L26.1309 34.6965ZM11.6359 20.7662C11.6359 19.8721 11.3912 18.4786 12.7768 18.3304C14.7288 18.1217 13.5285 17.4967 13.9154 14.7629C14.0013 14.1559 14.3012 13.5187 15.0243 13.5187H29.237C31.1284 13.5187 29.7586 17.0339 30.4808 18.0164C30.8645 18.5382 32.6255 18.1111 32.6255 19.4485C32.6255 20.7065 32.785 21.3751 31.8997 22.2995C31.4565 22.7623 31.0735 22.9238 30.2968 23.0496C29.3404 23.2046 29.5166 23.5254 29.1455 24.2515C28.021 26.4516 25.3851 29.5198 22.7425 29.5198C20.9449 29.5198 19.8251 29.452 18.3038 28.217C17.5649 27.6171 16.6186 26.55 16.045 25.7695C15.1446 24.5446 15.0775 23.9873 14.7999 23.5319C14.3067 22.7224 13.4716 23.3944 12.4091 22.346C12.037 21.9788 11.6358 21.4632 11.6358 20.7662H11.6359Z" stroke="#00E2D5" stroke-width="0.4" mask="url(#path-1-outside-1_22_326)"/>
<path fill-rule="evenodd" clip-rule="evenodd" d="M19.4483 23.4956C19.4483 24.1016 19.6501 24.32 20.4509 24.7519C20.8789 24.9828 21.5794 25.1409 22.0832 25.1402C22.6453 25.1395 23.2511 24.9953 23.7404 24.7755C24.009 24.6548 24.1504 24.537 24.3734 24.3731C25.2323 23.742 24.7086 22.9307 24.1546 22.9307C23.5533 22.9307 23.2449 23.6836 22.1779 23.6836C20.9165 23.6836 20.8258 22.9307 20.0131 22.9307C19.7864 22.9307 19.4483 23.2687 19.4483 23.4954V23.4956Z" fill="#00E2D5"/>
<path fill-rule="evenodd" clip-rule="evenodd" d="M17.0011 18.507C17.0011 19.6198 19.0719 19.9679 19.0719 18.3187C19.0719 17.1662 17.0011 16.9847 17.0011 18.507Z" fill="#00E2D5"/>
<path fill-rule="evenodd" clip-rule="evenodd" d="M25.1899 18.3187C25.1899 19.7558 26.5905 19.5817 26.9591 19.1467C27.7813 18.1758 26.6001 16.8656 25.5444 17.6379C25.3402 17.7872 25.19 17.9917 25.19 18.3187H25.1899Z" fill="#00E2D5"/>
</svg>
