<svg width="48" height="39" viewBox="0 0 48 39" fill="none" xmlns="http://www.w3.org/2000/svg">
<path d="M25.0919 29.0537C25.1016 29.0511 25.1107 29.0487 25.1194 29.0464C25.1922 29.0271 25.2293 29.0173 25.2515 29.0089C25.252 29.0077 25.2525 29.0064 25.253 29.0051C25.2641 28.9774 25.2824 28.9314 25.332 28.8605C25.3844 28.7855 25.4707 28.6839 25.6198 28.5405L25.6199 28.5404C25.6259 28.5347 25.6328 28.5283 25.6394 28.5222C25.642 28.5199 25.6445 28.5176 25.647 28.5153C25.6563 28.5069 25.6642 28.4996 25.6702 28.4938L25.6721 28.492L25.6721 28.492L26.1297 28.0726L26.1327 28.0697L26.1328 28.0698C26.1813 28.029 26.2083 28.0072 26.2244 27.9948C26.2295 27.9908 26.2334 27.9879 26.2366 27.9856C26.2368 27.9854 26.2371 27.9852 26.2373 27.985C26.2382 27.984 26.2391 27.9829 26.2402 27.9816C26.242 27.9795 26.2441 27.9771 26.2466 27.9742C26.2596 27.9593 26.2824 27.9341 26.3255 27.8886L26.327 27.887L26.327 27.887L29.5731 24.604L29.5742 24.6029C29.579 24.5982 29.6724 24.515 29.7326 24.4613C29.7602 24.4368 29.7808 24.4184 29.7828 24.4166L29.8501 24.4905M25.0919 29.0537L29.9317 24.2755C29.8876 24.3169 29.8708 24.3334 29.8572 24.3467L29.8532 24.3506C29.8401 24.3636 29.8273 24.3759 29.7826 24.4167L29.8501 24.4905M25.0919 29.0537C24.9048 28.9039 24.7042 28.6499 24.5061 28.3232C24.2961 27.9768 24.0937 27.5568 23.9172 27.1124C23.5631 26.221 23.3187 25.246 23.3187 24.583C23.3187 23.4859 23.3741 22.6569 23.5785 21.8766C23.7826 21.0974 24.1369 20.3609 24.7424 19.4523C25.1822 18.7925 25.904 18.0545 26.5477 17.6075C27.6004 16.8768 29.0981 16.1737 30.4273 16.1109L25.0919 29.0537ZM29.8501 24.4905C29.8995 24.4454 29.9112 24.4339 29.9272 24.4181C29.9406 24.405 29.9569 24.389 30.0003 24.3483L25.6891 28.6126C25.6973 28.6047 25.7078 28.5952 25.718 28.5859C25.7258 28.5788 25.7334 28.5718 25.7397 28.5657L26.1972 28.1463C26.2935 28.0652 26.3008 28.0632 26.3058 28.0586C26.3107 28.0541 26.3133 28.047 26.3981 27.9573L29.6442 24.6744C29.6475 24.6711 29.7173 24.6089 29.7748 24.5577C29.8131 24.5236 29.8459 24.4944 29.8501 24.4905ZM15.6005 4.88105L15.5096 4.83925C15.6141 4.61212 15.6744 4.26299 15.7224 3.85212C15.7413 3.68994 15.7583 3.51748 15.7757 3.3416C15.8014 3.08171 15.8279 2.81438 15.8622 2.5618C15.9199 2.13633 16.0025 1.72862 16.1516 1.42531C16.3025 1.11851 16.5323 0.9 16.8843 0.9H31.5017C31.7549 0.9 31.9389 0.961957 32.0722 1.09575C32.2009 1.22498 32.2685 1.40836 32.3214 1.61706M15.6005 4.88105L32.3737 2.42871C32.394 2.55486 32.414 2.67874 32.4352 2.79527C32.4588 2.92592 32.4856 3.0654 32.5133 3.21032C32.6316 3.82701 32.7686 4.54206 32.7686 5.09295V4.99295H32.8672M15.6005 4.88105L15.5096 4.83925C15.5 4.86017 15.4789 4.88419 15.4362 4.90841C15.3933 4.93274 15.334 4.95401 15.2582 4.97132C15.1063 5.00598 14.9057 5.02091 14.6785 5.02444C14.4524 5.02795 14.2057 5.02016 13.9631 5.01137C13.9345 5.01033 13.9059 5.00928 13.8774 5.00823C13.6657 5.00044 13.4592 4.99284 13.2786 4.99284H2.85163C2.7456 4.9927 2.639 4.99063 2.53248 4.98857L2.51291 4.9882C2.40025 4.98602 2.28774 4.98399 2.17828 4.98449C1.96032 4.9855 1.74832 4.99652 1.56262 5.03896C1.37657 5.08147 1.20794 5.15751 1.08645 5.2954C0.963754 5.43465 0.9 5.62453 0.9 5.8725V5.9725H0.900355V9.08836C0.900355 9.62122 1.13501 10.136 1.49139 10.5267C1.82622 10.8939 2.27492 11.1585 2.75186 11.2242V35.5945C2.75186 35.8352 2.74294 36.0754 2.73421 36.3104C2.73071 36.4046 2.72725 36.4979 2.7244 36.5901C2.71452 36.9097 2.71211 37.2151 2.74419 37.4796C2.7761 37.7427 2.84355 37.9793 2.98434 38.151C3.12958 38.3281 3.3418 38.4231 3.6314 38.4231H3.78396H3.93567H4.08653H4.23655H4.38574H4.53408H4.6816H4.82829H4.97415H5.11919H5.26342H5.40683H5.54942H5.69121H5.8322H5.97238H6.11176H6.25035H6.38815H6.52516H6.66138H6.79682H6.93149H7.06538H7.19849H7.33084H7.46243H7.59325H7.72331H7.85262H7.98118H8.10899H8.23605H8.36237H8.48796H8.6128H8.73692H8.86031H8.98297H9.10491H9.22614H9.34664H9.46644H9.58553H9.70391H9.82159H9.93857H10.0549H10.1705H10.2854H10.3996H10.5131H10.626H10.7382H10.8497H10.9605H11.0707H11.1802H11.2891H11.3973H11.5048H11.6117H11.718H11.8236H11.9286H12.0329H12.1366H12.2397H12.3422H12.444H12.5452H12.6458H12.7458H12.8452H12.944H13.0421H13.1397H13.2367H13.3331H13.4289H13.5241H13.6187H13.7128H13.8062H13.8991H13.9915H14.0833H14.1745H14.2651H14.3552H14.4447H14.5337H14.6222H14.7101H14.7974H14.8843H14.9706H15.0563H15.1416H15.2263H15.3105H15.3942H15.4774H15.56H15.6422H15.7238H15.805H15.8857H15.9658H16.0455H16.1247H16.2034H16.2817H16.3594H16.4367H16.5135H16.5899H16.6658H16.7412H16.8162H16.8907H16.9648H17.0384H17.1116H17.1843H17.2566H17.3285H17.4H17.471H17.5416H17.6118H17.6815H17.7509H17.8198H17.8884H17.9565H18.0243H18.0916H18.1585H18.2251H18.2913H18.3571H18.4225H18.4875H18.5522H18.6165H18.6804H18.744H18.8072H18.87H18.9325H18.9947H19.0565H19.1179H19.1791H19.2398H19.3003H19.3604H19.4202H19.4797H19.5388H19.5977H19.6562H19.7144H19.7723H19.83H19.8873H19.9443H20.001H20.0574H20.1136H20.1694H20.225H20.2803H20.3354H20.3901H20.4446H20.4989H20.5528H20.6066H20.66H20.7132H20.7662H20.8189H20.8714H20.9237H20.9757H21.0275H21.0791H21.1304H21.1815H21.2324H21.2831H21.3336H21.3839H21.434H21.4838H21.5335H21.583H21.6323H21.6814H21.7303H21.7791H21.8277H21.8761H21.9243H21.9723H22.0202H22.068H22.1156H22.163H22.2103H22.2574H22.3044H22.3513H22.398H22.4446H22.491H22.5373H22.5835H22.6296H22.6756H22.7214H22.7672H22.8128H22.8584H22.9038H22.9491H22.9944H23.0395H23.0846H23.1296H23.1745H23.2193H23.2641H23.3088H23.3534H23.398H23.4424H23.4869H23.5313H23.5756H23.6199H23.6642H23.7084H23.7525H23.7967H23.8408H23.8849H23.9289H23.973H24.017H24.061H24.105H24.149H24.193H24.237H24.2809H24.3249H24.369H24.413H24.457H24.5011H24.5452H24.5893H24.6334H24.6776H24.7218H24.766H24.8103H24.8547H24.899H24.9435H24.988H25.0325H25.0772H25.1218H25.1666H25.2114H25.2563H25.3013H25.3464H25.3916H25.4368H25.4821H25.5276H25.5731H25.6187H25.6645H25.7103H25.7563H25.8024H25.8486H25.8949H25.9414H25.988H26.0347H26.0815H26.1285H26.1757H26.2229H26.2704H26.318H26.3657H26.4136H26.4617H26.5099H26.5583H26.6069H26.6556H26.7045H26.7537H26.8029H26.8524H26.9021H26.952H27.0021H27.0523H27.1028H27.1535H27.2044H27.2556H27.3069H27.3585H27.4103H27.4623H27.5145H27.567H27.6198H27.6727H27.7259H27.7794H27.8331H27.8871H27.9414H27.9959H28.0506H28.1057H28.161H28.2165H28.2724H28.3286H28.385H28.4417H28.4987H28.556H28.6136H28.6716H28.7298H28.7883H28.8471H28.9063H28.9658H29.0256H29.0857H29.1462H29.2069H29.2681H29.3295H29.3913H29.4535H29.516H29.5788H29.642H29.7056H29.7695H29.8338H29.8985H29.9635H30.029H30.0947H30.1609H30.2275H30.2944H30.3618H30.4295H30.4977H30.5662H30.6351H30.7045H30.7743H30.8444H30.915H30.9861H31.0575H31.1294H31.2017H31.2745H31.3477H31.4213H31.4954H31.5699H31.6449H31.7203H31.7962H31.8725H31.9494H32.0266H32.1044H32.1826H32.2614H32.3406H32.4202H32.5004H32.5811H32.6622H32.7439H32.8261H32.9087H32.9919H33.0756H33.1598H33.2445H33.3298H33.4155H33.5018H33.5887H33.676H33.7639H33.8524H33.9414H34.0309H34.121H34.2117H34.3029H34.3946H34.487H34.5799H34.6734H34.7674H34.862H34.9573H35.0531H35.1495H35.2464H35.344H35.4422H35.541H35.6403H35.7403H35.8409H35.9422H36.044H36.1464H36.2495H36.3532H36.4576H36.5626H36.6682H36.7744H36.8814H36.9889H37.0971H37.206H37.3155H37.4257H37.5365H37.648H37.7602H37.8731H37.9866H38.1009H38.2158H38.3314H38.4477H38.5646H38.6823H38.8007H38.9198H39.0396H39.1601H39.2813H39.4033H39.5259H39.6493H39.7735H39.8983H40.0239H40.1502H40.2773H40.4051H40.5337H40.663H40.793H40.9239H41.0554H41.1878H41.3209H41.4548H41.5895H41.7249H41.8612H41.9982H42.136H42.2746H42.4139H42.5541H42.6951H42.8369H42.9795H43.1229H43.2671H43.4122H43.5581H43.7048H43.8523H44.0006H44.1498H44.2998H44.4507H44.6024H44.755C45.0526 38.4231 45.2675 38.317 45.4126 38.13C45.5531 37.9489 45.6196 37.7027 45.6501 37.4367C45.6808 37.1693 45.6764 36.8686 45.6649 36.5693C45.6615 36.4813 45.6575 36.3937 45.6536 36.3068C45.6439 36.095 45.6345 35.8877 45.6345 35.692V11.2242M15.6005 4.88105L45.5345 11.1347M32.3214 1.61706L32.2244 1.64163L32.3214 1.61704C32.3214 1.61705 32.3214 1.61706 32.3214 1.61706ZM32.3214 1.61706C32.3833 1.86107 32.4296 2.14787 32.4734 2.41879C32.4936 2.54363 32.5132 2.66509 32.5335 2.77744C32.5567 2.90547 32.5831 3.04302 32.6107 3.18659C32.7221 3.76741 32.8524 4.44681 32.8672 4.99295M32.8672 4.99295C32.8682 5.02682 32.8686 5.06017 32.8686 5.09295H46.4115C46.9928 5.09295 47.386 5.29172 47.386 5.8725V9.08836C47.386 10.0958 46.4967 11.0547 45.5345 11.1347M32.8672 4.99295H46.4115C46.7102 4.99295 46.9789 5.04342 47.1749 5.1836C47.3774 5.32844 47.486 5.55694 47.486 5.8725V9.08836C47.486 9.62116 47.2514 10.1359 46.895 10.5267C46.5602 10.8938 46.1115 11.1585 45.6345 11.2242M45.6345 11.2242V11.1347H45.5345M45.6345 11.2242C45.6041 11.2284 45.5735 11.2318 45.5428 11.2344L45.5345 11.1347M7.54056 15.0305H7.52681V15.1305C7.52681 15.4537 7.5971 15.7074 7.78339 15.8765C7.96716 16.0433 8.24215 16.1075 8.60134 16.1075H17.3718C17.7417 16.1075 18.0187 16.0116 18.2067 15.8561C18.3954 15.7001 18.4867 15.4901 18.4935 15.2799C18.5072 14.8628 18.1868 14.4458 17.6642 14.4458H8.21162C8.12973 14.4458 8.04678 14.4757 7.97279 14.5167C7.8976 14.5584 7.82452 14.6155 7.76058 14.6794C7.69663 14.7434 7.63951 14.8165 7.59783 14.8917C7.57354 14.9355 7.55315 14.9824 7.54056 15.0305ZM7.52669 24.7778V24.8192L7.52799 24.8205C7.5403 25.042 7.64741 25.222 7.77559 25.3468C7.90804 25.4759 8.07789 25.5601 8.2115 25.5601H17.6641C18.1867 25.5601 18.507 25.143 18.4934 24.7259C18.4865 24.5157 18.3953 24.3057 18.2066 24.1496C18.0186 23.9941 17.7416 23.8983 17.3717 23.8983H8.60122C8.30253 23.8983 8.03386 23.9487 7.83786 24.0889C7.63533 24.2338 7.52669 24.4622 7.52669 24.7778ZM39.1966 24.8778C39.1784 25.5679 38.9755 26.3044 38.6971 26.9816C38.4054 27.691 38.0336 28.3289 37.7142 28.7713C35.5334 31.7914 31.3897 32.9072 27.8726 31.2819C27.6526 31.1802 27.2904 30.9816 26.9555 30.7668C26.7882 30.6595 26.6294 30.5492 26.4993 30.446C26.4038 30.3702 26.3278 30.3013 26.2753 30.2425L30.2815 26.1885C30.2815 26.1885 30.2815 26.1884 30.2816 26.1884C30.337 26.1329 30.4204 26.0417 30.5186 25.9344C30.5387 25.9125 30.5594 25.8898 30.5806 25.8667C30.7068 25.729 30.8532 25.5708 31.0012 25.4209C31.1496 25.2706 31.2975 25.1309 31.4268 25.0294C31.4914 24.9786 31.5492 24.9392 31.5982 24.9129C31.6495 24.8855 31.6812 24.8778 31.6968 24.8778H39.1966ZM30.0321 24.181L29.9318 24.2754L30.1351 24.089C30.135 24.089 30.135 24.089 30.135 24.089C30.1262 24.0974 30.1072 24.1141 30.0861 24.1328C30.0661 24.1504 30.0442 24.1697 30.0327 24.1804L30.0321 24.181ZM37.8508 19.5298C38.65 20.6433 39.171 21.9328 39.1969 23.216H32.0892V16.1094C32.4963 16.1257 32.9976 16.2367 33.4769 16.3812C33.9947 16.5374 34.4777 16.7299 34.7734 16.8746C35.9234 17.4372 37.0311 18.3875 37.8508 19.5298ZM37.4427 16.6902L37.3734 16.7623L37.4426 16.6902C35.9526 15.258 33.35 14.4456 31.112 14.4456C29.7468 14.4456 28.1768 14.8791 27.2653 15.3314C23.9537 16.9745 21.6568 20.0802 21.6568 23.9982V24.0982H21.6575C21.6867 26.9249 22.9512 29.2886 24.3905 30.72C27.7403 34.0513 33.0412 34.6603 36.657 32.0006C38.1445 30.9064 39.02 30.04 39.908 28.2668C41.5673 24.9532 41.0306 20.3987 38.5661 17.8142C38.4595 17.7024 38.3925 17.6111 38.3257 17.5201C38.3193 17.5114 38.313 17.5028 38.3066 17.4941C38.2324 17.3933 38.1551 17.2924 38.0265 17.1748C37.9197 17.0771 37.8365 17.0142 37.7566 16.9539C37.7491 16.9482 37.7416 16.9426 37.7342 16.937C37.6482 16.8719 37.5617 16.8046 37.4427 16.6902ZM7.52681 20.003C7.52681 20.2458 7.58755 20.4463 7.72661 20.5854C7.86566 20.7244 8.06613 20.7851 8.30893 20.7851H17.6641C17.9357 20.7851 18.148 20.6907 18.2923 20.5414C18.4354 20.3933 18.5058 20.1972 18.5058 20.003C18.5058 19.8088 18.4354 19.6126 18.2923 19.4645C18.148 19.3152 17.9357 19.2209 17.6641 19.2209H8.30893C8.06606 19.2209 7.86559 19.2816 7.72655 19.4207C7.58751 19.5597 7.52681 19.7602 7.52681 20.003ZM7.52681 29.358C7.52681 29.5585 7.54504 29.8032 7.6684 29.9987C7.79791 30.204 8.02919 30.335 8.40636 30.335H17.5666C18.1443 30.335 18.4704 29.9242 18.4839 29.5074C18.4906 29.3001 18.42 29.09 18.2642 28.9316C18.1077 28.7724 17.8731 28.6733 17.5666 28.6733H8.40636C8.20548 28.6733 7.99067 28.7483 7.82518 28.8657C7.66173 28.9817 7.52681 29.1542 7.52681 29.358ZM4.41352 11.3323H43.9729V36.7613H4.41352V11.3323ZM45.1448 9.67048H3.24169C2.98494 9.67048 2.82936 9.59578 2.72801 9.47196C2.62183 9.34224 2.56165 9.14281 2.53431 8.86552C2.50714 8.58995 2.51362 8.25377 2.52746 7.86251C2.53006 7.78922 2.5329 7.71407 2.53581 7.63718C2.54728 7.33452 2.55977 7.00484 2.56184 6.65462H45.8248C45.8269 6.95514 45.8377 7.24827 45.848 7.52529C45.8513 7.61384 45.8545 7.70074 45.8573 7.78572C45.8701 8.16806 45.8755 8.51029 45.8475 8.79752C45.8192 9.08666 45.7584 9.30508 45.6504 9.44999C45.5476 9.58784 45.3936 9.67048 45.1449 9.67048H45.1448ZM17.549 2.56179H30.8375C30.9258 2.95585 30.9938 3.37335 31.0623 3.79424L31.0626 3.7962C31.1283 4.19976 31.1945 4.60642 31.2794 4.99295H17.1071C17.1918 4.60686 17.2579 4.20063 17.3236 3.79746L17.3241 3.79428C17.3926 3.37338 17.4606 2.95585 17.549 2.56179Z" fill="#00E2D5" stroke="#00E2D5" stroke-width="0.2"/>
</svg>
