<svg width="43" height="42" viewBox="0 0 43 42" fill="none" xmlns="http://www.w3.org/2000/svg">
<path fill-rule="evenodd" clip-rule="evenodd" d="M29.8717 19.7756H29.4579C28.9412 19.7756 28.2994 19.1338 28.2994 18.617V18.2033C28.2994 16.788 31.0302 16.4673 31.0302 18.4514C31.0302 19.0983 30.4812 19.7752 29.8717 19.7752V19.7756ZM11.3362 12.8248C11.3362 10.794 14.067 11.1732 14.067 12.5767V12.9905C14.067 14.4505 11.3362 14.6452 11.3362 12.8248ZM5.62648 8.52206C5.62648 9.30676 5.00454 9.92871 4.21983 9.92871C2.96891 9.92871 2.42403 8.36314 3.24263 7.54454C4.07562 6.71155 5.6268 7.27945 5.6268 8.52174L5.62648 8.52206ZM19.7764 5.70877C19.7764 3.88643 22.5897 3.88643 22.5897 5.70877C22.5897 7.5423 19.7764 7.5423 19.7764 5.70877ZM36.7396 2.89547C36.7396 2.17057 37.3606 1.48883 38.0634 1.48883C39.3396 1.48883 39.9648 2.95303 39.1641 3.83047C38.3525 4.71973 36.7396 4.1691 36.7396 2.89547ZM36.1605 4.96403C35.6905 5.85202 35.2259 6.69364 34.7273 7.58547L31.4705 13.5964C31.3177 13.8701 31.2349 13.9872 31.0862 14.2877L30.3683 15.6388C29.4624 15.5057 29.6933 15.4933 28.7132 15.7216L23.3348 7.61233C23.8061 6.72178 23.9967 6.9664 23.9967 5.46095C23.9967 4.6286 23.5822 4.09395 23.1499 3.65971C22.662 3.16951 21.9841 2.86286 21.2544 2.82353C19.8685 2.74838 18.3698 4.10387 18.3698 5.37845C18.3698 6.03461 18.3221 6.33391 18.6179 6.95073L14.3976 10.4263C13.8787 10.2878 12.724 9.32019 11.0516 10.4729C10.8239 10.63 10.79 10.7067 10.5912 10.84C10.3213 10.777 7.03313 9.16543 7.03313 9.01961C7.03313 8.58058 7.19717 8.67811 6.97109 7.7575C6.87964 7.38466 6.64461 6.97791 6.43069 6.72562C4.82227 4.82589 1.40622 5.61859 1.40622 8.68866C1.40622 9.89449 2.30572 10.8525 3.20138 11.1963C3.73027 11.3993 4.4037 11.4428 4.9975 11.2871C5.68723 11.1058 6.04953 10.6418 6.37121 10.4266L9.91357 12.1958C9.8995 12.7529 9.58741 13.6911 10.6516 14.7517C12.5919 16.6857 15.5561 15.2605 15.5561 12.7433C15.5561 12.239 15.4014 11.9864 15.308 11.5848C15.4001 11.4591 15.6342 11.2836 15.7857 11.1524C15.9763 10.9874 16.1279 10.8672 16.3265 10.7003L19.5279 8.02674C19.8656 8.25282 20.2228 8.44084 20.7002 8.51502C21.318 8.61127 21.5754 8.45363 22.1759 8.4402C22.2693 8.78938 25.7813 13.9309 26.1477 14.4809C26.3201 14.7393 27.4716 16.3976 27.4716 16.5494C27.4716 16.7627 27.3862 16.7279 27.2611 16.9185C27.1633 17.0671 27.1016 17.1823 27.0312 17.3505C26.2219 19.2815 27.7459 21.2663 29.4576 21.2663C30.4658 21.2663 30.926 21.1653 31.7142 20.3786C32.1056 19.9882 32.5194 19.2722 32.5194 18.5358C32.5194 17.3834 32.0589 16.9731 31.609 16.3016L33.0713 13.7093C33.5727 12.7753 34.0194 11.9493 34.5316 11.0322L35.6073 9.04615C35.9204 8.48625 37.3293 5.9358 37.4012 5.62691C38.5063 5.88432 39.4493 5.6429 40.2375 4.82238C41.9508 3.03969 40.7389 0 38.0631 0C36.0026 0 34.5588 2.35955 35.6643 4.30212C35.8238 4.58255 36.0003 4.72709 36.1599 4.96499L36.1605 4.96403Z" fill="#00E2D5"/>
<path fill-rule="evenodd" clip-rule="evenodd" d="M1.40665 38.2282H40.96V39.5521H1.40665V38.2282ZM0 37.3179V40.4621C0 40.7633 0.403544 41.0412 0.744733 41.0412H41.6222C41.9634 41.0412 42.367 40.763 42.367 40.4621V37.3179C42.367 37.0544 41.9452 36.7388 41.6222 36.7388H0.744733C0.42177 36.7388 0 37.0544 0 37.3179H0Z" fill="#00E2D5"/>
<path fill-rule="evenodd" clip-rule="evenodd" d="M36.0778 13.4867H40.2153V34.6702H36.0778V13.4867ZM34.5884 12.742V35.4149C34.5884 35.8153 34.8503 36.0768 35.2503 36.0768H40.96C41.4678 36.0768 41.7047 35.6829 41.7047 35.1668V12.8248C41.7047 12.5018 41.3891 12.0801 41.1257 12.0801H35.2506C34.8503 12.0801 34.5887 12.342 34.5887 12.742H34.5884Z" fill="#00E2D5"/>
<path fill-rule="evenodd" clip-rule="evenodd" d="M19.1146 16.3001H23.2521V34.6699H19.1146V16.3001ZM17.6252 15.6382V35.3322C17.6252 35.6551 17.9408 36.0769 18.2043 36.0769H24.1621C24.4256 36.0769 24.7412 35.6551 24.7412 35.3322V15.6382C24.7412 15.297 24.463 14.8934 24.1621 14.8934H18.2043C17.9031 14.8934 17.6252 15.297 17.6252 15.6382Z" fill="#00E2D5"/>
<path fill-rule="evenodd" clip-rule="evenodd" d="M2.15158 19.1961H6.28902V34.6699H2.15158V19.1961ZM0.662109 18.617V35.1665C0.662109 35.6829 0.899055 36.0765 1.40684 36.0765H7.11657C7.51691 36.0765 7.77848 35.815 7.77848 35.4146V18.2858C7.77848 18.0552 7.42962 17.7067 7.19939 17.7067H1.40716C0.899375 17.7067 0.662429 18.1006 0.662429 18.6167L0.662109 18.617Z" fill="#00E2D5"/>
<path fill-rule="evenodd" clip-rule="evenodd" d="M10.5917 23.4164H14.8119V34.6702H10.5917V23.4164ZM9.18503 22.5063V35.4149C9.18503 35.8153 9.4466 36.0768 9.84694 36.0768H15.5567C16.147 36.0768 16.3014 35.5962 16.3014 35.0012V22.9201C16.3014 22.2777 16.0472 21.9272 15.3913 21.9272H9.93008C9.58889 21.9272 9.18535 22.2054 9.18535 22.5063H9.18503Z" fill="#00E2D5"/>
<path fill-rule="evenodd" clip-rule="evenodd" d="M27.555 29.0432H31.7753V34.6701H27.555V29.0432ZM26.0656 28.5466V35.0011C26.0656 35.5962 26.22 36.0768 26.8103 36.0768H32.52C32.9204 36.0768 33.182 35.8152 33.182 35.4149V28.1332C33.182 27.7808 32.67 27.5541 32.2719 27.5541H26.8931C26.3754 27.5541 26.0656 28.0129 26.0656 28.5469V28.5466Z" fill="#00E2D5"/>
</svg>
