<svg width="50" height="39" viewBox="0 0 50 39" fill="none" xmlns="http://www.w3.org/2000/svg">
<path fill-rule="evenodd" clip-rule="evenodd" d="M22.9492 36.9811C21.9737 36.9811 21.3867 36.1114 21.3867 35.5086C21.3867 34.6476 22.0228 34.2312 22.4853 33.7661C23.5928 32.6528 23.4198 32.5636 24.6093 32.5636C25.3037 32.5636 25.8789 33.382 25.8789 34.0361C25.8789 34.8376 25.1647 35.3922 24.7314 35.8276C24.2513 36.3102 23.855 36.981 22.9493 36.981L22.9492 36.9811ZM46.7119 12.0683C47.0477 12.783 47.9273 13.9855 48.0468 14.5011C47.6213 14.9931 44.7403 16.7589 43.9452 16.7589L38.6541 7.45105C38.3344 6.92018 38.0635 6.45717 37.7594 5.89622C37.4926 5.40375 37.0377 4.82535 36.914 4.29191C37.1927 3.99655 37.4048 3.90446 37.7734 3.68333C40.9941 1.75101 40.7443 1.70933 41.3272 2.70238C43.1318 5.77631 44.9197 8.96625 46.7119 12.0683ZM43.5854 2.59212C43.1547 1.87205 42.7155 0.904963 42.108 0.445136C40.5924 -0.702326 39.0158 0.637116 37.6025 1.45C37.1274 1.72329 36.5991 2.03918 36.1255 2.3213C35.4069 2.7493 35.4343 2.89067 35.0585 3.60479C32.2264 3.60479 29.3944 3.6051 26.5624 3.60479C21.9499 3.60428 22.0486 5.18569 20.6054 6.15709C18.7842 5.73063 16.963 5.86265 14.9414 5.86265C14.8295 4.51151 12.3938 3.58025 10.9553 2.70351C8.35207 1.11686 7.53718 2.78246 6.63496 4.28637C4.90284 7.17376 3.12609 10.5248 1.38662 13.4409C0.746058 14.5147 0.125518 15.4724 0 16.3555V16.968C0.108155 17.6533 0.61094 18.2964 1.75786 18.9187C2.84769 19.51 4.57623 20.827 5.76543 20.8783C6.43357 20.9073 6.23237 20.9132 7.00692 21.6918C10.2725 24.9749 8.38864 22.8976 9.06565 25.3159C9.19955 25.7944 9.40932 26.2099 9.69518 26.5483C10.2457 27.1999 11.0471 27.8517 12.2071 27.8517C12.2071 30.1642 13.6336 31.7783 15.8203 31.7783C15.8203 33.834 17.3936 35.4104 19.4336 35.4104C19.4336 36.6918 19.9009 37.5239 20.7302 38.23C21.4121 38.8105 22.4952 39.1507 23.6223 38.9344C25.1397 38.6434 27.3971 36.2477 27.6366 35.2141C28.0207 35.3171 28.3425 35.7035 29.2072 35.8017C29.8474 35.8744 30.4059 35.832 30.972 35.6218C31.4225 35.4546 31.9823 35.1423 32.2971 34.7942C32.4306 34.6465 32.6319 34.36 32.7575 34.1772C32.9718 33.8651 33.0149 33.7395 33.1055 33.3489C35.5 34.9607 38.3195 32.9879 38.4766 31.091C39.5747 31.6206 41.4116 31.0976 42.2589 30.083C42.8711 29.3497 43.191 28.4035 43.0721 27.2635C42.9501 26.0931 42.3767 25.5384 41.7236 24.8821C41.2397 24.3959 40.1662 23.4275 39.8437 22.9433C40.15 22.4835 42.5215 20.2043 43.2373 19.4829C44.6065 18.1026 43.517 19.6611 46.3199 17.9678C48.4862 16.659 50 16.3877 50 14.2066C50 13.2381 44.4263 3.9983 43.5855 2.59202L43.5854 2.59212ZM19.4336 33.349C18.169 33.349 17.8711 32.6163 17.8711 31.5819C17.8711 30.9587 19.7118 28.9315 20.703 28.9315C21.7568 28.9315 22.2655 29.5681 22.2655 30.6003C22.2655 31.2189 21.5182 31.8914 21.1669 32.2445C20.6496 32.7645 20.1935 33.3489 19.4336 33.3489V33.349ZM14.2577 28.4407C14.2577 27.3148 14.5794 27.2828 15.454 26.4037C15.8713 25.9843 17.0421 24.5728 18.2337 25.72C18.6258 26.0974 18.6522 26.5321 18.6522 27.0664C18.6522 27.6232 18.1549 28.0092 17.8466 28.3181C17.5026 28.6626 17.1276 29.0986 16.7715 29.397C15.6705 30.319 14.2577 29.3534 14.2577 28.4408V28.4407ZM12.4999 25.8884C11.6026 25.8884 9.88096 24.74 11.7917 22.8205C12.3656 22.244 12.5394 21.9617 13.4764 21.9617C14.1465 21.9617 14.8436 22.7441 14.8436 23.4342C14.8436 24.4232 13.4453 25.8884 12.4999 25.8884ZM20.5077 13.0286C20.0483 13.0286 19.6178 12.9467 19.266 12.608C18.9765 12.3294 18.8475 11.95 18.8475 11.458C18.8475 10.5016 20.4125 9.24673 21.3134 8.34124C22.0813 7.56932 23.2505 6.12578 24.3528 5.80105C25.5705 5.44225 33.3623 5.66626 35.3514 5.66626C35.4711 6.11674 41.4038 16.154 42.1874 17.6425L38.403 21.4951L31.3233 14.4273C33.5056 12.9079 34.5273 8.90568 32.6171 8.90568C31.4227 8.90568 31.6597 10.29 31.427 11.0469C31.244 11.6424 30.4854 12.7687 29.8828 12.9305C29.4576 12.6442 27.2991 10.3847 26.6358 9.71549C26.2538 9.33009 25.8836 8.82489 25.2663 8.97087C24.411 9.17322 21.6939 13.0286 20.5078 13.0286H20.5077ZM16.7968 11.458C16.7968 11.9486 16.9554 12.553 17.1002 12.92C17.8573 14.8385 20.7375 16.2152 23.2669 13.6426C23.7947 13.1058 24.9675 11.8085 25.4881 11.458C26.0043 11.8055 38.5547 24.5644 40.4053 26.4034C41.0932 27.0871 41.4895 27.9338 40.699 28.8097C40.4731 29.06 40.1395 29.2233 39.6978 29.2706C38.8305 29.3635 38.3409 28.6479 37.866 28.1706L31.8601 22.1334C31.419 21.69 29.1542 19.2129 28.7107 19.2129C28.1681 19.2129 27.4413 19.3365 27.4413 20.0964C27.4413 20.8081 28.8796 21.9841 29.6141 22.7223L35.6199 28.7595C36.3007 29.4416 36.5232 29.5531 36.5232 30.6002C36.5232 31.6079 35.5582 31.8763 34.7653 31.8763C34.0756 31.8763 32.2969 29.8368 31.7624 29.2994L24.8288 22.3297C24.3524 21.8508 23.8404 21.0781 23.1442 21.0781C22.5877 21.0781 22.1677 21.5947 22.1677 22.1579C22.1677 22.7041 23.9046 24.2475 24.3405 24.6857L30.2487 30.6247C30.9383 31.3179 31.2497 31.4001 31.2497 32.3672C31.2497 33.2094 30.5812 33.8397 29.7848 33.8397C28.0446 33.8397 27.2714 30.502 24.3161 30.502C24.2719 28.5073 22.7312 26.8699 20.7028 26.8699C20.7028 25.2931 19.8458 24.193 18.5904 23.5943C18.0309 23.3274 17.685 23.353 17.0929 23.288C16.6881 23.2437 16.8657 23.4148 16.7775 22.8709C16.6522 22.0974 16.4292 21.6372 15.8458 21.052C14.5736 19.7758 12.8851 19.5231 11.3638 20.5254C10.7413 20.9355 10.4726 21.4205 9.96052 21.7652L7.88595 19.7277C8.04906 19.1523 9.25051 17.2535 9.56997 16.6606C9.84041 16.1586 10.1293 15.6714 10.4311 15.1703L13.0074 10.692C13.3094 10.1857 13.5829 9.68212 13.8618 9.19499C14.8852 7.40804 14.0139 7.82577 18.1637 7.82577C18.5004 7.82577 18.5418 7.89835 18.8473 7.92392C18.4802 8.47501 17.9322 8.78023 17.5363 9.35473C17.1714 9.88437 16.7965 10.6192 16.7965 11.4579L16.7968 11.458ZM6.05466 18.8204C5.41349 18.8204 5.2986 18.662 4.88752 18.423C4.24972 18.0521 2.19028 16.9187 1.95313 16.5627L2.81327 14.9732C3.12987 14.4438 3.40225 13.9211 3.70537 13.4158C4.0185 12.8938 4.29149 12.3884 4.59482 11.8557C4.8961 11.3264 5.22088 10.8208 5.53298 10.2465L8.67174 4.76303C9.27461 3.72891 9.02879 3.87048 12.151 5.72272C12.5876 5.98174 12.7545 6.00217 13.086 6.35348C12.9547 6.92029 9.91231 12.0036 9.60388 12.5717L6.92879 17.245C6.72433 17.6041 6.15567 18.4407 6.05477 18.8205L6.05466 18.8204Z" fill="#00E2D5"/>
</svg>
