<svg width="100" height="100" viewBox="0 0 100 100" fill="none" xmlns="http://www.w3.org/2000/svg">
<g filter="url(#filter0_d_153_59)">
<path d="M25 75L28.5314 62.1604C26.3523 58.4021 25.2072 54.1417 25.2093 49.7729C25.2156 36.1146 36.3832 25 50.1047 25C56.7634 25.0021 63.0139 27.5833 67.7154 32.2667C72.4148 36.95 75.0021 43.175 75 49.7958C74.9937 63.4562 63.8261 74.5708 50.1047 74.5708C45.939 74.5687 41.8341 73.5292 38.1981 71.5542L25 75ZM38.8093 67.0687C42.3177 69.1417 45.6669 70.3833 50.0963 70.3854C61.5005 70.3854 70.7904 61.1479 70.7967 49.7917C70.8009 38.4125 61.5549 29.1875 50.113 29.1833C38.7005 29.1833 29.4168 38.4208 29.4126 49.775C29.4105 54.4104 30.7753 57.8812 33.0675 61.5125L30.9763 69.1125L38.8093 67.0687ZM62.6455 55.6854C62.4906 55.4271 62.0761 55.2729 61.4523 54.9625C60.8306 54.6521 57.7723 53.1542 57.2009 52.9479C56.6315 52.7417 56.217 52.6375 55.8005 53.2583C55.386 53.8771 54.1928 55.2729 53.8307 55.6854C53.4686 56.0979 53.1043 56.15 52.4826 55.8396C51.8609 55.5292 49.8556 54.8771 47.4797 52.7667C45.6313 51.125 44.3816 49.0979 44.0195 48.4771C43.6574 47.8583 43.9818 47.5229 44.2916 47.2146C44.5721 46.9375 44.9133 46.4917 45.2252 46.1292C45.5413 45.7708 45.6439 45.5125 45.8532 45.0979C46.0605 44.6854 45.9579 44.3229 45.8009 44.0125C45.6439 43.7042 44.4005 40.6562 43.8834 39.4167C43.3769 38.2104 42.864 38.3729 42.483 38.3542L41.2899 38.3333C40.8754 38.3333 40.2014 38.4875 39.632 39.1083C39.0626 39.7292 37.455 41.225 37.455 44.2729C37.455 47.3208 39.6843 50.2646 39.9941 50.6771C40.306 51.0896 44.3796 57.3438 50.6196 60.025C52.1037 60.6625 53.2634 61.0437 54.1656 61.3292C55.656 61.8 57.0125 61.7333 58.0842 61.575C59.2795 61.3979 61.7642 60.0771 62.2833 58.6312C62.8025 57.1833 62.8025 55.9437 62.6455 55.6854Z" fill="#00E2D5"/>
</g>
<defs>
<filter id="filter0_d_153_59" x="0" y="0" width="100" height="100" filterUnits="userSpaceOnUse" color-interpolation-filters="sRGB">
<feFlood flood-opacity="0" result="BackgroundImageFix"/>
<feColorMatrix in="SourceAlpha" type="matrix" values="0 0 0 0 0 0 0 0 0 0 0 0 0 0 0 0 0 0 127 0" result="hardAlpha"/>
<feOffset/>
<feGaussianBlur stdDeviation="12.5"/>
<feComposite in2="hardAlpha" operator="out"/>
<feColorMatrix type="matrix" values="0 0 0 0 0 0 0 0 0 0.886275 0 0 0 0 0.835294 0 0 0 0.5 0"/>
<feBlend mode="normal" in2="BackgroundImageFix" result="effect1_dropShadow_153_59"/>
<feBlend mode="normal" in="SourceGraphic" in2="effect1_dropShadow_153_59" result="shape"/>
</filter>
</defs>
</svg>
