<svg width="116" height="96" viewBox="0 0 116 96" fill="none" xmlns="http://www.w3.org/2000/svg">
<g filter="url(#filter0_d_277_35)">
<path fill-rule="evenodd" clip-rule="evenodd" d="M89.6406 32.1211C88.8795 29.3369 86.6505 27.1417 83.8235 26.3921C78.6588 25 57.9999 25 57.9999 25C57.9999 25 37.341 25 32.1762 26.3385C29.4036 27.0881 27.1203 29.3369 26.3591 32.1211C25 37.2075 25 47.7553 25 47.7553C25 47.7553 25 58.3565 26.3591 63.3895C27.1203 66.1736 29.3492 68.3688 32.1762 69.1184C37.3953 70.5105 57.9999 70.5105 57.9999 70.5105C57.9999 70.5105 78.6588 70.5105 83.8235 69.172C86.6505 68.4224 88.8795 66.2272 89.6406 63.443C90.9997 58.3565 90.9997 47.8088 90.9997 47.8088C90.9997 47.8088 91.0541 37.2075 89.6406 32.1211ZM80.6452 30.1318C83.1243 30.7412 85.0789 32.5259 85.7464 34.7894C86.9859 38.9247 86.9382 47.5435 86.9382 47.5435C86.9382 47.5435 86.9382 56.1188 85.7464 60.2541C85.0789 62.5176 83.1243 64.3024 80.6452 64.9118C76.1161 66 57.9999 66 57.9999 66C57.9999 66 39.9313 66 35.3546 64.8682C32.8755 64.2588 30.9208 62.4741 30.2534 60.2106C29.0615 56.1188 29.0615 47.5 29.0615 47.5C29.0615 47.5 29.0615 38.9247 30.2534 34.7894C30.9208 32.5259 32.9232 30.6976 35.3546 30.0882C39.8836 29 57.9999 29 57.9999 29C57.9999 29 76.1161 29 80.6452 30.1318Z" fill="#00E2D5"/>
<path d="M51.8627 37.8044C51.1963 37.4418 50.3846 37.9241 50.3846 38.6828V56.3172C50.3846 57.0759 51.1963 57.5582 51.8627 57.1956L68.0631 48.3783C68.7591 47.9996 68.7591 47.0004 68.0631 46.6217L51.8627 37.8044Z" fill="#00E2D5"/>
</g>
<defs>
<filter id="filter0_d_277_35" x="0" y="0" width="116" height="95.5107" filterUnits="userSpaceOnUse" color-interpolation-filters="sRGB">
<feFlood flood-opacity="0" result="BackgroundImageFix"/>
<feColorMatrix in="SourceAlpha" type="matrix" values="0 0 0 0 0 0 0 0 0 0 0 0 0 0 0 0 0 0 127 0" result="hardAlpha"/>
<feOffset/>
<feGaussianBlur stdDeviation="12.5"/>
<feComposite in2="hardAlpha" operator="out"/>
<feColorMatrix type="matrix" values="0 0 0 0 0 0 0 0 0 0.886275 0 0 0 0 0.835294 0 0 0 0.5 0"/>
<feBlend mode="normal" in2="BackgroundImageFix" result="effect1_dropShadow_277_35"/>
<feBlend mode="normal" in="SourceGraphic" in2="effect1_dropShadow_277_35" result="shape"/>
</filter>
</defs>
</svg>
