<svg width="36" height="38" viewBox="0 0 36 38" fill="none" xmlns="http://www.w3.org/2000/svg">
<path fill-rule="evenodd" clip-rule="evenodd" d="M30.4681 6.66359C30.3468 6.58399 29.0771 5.4358 28.1061 4.80272C19.1878 -1.01292 8.25315 1.92545 2.76563 10.5765C1.2414 13.0958 0.416992 16.2621 0.416992 19.2629C0.416992 20.5473 2.04234 21.077 2.86445 20.1228C3.35924 19.5486 3.22235 18.3636 3.33416 17.6176C3.5277 16.3264 3.86911 15.0857 4.34302 13.9175C8.1935 4.42498 21.1455 1.27846 28.2452 8.32913C28.5121 8.59427 29.1026 9.02615 29.1974 9.37392C28.2675 9.4497 24.8875 10.7505 23.5624 11.1773C21.514 11.8369 22.1713 13.9156 23.7404 13.9156C23.9691 13.9156 32.0063 11.3622 32.5141 11.0857C32.8063 10.9266 33.2342 10.5083 33.2342 10.1065V1.75577C33.2342 0.0894479 30.494 0.105407 30.4779 1.87042C30.4659 3.19103 30.6022 5.23577 30.4683 6.66369L30.4681 6.66359ZM5.94888 31.8623C6.07018 31.9419 7.33992 33.0901 8.3109 33.7232C17.2292 39.5388 28.1638 36.6004 33.6514 27.9493C35.1756 25.4301 36 22.2638 36 19.263C36 17.9786 34.3747 17.4489 33.5525 18.403C33.0578 18.9773 33.1946 20.1623 33.0828 20.9083C32.8893 22.1995 32.5479 23.4402 32.074 24.6084C28.2235 34.1009 15.2715 37.2474 8.17182 30.1967C7.90484 29.9316 7.31444 29.4997 7.21962 29.152C8.14954 29.0762 11.5295 27.7753 12.8546 27.3486C14.903 26.6889 14.2457 24.6103 12.6766 24.6103C12.4479 24.6103 4.41066 27.1637 3.90288 27.4402C3.61073 27.5993 3.18278 28.0176 3.18278 28.4194V36.7701C3.18278 38.4364 5.923 38.4205 5.93908 36.6555C5.95107 35.3349 5.81479 33.2901 5.94868 31.8622L5.94888 31.8623Z" fill="#00E2D5"/>
</svg>
