<svg width="561" height="564" viewBox="0 0 561 564" fill="none" xmlns="http://www.w3.org/2000/svg">
<g filter="url(#filter0_d_174_447)">
<path opacity="0.4" d="M425 282C424.368 281.996 423.76 282.23 423.297 282.656C422.833 283.081 422.551 283.665 422.511 284.288L415.925 391H412L413.57 289.078C413.609 287.18 414.402 285.373 415.78 284.049C417.154 282.725 419.006 281.989 420.926 282H425Z" fill="black"/>
<path d="M400 264L403.052 395H415.208L421.997 284.781C422.036 284.157 422.316 283.572 422.779 283.145C423.243 282.718 423.85 282.484 424.484 282.489C425.115 282.494 425.722 282.738 426.178 283.171C426.633 283.605 426.902 284.195 426.933 284.82L433.103 395H445.263L449 264H400Z" fill="#21252B"/>
<path opacity="0.4" d="M449 268L445.598 396H444.422L444.539 392.732H440L441.612 268.012L449 268Z" fill="black"/>
<path d="M404.317 402.667L404 392H414L413.562 403L404.317 402.667Z" fill="#FC9D9D"/>
<path opacity="0.15" d="M414 395L413.677 403L411.24 402.926L411.313 398.224C411.313 397.856 411.197 397.498 410.974 397.207C410.755 396.916 410.444 396.709 410.094 396.618L404 395.012L414 395Z" fill="black"/>
<path d="M450.081 308L449.409 225.287L449.874 226.984L465 223.409L460.902 204.198C460.479 202.278 459.615 200.485 458.377 198.966C457.135 197.447 455.559 196.244 453.772 195.456L435.098 187.295H435.059L433.944 186.807L432.476 187.132L422.512 189.371L419.11 184.905L417.957 184.518V184.549L405.676 183.147C401.197 182.633 396.668 183.476 392.668 185.567L376 194.197L387.002 205.972L397.15 203.764L397.722 208.241C398.964 217.669 398.607 235.741 398.234 257.133C397.892 276.546 397.215 307.225 397.215 307.225L450.081 308ZM435.09 187.33C435.09 187.349 435.09 187.38 435.09 187.419V187.33Z" fill="#00E2D5"/>
<path d="M418.678 170.188L418.78 183.207C418.78 183.295 418.765 183.383 418.729 183.464C418.694 183.546 418.643 183.619 418.58 183.68C418.517 183.741 418.438 183.789 418.356 183.82C418.269 183.851 418.183 183.865 418.092 183.861C416.956 183.803 414.847 183.722 415.009 183.935C417.762 196.322 433.494 196.709 439 188.193L436.467 186.672C436.385 186.622 436.318 186.557 436.263 186.478C436.212 186.4 436.176 186.311 436.16 186.219L433.454 169L418.678 170.188Z" fill="#FC9D9D"/>
<path d="M434.636 162.663C434.636 162.663 437.539 182.185 426.946 182.977C416.6 183.769 416.285 164.03 416.285 164.03L416 158.376L429.321 156L432.687 157.765L434.636 162.663Z" fill="#FC9D9D"/>
<path opacity="0.15" d="M434 181.681L433.229 176C432.281 179.669 430.318 182.726 426.881 183.337H426.915L426.163 183.452C423.425 183.681 421.146 182.308 419.427 179.353C419.412 179.322 419.393 179.295 419.367 179.273C419.344 179.251 419.314 179.235 419.284 179.226C419.254 179.217 419.22 179.215 419.19 179.221C419.16 179.226 419.13 179.238 419.104 179.257C419.077 179.276 419.055 179.301 419.036 179.33C419.017 179.359 419.006 179.391 419.002 179.426C418.998 179.46 418.998 179.495 419.01 179.528C419.017 179.562 419.032 179.593 419.051 179.619C420.875 182.755 423.293 184.206 426.197 183.976C426.806 183.93 427.404 183.802 427.983 183.595C430.142 183.833 432.3 183.147 434 181.681Z" fill="black"/>
<path d="M432 158.65C432 158.65 435.133 156.409 436.602 160.247C437.856 163.483 435.746 167 435.746 167L433.929 166.787C433.168 166.752 432.641 166.36 432.574 165.579L432 158.65Z" fill="black"/>
<path d="M434.982 156.236C435.27 159.972 432.077 160.952 430.768 161.061L420.055 161.967C419.634 162.004 419.245 162.202 418.968 162.519C418.692 162.837 418.548 163.249 418.567 163.67L418.75 167.075C418.77 167.303 418.696 167.528 418.552 167.705C418.408 167.881 418.197 167.994 417.972 168.02L417.317 168.094L416.589 169C412.379 167.985 410.635 156.057 418.369 153.662C418.785 153.532 419.171 153.321 419.506 153.041C419.841 152.762 420.113 152.419 420.316 152.033C421.441 149.7 426.052 149.097 428.377 151.706C428.603 151.973 428.887 152.184 429.207 152.323C429.53 152.461 429.876 152.523 430.227 152.503C433.019 152.441 434.834 154.183 434.982 156.236Z" fill="black"/>
<path d="M416.521 169.681C416.492 169.346 416.382 169.027 416.207 168.756C416.028 168.485 415.79 168.274 415.513 168.144C415.239 168.014 414.935 167.971 414.639 168.019C414.343 168.067 414.066 168.203 413.832 168.415L413.795 168.456C412.06 170.141 413.181 175.443 417 174.97L416.521 169.681Z" fill="#FC9D9D"/>
<path d="M436.769 166.291L436.733 166.254C436.452 166.086 436.132 165.998 435.807 166C435.478 166.003 435.161 166.095 434.88 166.267C434.599 166.439 434.37 166.686 434.218 166.98C434.061 167.274 433.989 167.606 434.001 167.94L434.226 173C438.454 172.848 438.863 167.672 436.769 166.291Z" fill="#FC9D9D"/>
<path d="M416.999 170.428C417.005 170.566 416.975 170.703 416.919 170.809C416.865 170.915 416.785 170.981 416.699 170.994C416.616 171.013 416.533 170.983 416.464 170.909C416.394 170.835 416.346 170.722 416.324 170.592L416 167L416.924 167.039L416.999 170.428Z" fill="black"/>
<path d="M434.999 168.431C435.005 168.569 434.978 168.705 434.922 168.811C434.865 168.916 434.788 168.982 434.702 168.994C434.619 169.014 434.536 168.984 434.466 168.91C434.397 168.835 434.348 168.722 434.327 168.592L434 165L434.924 165.039L434.999 168.431Z" fill="black"/>
<path d="M430.789 161.983C430.594 162.006 430.399 162.006 430.208 161.983C430.146 161.973 430.092 161.94 430.055 161.891C430.013 161.842 429.996 161.781 430.001 161.72C430.005 161.659 430.034 161.601 430.079 161.558C430.125 161.515 430.183 161.491 430.245 161.489C430.283 161.489 432.569 161.603 433.536 160.116C433.574 160.06 433.628 160.021 433.694 160.006C433.76 159.991 433.827 160.003 433.885 160.038C433.914 160.056 433.939 160.079 433.955 160.105C433.976 160.132 433.989 160.162 433.997 160.195C434.001 160.226 434.001 160.26 433.997 160.291C433.989 160.324 433.976 160.354 433.96 160.381C433.109 161.64 431.598 161.943 430.789 161.983Z" fill="#FC9D9D"/>
<path d="M422 172C422.197 172 422.391 171.942 422.555 171.832C422.72 171.722 422.848 171.565 422.922 171.383C423 171.2 423.02 170.999 422.979 170.805C422.942 170.611 422.848 170.433 422.708 170.293C422.568 170.153 422.391 170.058 422.193 170.019C422 169.981 421.798 170 421.617 170.076C421.436 170.152 421.28 170.28 421.169 170.444C421.058 170.609 421 170.802 421 171C421 171.132 421.025 171.262 421.074 171.384C421.123 171.505 421.198 171.615 421.292 171.708C421.383 171.801 421.494 171.875 421.617 171.925C421.737 171.975 421.868 172 422 172Z" fill="black"/>
<path d="M422.244 171.431C422.275 171.435 422.305 171.433 422.336 171.424C422.363 171.415 422.39 171.4 422.414 171.379C422.437 171.359 422.456 171.334 422.468 171.306C422.483 171.278 422.487 171.247 422.487 171.217C422.487 171.186 422.483 171.155 422.468 171.127C422.456 171.099 422.437 171.074 422.414 171.053C422.39 171.033 422.363 171.018 422.336 171.009C422.305 171 422.275 170.998 422.244 171.002C422.213 170.998 422.182 171 422.151 171.009C422.124 171.018 422.097 171.033 422.073 171.053C422.05 171.074 422.031 171.099 422.019 171.127C422.004 171.155 422 171.186 422 171.217C422 171.247 422.004 171.278 422.019 171.306C422.031 171.334 422.05 171.359 422.073 171.379C422.097 171.4 422.124 171.415 422.151 171.424C422.182 171.433 422.213 171.435 422.244 171.431Z" fill="white"/>
<path d="M429.996 171C430.193 171.001 430.387 170.943 430.551 170.833C430.72 170.723 430.848 170.568 430.922 170.384C431 170.202 431.02 170 430.979 169.806C430.942 169.612 430.848 169.433 430.708 169.293C430.568 169.153 430.387 169.057 430.193 169.019C430 168.98 429.798 169.001 429.617 169.077C429.432 169.153 429.276 169.282 429.169 169.447C429.058 169.612 429 169.806 429 170.004C429 170.135 429.025 170.264 429.074 170.385C429.128 170.506 429.198 170.616 429.292 170.708C429.383 170.801 429.494 170.874 429.613 170.924C429.737 170.974 429.864 171 429.996 171Z" fill="black"/>
<path d="M429.217 170.434C429.275 170.434 429.329 170.411 429.372 170.37C429.411 170.33 429.434 170.275 429.434 170.217C429.434 170.16 429.411 170.104 429.372 170.064C429.329 170.023 429.275 170 429.217 170C429.159 170 429.105 170.023 429.062 170.064C429.023 170.104 429 170.16 429 170.217C429 170.275 429.023 170.33 429.062 170.37C429.105 170.411 429.159 170.434 429.217 170.434Z" fill="white"/>
<path opacity="0.3" d="M426.053 174.997L426.767 174.935C426.832 174.928 426.892 174.898 426.935 174.85C426.978 174.802 427.003 174.74 427 174.677C426.993 174.614 426.964 174.556 426.914 174.515C426.864 174.473 426.8 174.451 426.735 174.453L426.02 174.515C425.949 174.519 425.881 174.51 425.813 174.488C425.745 174.466 425.685 174.432 425.631 174.387C425.577 174.342 425.534 174.287 425.506 174.227C425.474 174.166 425.456 174.099 425.449 174.031C425.445 173.964 425.456 173.896 425.477 173.831C425.502 173.767 425.538 173.708 425.584 173.657C425.631 173.606 425.688 173.564 425.749 173.534C425.813 173.504 425.881 173.487 425.953 173.482C425.985 173.48 426.017 173.472 426.045 173.458C426.078 173.444 426.103 173.425 426.124 173.401C426.146 173.377 426.163 173.35 426.174 173.319C426.185 173.289 426.188 173.258 426.185 173.226C426.185 173.194 426.174 173.163 426.16 173.135C426.146 173.107 426.128 173.081 426.103 173.06C426.078 173.039 426.049 173.023 426.017 173.013C425.985 173.003 425.953 172.998 425.92 173C425.788 173.01 425.659 173.045 425.538 173.104C425.42 173.162 425.316 173.243 425.231 173.342C425.145 173.441 425.081 173.555 425.041 173.678C425.005 173.8 424.991 173.929 425.005 174.057C425.005 174.187 425.03 174.316 425.084 174.435C425.138 174.554 425.216 174.661 425.313 174.75C425.413 174.838 425.527 174.906 425.656 174.948C425.785 174.991 425.917 175.008 426.053 174.997Z" fill="black"/>
<path d="M432.442 168.003L428.258 168.232L427.702 168.269L424.038 168.498H424.002L419.301 168.768C419.119 168.779 418.94 168.827 418.773 168.91C418.611 168.993 418.464 169.109 418.341 169.251C418.222 169.393 418.13 169.559 418.071 169.738C418.011 169.917 417.991 170.106 418.003 170.295L418.079 171.4C418.15 172.414 418.603 173.357 419.341 174.029C420.084 174.702 421.048 175.048 422.033 174.995C423.013 174.941 423.938 174.492 424.605 173.743C425.272 172.994 425.626 172.006 425.594 170.991L425.518 169.886C425.502 169.575 425.387 169.279 425.185 169.047L426.63 168.969C426.463 169.229 426.384 169.538 426.408 169.849L426.483 170.954C426.511 171.462 426.634 171.96 426.844 172.42C427.059 172.879 427.356 173.291 427.722 173.632C428.091 173.973 428.52 174.235 428.984 174.405C429.449 174.575 429.945 174.648 430.437 174.621C430.929 174.594 431.414 174.467 431.858 174.248C432.303 174.029 432.704 173.721 433.033 173.342C433.367 172.964 433.621 172.522 433.784 172.042C433.95 171.562 434.022 171.053 433.994 170.545L433.923 169.435C433.923 169.239 433.883 169.045 433.808 168.865C433.732 168.685 433.621 168.523 433.482 168.389C433.343 168.255 433.18 168.151 433.002 168.085C432.823 168.018 432.632 167.991 432.442 168.003ZM424.963 169.873L425.038 170.978C425.062 171.408 425.006 171.839 424.867 172.246C424.732 172.653 424.518 173.028 424.24 173.35C423.962 173.672 423.625 173.934 423.252 174.122C422.874 174.31 422.465 174.42 422.049 174.445C421.632 174.47 421.215 174.411 420.818 174.27C420.425 174.129 420.06 173.908 419.75 173.622C419.436 173.336 419.182 172.989 419 172.601C418.817 172.214 418.71 171.793 418.686 171.363L418.615 170.254C418.603 170.028 418.678 169.806 418.821 169.636C418.968 169.466 419.17 169.36 419.389 169.341L424.093 169.071H424.129C424.236 169.065 424.343 169.082 424.442 169.12C424.542 169.157 424.633 169.215 424.712 169.29C424.788 169.365 424.851 169.455 424.895 169.555C424.939 169.656 424.963 169.764 424.963 169.873ZM433.442 170.483C433.49 171.351 433.204 172.205 432.644 172.855C432.085 173.505 431.295 173.899 430.453 173.95C429.611 174.001 428.782 173.705 428.154 173.127C427.523 172.549 427.138 171.736 427.09 170.868L427.015 169.759C427.007 169.53 427.083 169.306 427.233 169.135C427.38 168.963 427.587 168.859 427.809 168.842L428.365 168.805L432.545 168.576C432.767 168.566 432.986 168.647 433.149 168.8C433.315 168.952 433.419 169.166 433.434 169.394L433.442 170.483Z" fill="black"/>
<path d="M414 412V402.963C413.996 401.652 413.467 400.394 412.528 399.465C411.586 398.535 410.311 398.009 408.978 398H408.762C407.657 397.995 406.587 398.367 405.733 399.052C404.879 399.738 404.292 400.695 404.076 401.758C403.821 403.056 403.226 404.266 402.349 405.266L400.908 406.931C399.684 408.344 399.008 410.142 399 412H414Z" fill="#00E2D5"/>
<path d="M405.212 403C405.172 403 405.135 402.991 405.103 402.974C405.066 402.956 405.042 402.931 405.022 402.901C404.985 402.802 404.985 402.704 405.099 402.668C405.987 402.23 406.988 402 408.01 402C409.032 402 410.034 402.23 410.922 402.668C410.995 402.735 411.035 402.834 410.958 402.901C410.881 402.968 410.772 403 410.695 402.933C409.872 402.525 408.939 402.312 407.99 402.312C407.041 402.312 406.108 402.525 405.285 402.933C405.285 403 405.249 403 405.212 403Z" fill="white"/>
<path d="M424.134 177.306L428.814 177C428.841 176.999 428.869 177.004 428.893 177.015C428.92 177.026 428.94 177.042 428.96 177.061C428.976 177.081 428.988 177.104 428.995 177.129C428.999 177.153 429.003 177.179 428.995 177.204C428.853 177.688 428.549 178.119 428.131 178.44C427.708 178.76 427.195 178.953 426.65 178.992C426.109 179.032 425.564 178.917 425.094 178.662C424.624 178.407 424.253 178.025 424.028 177.568V177.535C424.012 177.514 424.004 177.491 424 177.466C424 177.442 424.004 177.416 424.016 177.394C424.024 177.371 424.039 177.351 424.063 177.336C424.083 177.32 424.107 177.31 424.134 177.306Z" fill="white"/>
<path d="M405.211 404C405.171 404.001 405.134 403.992 405.102 403.974C405.069 403.956 405.041 403.931 405.025 403.901C404.984 403.802 404.984 403.703 405.098 403.671C405.986 403.231 406.987 403 408.009 403C409.031 403 410.032 403.231 410.92 403.671C410.997 403.738 411.033 403.837 410.96 403.901C410.944 403.919 410.928 403.933 410.904 403.945C410.883 403.956 410.859 403.964 410.835 403.967C410.81 403.971 410.786 403.97 410.762 403.964C410.737 403.959 410.713 403.949 410.693 403.936C409.87 403.527 408.937 403.313 407.989 403.313C407.044 403.313 406.111 403.527 405.288 403.936C405.288 404 405.256 404 405.211 404Z" fill="white"/>
<path d="M404.208 405C404.172 405 404.131 404.99 404.099 404.973C404.066 404.956 404.038 404.931 404.022 404.901C403.985 404.802 403.985 404.704 404.095 404.668C404.983 404.23 405.986 404 407.008 404C408.031 404 409.033 404.23 409.921 404.668C409.942 404.681 409.958 404.698 409.97 404.716C409.986 404.735 409.994 404.756 409.998 404.777C410.002 404.799 409.998 404.821 409.994 404.842C409.986 404.863 409.978 404.884 409.962 404.901C409.885 404.965 409.771 405 409.698 404.933C408.874 404.526 407.941 404.312 406.992 404.312C406.042 404.312 405.109 404.526 404.286 404.933C404.249 405 404.208 405 404.208 405Z" fill="white"/>
<path d="M399.648 414H413.352C413.525 414 413.688 413.926 413.811 413.798C413.931 413.666 414 413.493 414 413.307V412H399V413.307C399 413.398 399.015 413.489 399.05 413.575C399.081 413.658 399.127 413.736 399.189 413.798C399.251 413.864 399.32 413.913 399.401 413.951C399.478 413.984 399.563 414 399.648 414Z" fill="#3F4249"/>
<path d="M443.683 402.671L444 392H434L434.457 403L443.683 402.671Z" fill="#FC9D9D"/>
<path opacity="0.15" d="M444 395L443.677 403L441.24 402.926L441.313 398.224C441.313 397.856 441.197 397.498 440.974 397.207C440.755 396.916 440.444 396.709 440.094 396.618L434 395.012L444 395Z" fill="black"/>
<path d="M435 411V401.963C435.004 400.652 435.533 399.394 436.472 398.465C437.414 397.535 438.689 397.009 440.022 397H440.238C441.339 396.994 442.413 397.366 443.267 398.052C444.121 398.738 444.704 399.695 444.92 400.758C445.179 402.056 445.774 403.265 446.651 404.266L448.092 405.931C449.316 407.344 449.992 409.142 450 411H435Z" fill="#00E2D5"/>
<path d="M443.787 402C443.828 402 443.864 401.991 443.897 401.974C443.934 401.957 443.958 401.932 443.978 401.902C444.015 401.803 444.015 401.704 443.901 401.668C443.011 401.23 442.006 401 440.981 401C439.957 401 438.952 401.23 438.062 401.668C438.025 401.696 438.005 401.734 438.001 401.776C437.997 401.817 438.009 401.858 438.037 401.891C438.066 401.924 438.106 401.947 438.155 401.954C438.2 401.962 438.249 401.955 438.289 401.933C439.115 401.526 440.05 401.312 440.998 401.312C441.949 401.312 442.884 401.526 443.71 401.933C443.71 402 443.751 402 443.787 402Z" fill="white"/>
<path opacity="0.15" d="M402.386 183H402V303H402.386V183Z" fill="black"/>
<path opacity="0.15" d="M406.386 183H406V303H406.386V183Z" fill="black"/>
<path opacity="0.15" d="M410.386 183H410V303H410.386V183Z" fill="black"/>
<path opacity="0.15" d="M414.386 184H414V304H414.386V184Z" fill="black"/>
<path opacity="0.15" d="M418.386 191H418V304H418.386V191Z" fill="black"/>
<path opacity="0.15" d="M421.386 193H421V304H421.386V193Z" fill="black"/>
<path opacity="0.15" d="M425.386 217H425V304H425.386V217Z" fill="black"/>
<path opacity="0.15" d="M429.386 194H429V303H429.386V194Z" fill="black"/>
<path opacity="0.15" d="M433.386 194H433V304H433.386V194Z" fill="black"/>
<path opacity="0.15" d="M437.386 191H437V304H437.386V191Z" fill="black"/>
<path opacity="0.15" d="M441.386 189H441V304H441.386V189Z" fill="black"/>
<path opacity="0.15" d="M444.386 191H444V304H444.386V191Z" fill="black"/>
<path opacity="0.15" d="M448.386 192H448V304H448.386V192Z" fill="black"/>
<path d="M443.789 404C443.829 404.001 443.866 403.992 443.898 403.974C443.931 403.956 443.959 403.931 443.975 403.901C444.016 403.802 444.016 403.703 443.902 403.671C443.014 403.231 442.013 403 440.991 403C439.969 403 438.968 403.231 438.08 403.671C438.003 403.738 437.967 403.837 438.04 403.901C438.056 403.919 438.072 403.933 438.096 403.945C438.117 403.956 438.141 403.964 438.165 403.967C438.19 403.971 438.214 403.97 438.238 403.964C438.263 403.959 438.287 403.949 438.307 403.936C439.13 403.527 440.063 403.313 441.011 403.313C441.956 403.313 442.889 403.527 443.712 403.936C443.712 404 443.748 404 443.789 404Z" fill="white"/>
<path d="M444.788 405C444.828 405.001 444.865 404.992 444.897 404.974C444.934 404.957 444.962 404.931 444.978 404.901C445.015 404.802 445.015 404.703 444.901 404.668C444.013 404.23 443.011 404 441.988 404C440.966 404 439.964 404.23 439.075 404.668C439.035 404.695 439.01 404.735 439.002 404.778C438.994 404.822 439.01 404.866 439.039 404.901C439.116 404.965 439.229 405 439.302 404.933C440.126 404.526 441.059 404.312 442.008 404.312C442.958 404.312 443.891 404.526 444.715 404.933C444.755 405 444.788 405 444.788 405Z" fill="white"/>
<path d="M449.336 413.999H435.648C435.563 413.999 435.478 413.983 435.401 413.946C435.32 413.913 435.251 413.859 435.189 413.797C435.131 413.731 435.081 413.657 435.05 413.571C435.015 413.488 435 413.398 435 413.307V412H450V413.307C450 413.402 449.985 413.492 449.95 413.575C449.915 413.661 449.869 413.74 449.807 413.806C449.745 413.867 449.672 413.921 449.591 413.954C449.51 413.987 449.421 414.003 449.336 413.999Z" fill="#3F4249"/>
<path d="M403.108 395L403 391H416L415.748 395H403.108Z" fill="#00E2D5"/>
<path d="M416 391L415.748 395H403.108L403 391H416Z" fill="#00E2D5"/>
<path opacity="0.3" d="M415.732 172C415.658 171.997 415.588 171.968 415.534 171.919C415.477 171.87 415.439 171.802 415.427 171.729L415.349 171.108C415.336 170.604 415.143 170.12 414.809 169.745C414.748 169.69 414.673 169.648 414.595 169.622C414.517 169.595 414.435 169.585 414.352 169.591C414.274 169.607 414.196 169.591 414.13 169.547C414.068 169.503 414.023 169.435 414.006 169.358C413.99 169.281 414.006 169.2 414.052 169.135C414.093 169.069 414.159 169.023 414.237 169.008C414.562 168.973 414.888 169.056 415.155 169.241C415.394 169.464 415.588 169.734 415.719 170.035C415.851 170.336 415.921 170.662 415.925 170.991L416 171.612C416.004 171.698 415.979 171.783 415.934 171.853C415.884 171.923 415.814 171.975 415.732 172Z" fill="black"/>
<path opacity="0.3" d="M436.312 170C436.403 169.993 436.488 169.958 436.549 169.902C436.614 169.847 436.644 169.775 436.639 169.702V169.11C436.589 168.876 436.599 168.637 436.675 168.407C436.745 168.178 436.881 167.962 437.062 167.775C437.128 167.707 437.213 167.653 437.314 167.615C437.409 167.577 437.515 167.557 437.626 167.556C437.721 167.561 437.812 167.536 437.883 167.487C437.953 167.439 437.993 167.37 437.998 167.296C438.008 167.222 437.973 167.149 437.913 167.094C437.852 167.039 437.767 167.005 437.671 167C437.475 167.004 437.284 167.038 437.107 167.102C436.931 167.165 436.77 167.256 436.639 167.37C436.171 167.739 435.98 168.331 436.03 169.146V169.742C435.935 169.889 436.076 170 436.312 170Z" fill="black"/>
<path opacity="0.15" d="M455.554 200.865L461.037 224L466 222.841L461.7 203.597C461.266 201.681 460.379 199.892 459.105 198.376C457.834 196.861 456.213 195.661 454.379 194.874L450 193C452.824 194.815 454.817 197.636 455.554 200.865Z" fill="black"/>
<path opacity="0.15" d="M446.154 212.431L446 307H451L450.628 224.796L446.984 212.362C446.976 212.257 446.923 212.16 446.838 212.093C446.753 212.025 446.644 211.992 446.53 212.002C446.421 212.011 446.32 212.061 446.251 212.142C446.178 212.222 446.146 212.326 446.154 212.431Z" fill="black"/>
<path d="M433.208 239.735L428.06 240.859L426.651 241.144C426.182 241.251 425.748 241.285 425.423 240.965L424.881 240.432C424.369 240.027 423.781 239.726 423.149 239.545C421.647 239.111 420.376 238.118 419.61 236.777L418.382 234.644C418.37 234.619 418.351 234.597 418.328 234.58C418.308 234.562 418.281 234.549 418.254 234.543C418.227 234.536 418.196 234.536 418.169 234.541C418.142 234.547 418.115 234.559 418.091 234.576L417.874 234.644C417.448 234.803 417.1 235.115 416.898 235.517C416.697 235.92 416.658 236.383 416.794 236.811L417.731 239.724C417.778 239.875 417.762 240.038 417.689 240.18C417.619 240.321 417.495 240.43 417.344 240.485L404.768 245.565C403.502 246.026 403.936 247.732 405.094 247.446C405.706 247.305 412.433 244.602 412.433 244.602L411.244 245.207C409.908 245.847 410.52 247.621 411.678 247.374C412.836 247.126 414.35 246.734 414.35 246.734L412.867 247.301C412.619 247.423 412.425 247.632 412.328 247.887C412.232 248.143 412.235 248.424 412.344 248.676C412.448 248.928 412.646 249.131 412.898 249.245C413.149 249.359 413.436 249.375 413.699 249.289C414.563 249.076 415.938 248.649 415.938 248.649L415.036 249.076C413.874 249.434 414.261 251.208 415.361 250.98C416.298 250.801 425.109 248.672 429.66 247.854L463.424 244.232C464.296 244.149 465.14 243.884 465.899 243.455C466.658 243.026 467.317 242.443 467.832 241.744C468.343 241.046 468.699 240.248 468.874 239.404C469.052 238.56 469.04 237.689 468.847 236.849L465.741 223L450.504 226.515L453.537 235.273L433.208 239.735Z" fill="#FC9D9D"/>
<path d="M387 205.443L383.267 206.734V211.984L383.119 216L362.002 213.979C355.737 213.979 353.682 205.621 359.208 202.715L375.76 194L387 205.443Z" fill="#FC9D9D"/>
<path opacity="0.15" d="M463.505 244.266L430.159 247.879C425.664 248.691 416.963 250.813 416.037 250.991C415.907 251.009 415.773 250.999 415.647 250.961C415.521 250.923 415.402 250.858 415.303 250.77C415.207 250.683 415.127 250.575 415.073 250.455C415.023 250.334 414.997 250.204 415 250.073C415 250.073 415.249 250.498 415.93 250.285C416.286 250.179 421.637 248.232 425.022 246.957C426.85 246.284 428.736 245.785 430.66 245.469C437.927 244.266 456.872 241.081 461.971 239.95C462.323 239.875 462.659 239.731 462.954 239.525C463.252 239.32 463.505 239.058 463.696 238.754C463.891 238.451 464.017 238.112 464.079 237.759C464.136 237.405 464.124 237.043 464.04 236.694L461.106 224.101L465.849 223L468.879 236.838C469.047 237.679 469.039 238.545 468.86 239.383C468.676 240.222 468.32 241.013 467.819 241.71C467.314 242.407 466.672 242.993 465.93 243.433C465.188 243.872 464.362 244.156 463.505 244.266Z" fill="black"/>
<path opacity="0.2" d="M415.762 395L416 391H412.07L412 395H415.762Z" fill="black"/>
<path d="M433 391L433.256 395H445.926L446 391H433Z" fill="#00E2D5"/>
<path opacity="0.2" d="M440 391V395H445.925L446 391H440Z" fill="black"/>
<path d="M461 224L466 223L461 224Z" fill="#00E2D5"/>
<g opacity="0.15">
<path opacity="0.15" d="M384 201.846L387.983 206L398 203.752L397.271 199.485C397.227 199.229 397.129 198.985 396.984 198.771C396.84 198.557 396.651 198.378 396.431 198.247C396.212 198.115 395.967 198.034 395.714 198.008C395.461 197.983 395.205 198.015 394.966 198.101L384 201.846Z" fill="black"/>
</g>
<path opacity="0.15" d="M388 204.935L384.093 201L377.387 203.198L370.254 202.171C370.146 202.133 370.038 202.24 370 202.346C370.001 202.401 370.019 202.454 370.051 202.498C370.083 202.542 370.129 202.575 370.181 202.593L382.582 207L387.196 205.099L388 204.935Z" fill="black"/>
<path d="M428 241.525L429.479 249L432 248.735L430.521 241L428 241.525Z" fill="#001B34"/>
<path d="M430.5 248C430.993 248 431.478 247.853 431.89 247.579C432.299 247.304 432.622 246.913 432.809 246.457C433 246 433.047 245.497 432.953 245.012C432.856 244.527 432.617 244.082 432.269 243.732C431.92 243.382 431.474 243.144 430.989 243.048C430.504 242.952 429.998 243.001 429.543 243.19C429.088 243.379 428.697 243.7 428.421 244.111C428.149 244.522 428 245.006 428 245.5C428 245.828 428.064 246.154 428.187 246.457C428.315 246.761 428.497 247.037 428.731 247.269C428.965 247.501 429.237 247.685 429.543 247.811C429.845 247.936 430.173 248 430.5 248Z" fill="#00E2D5"/>
<path d="M430.02 247C430.416 246.996 430.8 246.875 431.127 246.653C431.45 246.431 431.704 246.117 431.854 245.751C431.999 245.386 432.04 244.984 431.959 244.597C431.878 244.211 431.688 243.856 431.406 243.579C431.127 243.301 430.771 243.113 430.383 243.037C429.996 242.961 429.596 243.002 429.228 243.154C428.864 243.306 428.553 243.562 428.335 243.891C428.117 244.219 428 244.605 428 245C428 245.264 428.053 245.526 428.154 245.77C428.255 246.014 428.404 246.235 428.594 246.421C428.78 246.607 429.002 246.754 429.248 246.854C429.495 246.953 429.757 247.003 430.02 247Z" fill="white"/>
<path d="M430.929 245L429.836 244.923L429.043 244.204C429.014 244.167 428.981 244.09 429.014 244.053C429.046 244.017 429.105 243.976 429.134 244.017L429.862 244.695L430.893 244.773C430.906 244.77 430.919 244.772 430.929 244.777C430.942 244.782 430.951 244.79 430.961 244.801C430.971 244.812 430.977 244.826 430.981 244.84C430.984 244.855 430.984 244.871 430.984 244.886C431.02 244.935 430.994 245 430.929 245Z" fill="#001B34"/>
<path d="M423 193L423.353 198L424 193.276L423 193Z" fill="#FC9D9D"/>
<path opacity="0.3" d="M424.513 194L427 194.259L425.641 203.627L425.283 217H423L423.346 203.174L424.513 194Z" fill="black"/>
<path opacity="0.3" d="M450.796 307L398 306.247V303L451 304.163L450.796 307Z" fill="black"/>
<path opacity="0.3" d="M450.517 226L466 222.768L465.613 221L450 224.483L450.517 226Z" fill="black"/>
<path opacity="0.3" d="M387.723 206L390 205.494L377.793 193L376 193.875L387.723 206Z" fill="black"/>
<path opacity="0.15" d="M380.162 195L380 194.668L393.01 188.75C393.123 188.688 396.076 187.111 397.977 187L398 187.368C396.181 187.472 393.21 189.06 393.18 189.078L380.162 195Z" fill="black"/>
<path opacity="0.15" d="M398.84 191L383 197.664L383.159 198L399 191.336L398.84 191Z" fill="black"/>
<path opacity="0.15" d="M398.834 195L386 200.659L386.166 201L399 195.341L398.834 195Z" fill="black"/>
<path opacity="0.15" d="M397.839 200L389 204.621L389.16 205L398 200.379L397.839 200Z" fill="black"/>
<path opacity="0.15" d="M456.392 197L456 197.08L461.612 222L462 221.92L456.392 197Z" fill="black"/>
<path opacity="0.15" d="M452.385 194L452 194.086L458.615 223L459 222.914L452.385 194Z" fill="black"/>
<path opacity="0.15" d="M448.384 209L448 209.108L451.616 222L452 221.892L448.384 209Z" fill="black"/>
<path opacity="0.15" d="M449.382 197L449 197.094L455.618 224L456 223.907L449.382 197Z" fill="black"/>
<path d="M267.547 152H368.282C370.346 152 372.39 152.406 374.297 153.193C376.204 153.981 377.937 155.136 379.396 156.592C380.856 158.048 382.014 159.776 382.803 161.678C383.593 163.58 384 165.618 384 167.677V397.323C384 401.481 382.344 405.468 379.396 408.409C376.449 411.346 372.451 413 368.282 413H265.155C262.992 413 260.918 412.144 259.388 410.618C257.859 409.091 257 407.025 257 404.866V162.523C257 159.733 258.111 157.058 260.089 155.085C262.067 153.112 264.75 152.004 267.547 152.004V152Z" fill="#3F4249"/>
<path opacity="0.3" d="M267.547 152H368.282C370.346 152 372.39 152.406 374.297 153.193C376.204 153.981 377.937 155.136 379.396 156.592C380.856 158.048 382.014 159.776 382.803 161.678C383.593 163.58 384 165.618 384 167.677V397.323C384 401.481 382.344 405.468 379.396 408.409C376.449 411.346 372.451 413 368.282 413H267.079C264.406 413 261.842 411.94 259.952 410.055C258.062 408.17 257 405.613 257 402.947V162.523C257 159.733 258.111 157.058 260.089 155.085C262.067 153.112 264.75 152.004 267.547 152.004V152Z" fill="black"/>
<path d="M374 156H255V407H374V156Z" fill="#00E2D5"/>
<path opacity="0.6" d="M374 156H255V407H374V156Z" fill="white"/>
<path d="M371 157H256V186H371V157Z" fill="#00E2D5"/>
<path d="M371 389H256V409H371V389Z" fill="#00E2D5"/>
<path d="M362.258 405.634H264.722C259.81 405.634 255.832 401.848 255.832 397.176V167.492C255.832 162.824 259.817 159.039 264.722 159.039H282.278C283.305 159.023 284.311 159.331 285.152 159.919C285.994 160.507 286.629 161.343 286.966 162.311L287.766 164.748C288.103 165.715 288.737 166.552 289.578 167.14C290.419 167.728 291.424 168.037 292.451 168.024H334.549C335.576 168.038 336.581 167.73 337.422 167.142C338.262 166.555 338.897 165.719 339.234 164.751L340.038 162.311C340.375 161.344 341.009 160.507 341.85 159.92C342.691 159.332 343.696 159.024 344.722 159.039H362.278C367.194 159.039 371.168 162.824 371.168 167.492V397.176C371.148 401.848 367.183 405.634 362.258 405.634ZM250 163.977V401.016C250 404.193 251.265 407.241 253.518 409.488C255.771 411.736 258.826 413 262.013 413H364.987C366.565 413 368.127 412.692 369.585 412.09C371.043 411.489 372.367 410.606 373.483 409.492C374.598 408.378 375.483 407.06 376.087 405.605C376.69 404.151 377 402.593 377 401.02V163.981C377 160.803 375.735 157.756 373.482 155.509C371.229 153.262 368.173 152 364.987 152H262.001C258.818 152.003 255.766 153.266 253.516 155.512C251.265 157.757 250.001 160.802 250 163.977Z" fill="#3F4249"/>
<path d="M360.814 177.386H353.186C353.136 177.386 353.089 177.366 353.054 177.329C353.02 177.293 353 177.244 353 177.193C353 177.142 353.02 177.093 353.054 177.056C353.089 177.02 353.136 177 353.186 177H360.814C360.864 177 360.911 177.02 360.945 177.056C360.98 177.093 361 177.142 361 177.193C361 177.244 360.98 177.293 360.945 177.329C360.911 177.366 360.864 177.386 360.814 177.386Z" fill="white"/>
<path d="M360.814 179.382H353.182C353.134 179.382 353.088 179.362 353.054 179.327C353.019 179.291 353 179.243 353 179.193C353 179.143 353.019 179.094 353.053 179.058C353.087 179.022 353.134 179.001 353.182 179H360.814C360.863 179 360.911 179.02 360.946 179.056C360.98 179.093 361 179.142 361 179.193C361 179.244 360.98 179.293 360.946 179.329C360.911 179.366 360.863 179.386 360.814 179.386V179.382Z" fill="white"/>
<path d="M360.814 182.386H353.186C353.136 182.386 353.089 182.366 353.054 182.33C353.02 182.294 353 182.244 353 182.193C353 182.142 353.02 182.093 353.054 182.057C353.089 182.02 353.136 182 353.186 182H360.814C360.864 182 360.911 182.02 360.945 182.057C360.98 182.093 361 182.142 361 182.193C361 182.244 360.98 182.294 360.945 182.33C360.911 182.366 360.864 182.386 360.814 182.386Z" fill="white"/>
<path d="M269.199 175.117L266.149 177.8C266.102 177.843 266.064 177.895 266.039 177.953C266.013 178.011 266 178.074 266 178.137V182.698C266 182.738 266.007 182.777 266.022 182.813C266.036 182.85 266.058 182.882 266.085 182.91C266.113 182.938 266.145 182.96 266.182 182.975C266.217 182.989 266.256 182.997 266.295 182.996H268.118C268.158 182.997 268.196 182.989 268.232 182.975C268.269 182.96 268.302 182.938 268.33 182.91C268.357 182.883 268.379 182.85 268.394 182.813C268.41 182.777 268.417 182.738 268.417 182.698V180.317C268.418 180.238 268.45 180.163 268.505 180.107C268.56 180.052 268.634 180.02 268.712 180.019H270.284C270.363 180.019 270.438 180.05 270.494 180.106C270.55 180.162 270.582 180.238 270.583 180.317V182.698C270.582 182.738 270.589 182.777 270.604 182.814C270.619 182.85 270.641 182.884 270.668 182.911C270.695 182.94 270.728 182.962 270.764 182.977C270.8 182.992 270.839 183 270.878 183H272.701C272.781 183 272.857 182.968 272.913 182.912C272.969 182.855 273 182.779 273 182.698V178.137C273.001 178.074 272.987 178.01 272.961 177.952C272.934 177.893 272.895 177.842 272.847 177.8L269.801 175.117C269.719 175.042 269.611 175 269.5 175C269.389 175 269.282 175.042 269.199 175.117Z" stroke="white" stroke-miterlimit="10"/>
<path d="M278.817 395.448H271.182C271.13 395.435 271.084 395.406 271.051 395.365C271.018 395.325 271 395.275 271 395.224C271 395.173 271.018 395.123 271.051 395.083C271.084 395.042 271.13 395.013 271.182 395H278.817C278.869 395.013 278.916 395.042 278.949 395.083C278.982 395.123 279 395.173 279 395.224C279 395.275 278.982 395.325 278.949 395.365C278.916 395.406 278.869 395.435 278.817 395.448Z" fill="white"/>
<path d="M278.818 397.444H271.185C271.13 397.437 271.08 397.411 271.046 397.369C271.011 397.328 270.995 397.276 271.001 397.224C270.995 397.171 271.011 397.119 271.045 397.077C271.08 397.035 271.13 397.008 271.185 397H278.818C278.87 397.013 278.916 397.042 278.949 397.083C278.982 397.123 279 397.173 279 397.224C279 397.275 278.982 397.325 278.949 397.365C278.916 397.406 278.87 397.435 278.818 397.448V397.444Z" fill="white"/>
<path d="M278.815 400.444H271.187C271.134 400.433 271.087 400.404 271.052 400.364C271.018 400.324 271 400.274 271 400.222C271 400.171 271.018 400.12 271.052 400.08C271.087 400.04 271.134 400.012 271.187 400H278.815C278.87 400.008 278.92 400.035 278.955 400.077C278.989 400.119 279.005 400.171 278.999 400.224C279.005 400.276 278.989 400.328 278.954 400.37C278.92 400.411 278.87 400.438 278.815 400.444Z" fill="white"/>
<path d="M352 395L356 397.684L352 401" stroke="white" stroke-miterlimit="10" stroke-linecap="round"/>
<path d="M316 396V401H310V396" stroke="white" stroke-miterlimit="10" stroke-linecap="round"/>
<path d="M309 397L313 394L317 397" stroke="white" stroke-miterlimit="10" stroke-linecap="round"/>
<path d="M350 163.743L349.778 163.906L349.65 164C349.368 163.791 349.032 163.625 348.663 163.512C348.293 163.399 347.897 163.34 347.496 163.34C347.096 163.34 346.7 163.399 346.33 163.512C345.96 163.625 345.625 163.791 345.342 164L345.222 163.909L345 163.745L345.28 163.563C345.482 163.442 345.702 163.338 345.936 163.255C346.21 163.155 346.502 163.083 346.803 163.04C346.945 163.021 347.09 163.011 347.236 163C347.283 163 347.6 163 347.6 163L347.895 163.016C348.166 163.038 348.433 163.085 348.689 163.155C348.875 163.207 349.055 163.269 349.228 163.34C349.409 163.418 349.58 163.508 349.738 163.609C349.822 163.66 349.898 163.713 349.975 163.764L350 163.743Z" fill="white"/>
<path d="M345.405 165C345.271 164.895 345.142 164.793 345 164.671C345.531 164.241 346.25 164 347 164C347.75 164 348.469 164.241 349 164.671L348.595 165C348.169 164.654 347.592 164.46 346.99 164.46C346.388 164.46 345.811 164.654 345.385 165H345.405Z" fill="white"/>
<path d="M348 165.564L347.671 166C347.583 165.883 347.478 165.789 347.363 165.726C347.248 165.662 347.125 165.629 347 165.629C346.875 165.629 346.752 165.662 346.637 165.726C346.522 165.789 346.417 165.883 346.329 166L346 165.564C346.129 165.386 346.285 165.244 346.456 165.147C346.628 165.05 346.813 165 347 165C347.187 165 347.371 165.05 347.543 165.147C347.715 165.244 347.871 165.386 348 165.564Z" fill="white"/>
<path d="M348 166.5C348 166.599 347.97 166.697 347.915 166.779C347.86 166.861 347.781 166.926 347.689 166.963C347.597 167.001 347.495 167.01 347.398 166.99C347.301 166.969 347.212 166.92 347.143 166.849C347.073 166.778 347.026 166.688 347.008 166.59C346.99 166.493 347.002 166.392 347.041 166.301C347.081 166.21 347.147 166.132 347.231 166.079C347.314 166.025 347.412 165.998 347.511 166C347.576 166.001 347.64 166.014 347.7 166.04C347.76 166.065 347.814 166.102 347.859 166.149C347.905 166.196 347.94 166.25 347.965 166.311C347.989 166.371 348.001 166.435 348 166.5Z" fill="white"/>
<path d="M265 165C265 164.802 265.058 164.609 265.168 164.444C265.278 164.28 265.434 164.152 265.617 164.076C265.8 164 266.001 163.981 266.195 164.019C266.389 164.058 266.567 164.153 266.707 164.293C266.847 164.433 266.942 164.611 266.981 164.805C267.019 164.999 267 165.2 266.924 165.383C266.848 165.565 266.72 165.721 266.555 165.831C266.391 165.941 266.198 166 266 166C265.735 166 265.48 165.894 265.293 165.707C265.105 165.519 265 165.265 265 165Z" fill="white"/>
<path d="M268 165C268 164.802 268.059 164.609 268.168 164.444C268.278 164.28 268.435 164.152 268.617 164.076C268.8 164 269.001 163.981 269.195 164.019C269.389 164.058 269.567 164.153 269.707 164.293C269.847 164.433 269.942 164.611 269.981 164.805C270.019 164.999 270 165.2 269.924 165.383C269.848 165.565 269.72 165.721 269.556 165.831C269.391 165.941 269.198 166 269 166C268.735 166 268.48 165.894 268.293 165.707C268.106 165.519 268 165.265 268 165Z" fill="white"/>
<path d="M271 165C271 164.802 271.059 164.609 271.168 164.444C271.278 164.28 271.435 164.152 271.617 164.076C271.8 164 272.001 163.981 272.195 164.019C272.389 164.058 272.567 164.153 272.707 164.293C272.847 164.433 272.942 164.611 272.981 164.805C273.019 164.999 273 165.2 272.924 165.383C272.848 165.565 272.72 165.721 272.556 165.831C272.391 165.941 272.198 166 272 166C271.735 166 271.48 165.894 271.293 165.707C271.106 165.519 271 165.265 271 165Z" fill="white"/>
<path d="M274 165C274 164.802 274.059 164.609 274.168 164.444C274.278 164.28 274.435 164.152 274.617 164.076C274.8 164 275.001 163.981 275.195 164.019C275.389 164.058 275.567 164.153 275.707 164.293C275.847 164.433 275.942 164.611 275.981 164.805C276.019 164.999 276 165.2 275.924 165.383C275.848 165.565 275.72 165.721 275.556 165.831C275.391 165.941 275.198 166 275 166C274.735 166 274.48 165.894 274.293 165.707C274.106 165.519 274 165.265 274 165Z" fill="white"/>
<path d="M365 167H359V164H365V167ZM359.302 166.674H364.698V164.318H359.302V166.674Z" fill="white"/>
<path d="M363 164H359V166H363V164Z" fill="white"/>
<path d="M366 164H365V166H366V164Z" fill="white"/>
<path d="M334.751 178H293.249C292.559 178 292 178.63 292 179.407V179.593C292 180.37 292.559 181 293.249 181H334.751C335.441 181 336 180.37 336 179.593V179.407C336 178.63 335.441 178 334.751 178Z" fill="white"/>
<path d="M314 281C332.778 281 348 265.777 348 247C348 228.222 332.778 213 314 213C295.222 213 280 228.222 280 247C280 265.777 295.222 281 314 281Z" fill="white"/>
<path d="M342 266.61L324.378 261.131H324.34V261.154L323.224 260.652L321.754 260.984L312.47 261.237L308.369 260.395L307.215 260V260.032L292.594 264.325C292.21 264.432 291.848 264.519 291.471 264.602C289.882 264.994 288.37 265.662 287 266.578C290.147 271.042 294.278 274.675 299.055 277.182C303.832 279.689 309.119 280.998 314.483 281C319.848 281.003 325.136 279.7 329.915 277.198C334.695 274.696 338.83 271.066 341.981 266.606L342 266.61ZM324.34 261.17C324.34 261.17 324.34 261.222 324.34 261.257V261.17Z" fill="#00E2D5"/>
<path d="M306.667 245.16L306.773 260.248C306.773 260.607 304 261.396 304 261.396C307.793 270.584 322.586 269.436 326 262.545L323.576 261.706L320.921 244L306.667 245.16Z" fill="#FC9D9D"/>
<path d="M322.635 237.663C322.635 237.663 325.542 257.182 314.948 257.978C304.6 258.75 304.281 239.031 304.281 239.031L304 233.376L317.323 231L320.689 232.765L322.635 237.663Z" fill="#FC9D9D"/>
<path opacity="0.15" d="M323 256.693L322.245 251C321.294 254.689 319.323 257.726 315.873 258.337H315.907L315.152 258.452C312.408 258.681 310.12 257.304 308.395 254.353C308.358 254.312 308.308 254.285 308.255 254.279C308.202 254.273 308.148 254.287 308.103 254.319C308.059 254.351 308.026 254.399 308.01 254.455C307.994 254.51 307.997 254.57 308.018 254.623C309.845 257.755 312.276 259.206 315.19 258.976C315.8 258.933 316.402 258.804 316.983 258.595C319.139 258.83 321.296 258.149 323 256.693Z" fill="black"/>
<path d="M320 233.648C320 233.648 323.124 231.411 324.605 235.248C325.853 238.483 323.748 242 323.748 242L321.943 241.787C321.185 241.749 320.659 241.36 320.592 240.579L320 233.648Z" fill="black"/>
<path d="M322.982 231.24C323.27 234.972 320.075 235.952 318.765 236.061L308.044 236.967C307.624 237.006 307.235 237.205 306.958 237.523C306.681 237.841 306.537 238.253 306.556 238.673L306.739 242.079C306.756 242.306 306.685 242.531 306.54 242.707C306.394 242.882 306.186 242.995 305.959 243.02L305.305 243.094L304.592 244C300.379 242.985 298.633 231.057 306.373 228.666C306.785 228.533 307.168 228.321 307.498 228.041C307.829 227.76 308.101 227.418 308.298 227.033C309.428 224.7 314.042 224.097 316.365 226.706C316.59 226.974 316.875 227.186 317.197 227.325C317.519 227.464 317.869 227.526 318.22 227.507C321.018 227.433 322.834 229.175 322.982 231.24Z" fill="black"/>
<path d="M305.521 243.678C305.492 243.344 305.382 243.024 305.204 242.754C305.027 242.484 304.787 242.273 304.511 242.143C304.236 242.014 303.934 241.971 303.638 242.019C303.343 242.067 303.064 242.204 302.832 242.416L302.795 242.453C301.06 244.139 302.181 249.443 306 248.97L305.521 243.678Z" fill="#FC9D9D"/>
<path d="M325.77 241.292L325.734 241.251C325.452 241.084 325.131 240.997 324.805 241C324.479 241.003 324.159 241.096 323.881 241.269C323.601 241.441 323.373 241.687 323.218 241.981C323.063 242.275 322.989 242.606 323.001 242.94L323.226 248C327.451 247.844 327.865 242.669 325.77 241.292Z" fill="#FC9D9D"/>
<path d="M306 244.429C306.004 244.567 305.975 244.703 305.92 244.808C305.864 244.914 305.785 244.981 305.699 244.995C305.617 245.013 305.533 244.982 305.464 244.907C305.395 244.832 305.345 244.718 305.324 244.589L305 241L305.924 241.043L306 244.429Z" fill="black"/>
<path d="M322.999 243.428C323.006 243.567 322.978 243.705 322.922 243.811C322.865 243.917 322.785 243.983 322.699 243.994C322.617 244.014 322.534 243.983 322.465 243.909C322.396 243.834 322.347 243.721 322.327 243.592L322 240L322.924 240.039L322.999 243.428Z" fill="black"/>
<path d="M318.831 235.982C318.64 236.006 318.447 236.006 318.257 235.982C318.222 235.983 318.187 235.976 318.155 235.963C318.123 235.95 318.094 235.93 318.069 235.905C318.045 235.879 318.026 235.85 318.015 235.817C318.003 235.784 317.998 235.749 318.001 235.714C318.003 235.679 318.013 235.645 318.03 235.615C318.046 235.584 318.069 235.557 318.097 235.535C318.124 235.514 318.156 235.499 318.19 235.49C318.224 235.482 318.26 235.481 318.294 235.487C318.331 235.487 320.584 235.602 321.542 234.114C321.559 234.087 321.582 234.063 321.608 234.044C321.635 234.026 321.665 234.012 321.696 234.006C321.728 233.999 321.761 233.998 321.793 234.004C321.825 234.01 321.855 234.023 321.882 234.041C321.91 234.058 321.935 234.08 321.954 234.107C321.973 234.134 321.987 234.164 321.994 234.196C322.001 234.228 322.002 234.261 321.996 234.293C321.991 234.325 321.978 234.357 321.96 234.384C321.121 235.659 319.63 235.945 318.831 235.982Z" fill="#FC9D9D"/>
<path d="M311.004 247C311.202 246.999 311.395 246.94 311.559 246.83C311.723 246.719 311.85 246.563 311.925 246.38C312 246.197 312.019 245.996 311.98 245.802C311.941 245.609 311.846 245.431 311.706 245.292C311.566 245.152 311.388 245.057 311.194 245.019C311 244.981 310.799 245.001 310.617 245.076C310.434 245.152 310.278 245.281 310.168 245.445C310.059 245.609 310 245.802 310 246C310 246.132 310.026 246.262 310.076 246.384C310.127 246.505 310.201 246.616 310.295 246.709C310.388 246.802 310.498 246.875 310.62 246.925C310.742 246.975 310.873 247.001 311.004 247Z" fill="black"/>
<path d="M310.217 245.434C310.274 245.434 310.33 245.411 310.37 245.37C310.411 245.33 310.434 245.275 310.434 245.217C310.434 245.16 310.411 245.104 310.37 245.064C310.33 245.023 310.274 245 310.217 245C310.159 245 310.104 245.023 310.064 245.064C310.023 245.104 310 245.16 310 245.217C310 245.275 310.023 245.33 310.064 245.37C310.104 245.411 310.159 245.434 310.217 245.434Z" fill="white"/>
<path d="M317.996 246C318.194 246.001 318.388 245.943 318.553 245.833C318.718 245.724 318.846 245.568 318.923 245.386C318.999 245.203 319.019 245.002 318.981 244.807C318.943 244.613 318.848 244.435 318.709 244.294C318.569 244.154 318.39 244.058 318.197 244.02C318.002 243.981 317.801 244 317.618 244.076C317.435 244.151 317.279 244.279 317.169 244.444C317.059 244.609 317 244.802 317 245C317 245.265 317.105 245.518 317.291 245.706C317.478 245.893 317.731 245.999 317.996 246Z" fill="black"/>
<path d="M317.217 245.434C317.26 245.434 317.302 245.421 317.337 245.397C317.373 245.374 317.401 245.339 317.417 245.3C317.434 245.26 317.438 245.217 317.43 245.175C317.422 245.133 317.401 245.094 317.37 245.064C317.34 245.033 317.301 245.012 317.259 245.004C317.217 244.996 317.174 245 317.134 245.016C317.094 245.033 317.06 245.061 317.036 245.096C317.013 245.132 317 245.174 317 245.217C317 245.274 317.023 245.33 317.064 245.37C317.104 245.411 317.16 245.434 317.217 245.434Z" fill="white"/>
<path opacity="0.3" d="M315.06 249.996L315.768 249.93C315.834 249.926 315.895 249.897 315.938 249.849C315.982 249.801 316.004 249.738 315.999 249.674C315.995 249.61 315.965 249.551 315.916 249.508C315.866 249.466 315.802 249.445 315.736 249.449L315.028 249.514C314.959 249.518 314.889 249.509 314.823 249.487C314.757 249.465 314.696 249.431 314.643 249.386C314.591 249.341 314.548 249.287 314.517 249.226C314.487 249.165 314.469 249.099 314.464 249.031C314.46 248.963 314.469 248.895 314.492 248.831C314.514 248.767 314.55 248.707 314.596 248.656C314.642 248.605 314.698 248.564 314.76 248.534C314.823 248.504 314.891 248.486 314.961 248.482C314.994 248.48 315.025 248.472 315.055 248.458C315.084 248.444 315.11 248.424 315.132 248.401C315.153 248.377 315.169 248.349 315.18 248.319C315.191 248.289 315.195 248.257 315.193 248.226C315.191 248.194 315.182 248.163 315.168 248.135C315.154 248.106 315.134 248.081 315.109 248.06C315.085 248.039 315.056 248.023 315.025 248.013C314.994 248.003 314.962 247.998 314.929 248.001C314.796 248.007 314.666 248.04 314.546 248.098C314.426 248.155 314.32 248.236 314.233 248.335C314.147 248.434 314.082 248.549 314.043 248.673C314.004 248.797 313.991 248.928 314.006 249.057C314.005 249.188 314.032 249.317 314.086 249.437C314.14 249.558 314.219 249.666 314.318 249.754C314.418 249.843 314.535 249.91 314.663 249.951C314.791 249.993 314.926 250.008 315.06 249.996Z" fill="black"/>
<path d="M321.442 243.003L317.258 243.232L316.702 243.269L313.038 243.498H313.002L308.302 243.764C308.119 243.775 307.94 243.824 307.776 243.906C307.611 243.989 307.463 244.105 307.343 244.247C307.222 244.389 307.13 244.555 307.072 244.734C307.013 244.913 306.99 245.102 307.004 245.291L307.079 246.4C307.15 247.414 307.604 248.357 308.343 249.029C309.082 249.702 310.048 250.048 311.032 249.995C312.015 249.941 312.94 249.492 313.606 248.743C314.272 247.994 314.627 247.006 314.594 245.991L314.519 244.886C314.501 244.582 314.383 244.294 314.185 244.067L315.63 243.989C315.464 244.248 315.386 244.556 315.408 244.865L315.484 245.975C315.51 246.483 315.633 246.981 315.846 247.441C316.058 247.9 316.357 248.312 316.724 248.653C317.091 248.993 317.52 249.255 317.985 249.425C318.451 249.595 318.945 249.669 319.438 249.642C319.931 249.615 320.414 249.488 320.86 249.269C321.306 249.049 321.705 248.741 322.035 248.363C322.365 247.985 322.62 247.543 322.785 247.062C322.949 246.582 323.021 246.074 322.995 245.565L322.923 244.46C322.927 244.262 322.891 244.065 322.817 243.881C322.743 243.699 322.633 243.533 322.493 243.396C322.354 243.259 322.189 243.153 322.008 243.086C321.827 243.018 321.635 242.99 321.442 243.003ZM313.963 244.874L314.039 245.979C314.063 246.408 314.005 246.839 313.867 247.246C313.73 247.653 313.517 248.028 313.239 248.35C312.961 248.671 312.625 248.933 312.248 249.121C311.872 249.309 311.464 249.418 311.047 249.443C310.63 249.468 310.212 249.408 309.818 249.267C309.423 249.125 309.059 248.905 308.747 248.619C308.435 248.332 308.181 247.985 307.999 247.598C307.817 247.21 307.711 246.789 307.687 246.359L307.611 245.254C307.602 245.025 307.68 244.801 307.828 244.63C307.976 244.459 308.183 244.354 308.405 244.337L313.106 244.071H313.145C313.25 244.068 313.355 244.086 313.453 244.125C313.551 244.163 313.641 244.222 313.717 244.296C313.793 244.371 313.854 244.461 313.896 244.56C313.938 244.659 313.961 244.765 313.963 244.874ZM322.447 245.483C322.496 246.352 322.208 247.204 321.647 247.854C321.086 248.504 320.298 248.898 319.456 248.948C318.613 248.998 317.786 248.702 317.156 248.123C316.526 247.545 316.144 246.733 316.095 245.864L316.02 244.759C316.011 244.53 316.089 244.306 316.237 244.135C316.385 243.964 316.592 243.859 316.814 243.842L317.369 243.805L321.55 243.576C321.769 243.565 321.984 243.643 322.15 243.791C322.315 243.94 322.419 244.149 322.439 244.374L322.447 245.483Z" fill="black"/>
<path d="M312.135 251.306L316.814 251C316.842 250.999 316.869 251.004 316.894 251.015C316.919 251.026 316.941 251.041 316.959 251.061C316.976 251.081 316.989 251.104 316.995 251.129C317.002 251.153 317.002 251.179 316.996 251.204C316.85 251.688 316.547 252.12 316.127 252.44C315.708 252.76 315.191 252.952 314.648 252.992C314.105 253.032 313.562 252.917 313.093 252.662C312.624 252.407 312.251 252.025 312.024 251.568V251.532C312.011 251.511 312.002 251.487 312 251.463C311.999 251.438 312.003 251.414 312.015 251.392C312.026 251.37 312.042 251.35 312.063 251.335C312.084 251.32 312.109 251.31 312.135 251.306Z" fill="white"/>
<path opacity="0.3" d="M304.732 247C304.658 246.996 304.588 246.968 304.533 246.918C304.477 246.869 304.44 246.803 304.427 246.729L304.349 246.104C304.335 245.601 304.144 245.119 303.809 244.746C303.747 244.69 303.674 244.647 303.595 244.62C303.515 244.594 303.431 244.584 303.348 244.592C303.272 244.606 303.194 244.589 303.13 244.545C303.067 244.502 303.022 244.435 303.006 244.359C302.99 244.282 303.005 244.202 303.048 244.136C303.09 244.071 303.157 244.025 303.233 244.009C303.558 243.971 303.886 244.054 304.155 244.242C304.396 244.463 304.588 244.733 304.721 245.033C304.853 245.334 304.923 245.659 304.926 245.988L305 246.613C305.003 246.698 304.978 246.782 304.93 246.852C304.882 246.922 304.812 246.973 304.732 247Z" fill="black"/>
<path opacity="0.3" d="M324.312 245C324.405 244.992 324.49 244.957 324.55 244.902C324.611 244.847 324.643 244.775 324.64 244.702V244.111C324.587 243.878 324.598 243.638 324.671 243.409C324.743 243.179 324.877 242.964 325.063 242.778C325.13 242.71 325.215 242.654 325.313 242.616C325.411 242.577 325.518 242.557 325.627 242.556C325.717 242.552 325.803 242.525 325.871 242.478C325.939 242.431 325.984 242.367 326 242.298C325.996 242.226 325.961 242.158 325.902 242.104C325.843 242.05 325.762 242.013 325.673 242C325.478 242.004 325.286 242.038 325.109 242.102C324.931 242.165 324.772 242.256 324.64 242.369C324.171 242.742 323.98 243.333 324.03 244.147V244.738C323.935 244.889 324.076 245 324.312 245Z" fill="black"/>
<path opacity="0.3" d="M316.913 268.361L316 273.752V281H317.767V273.869L319 268L316.913 268.361Z" fill="black"/>
<path d="M317 268L315.842 274L315 268.391L317 268Z" fill="#FC9D9D"/>
<path opacity="0.15" d="M289.386 265H289V270H289.386V265Z" fill="black"/>
<path opacity="0.15" d="M292.386 265H292V273H292.386V265Z" fill="black"/>
<path opacity="0.15" d="M295.386 264H295V275H295.386V264Z" fill="black"/>
<path opacity="0.15" d="M298.386 263H298V277H298.386V263Z" fill="black"/>
<path opacity="0.15" d="M301.386 262H301V278H301.386V262Z" fill="black"/>
<path opacity="0.15" d="M305.386 263H305V280H305.386V263Z" fill="black"/>
<path opacity="0.15" d="M308.386 266H308V281H308.386V266Z" fill="black"/>
<path opacity="0.15" d="M311.386 267H311V280H311.386V267Z" fill="black"/>
<path opacity="0.15" d="M314.386 268H314V281H314.386V268Z" fill="black"/>
<path opacity="0.15" d="M320.386 267H320V280H320.386V267Z" fill="black"/>
<path opacity="0.15" d="M323.386 266H323V279H323.386V266Z" fill="black"/>
<path opacity="0.15" d="M326.386 263H326V278H326.386V263Z" fill="black"/>
<path opacity="0.15" d="M329.386 263H329V277H329.386V263Z" fill="black"/>
<path opacity="0.15" d="M332.386 264H332V275H332.386V264Z" fill="black"/>
<path opacity="0.15" d="M335.386 265H335V273H335.386V265Z" fill="black"/>
<path opacity="0.15" d="M338.386 266H338V271H338.386V266Z" fill="black"/>
<path d="M314.5 285C307.083 285 299.833 282.801 293.666 278.68C287.499 274.559 282.693 268.703 279.855 261.851C277.016 254.998 276.273 247.458 277.721 240.184C279.168 232.91 282.739 226.228 287.984 220.983C293.228 215.739 299.91 212.167 307.184 210.721C314.459 209.274 321.998 210.016 328.851 212.854C335.703 215.693 341.559 220.499 345.68 226.666C349.801 232.833 352 240.083 352 247.5C351.989 257.442 348.034 266.974 341.004 274.004C333.974 281.034 324.442 284.988 314.5 285ZM314.5 210.84C307.249 210.84 300.161 212.989 294.132 217.017C288.103 221.045 283.404 226.77 280.628 233.468C277.853 240.167 277.126 247.538 278.541 254.65C279.955 261.761 283.446 268.293 288.573 273.421C293.699 278.548 300.232 282.04 307.343 283.455C314.454 284.869 321.825 284.144 328.524 281.369C335.223 278.595 340.949 273.896 344.977 267.867C349.006 261.839 351.156 254.751 351.156 247.5C351.145 237.781 347.279 228.464 340.407 221.591C333.535 214.719 324.219 210.853 314.5 210.84ZM314.5 282.053C307.666 282.053 300.986 280.026 295.303 276.229C289.621 272.433 285.192 267.036 282.578 260.723C279.962 254.409 279.278 247.462 280.611 240.759C281.944 234.057 285.235 227.9 290.067 223.067C294.9 218.235 301.056 214.944 307.759 213.611C314.462 212.278 321.409 212.962 327.723 215.577C334.037 218.193 339.433 222.621 343.23 228.304C347.026 233.986 349.053 240.666 349.053 247.5C349.042 256.66 345.398 265.443 338.92 271.92C332.443 278.397 323.661 282.041 314.5 282.053ZM314.5 213.791C307.836 213.791 301.322 215.768 295.781 219.47C290.24 223.172 285.922 228.434 283.372 234.591C280.822 240.747 280.154 247.522 281.454 254.057C282.755 260.594 285.964 266.597 290.676 271.309C295.388 276.021 301.391 279.23 307.927 280.53C314.463 281.83 321.237 281.163 327.394 278.613C333.551 276.062 338.812 271.744 342.515 266.203C346.217 260.662 348.193 254.148 348.193 247.485C348.182 238.551 344.629 229.987 338.312 223.669C331.997 217.352 323.433 213.797 314.5 213.784V213.791Z" fill="#00E2D5"/>
<path d="M354.231 304H273.769C273.568 303.99 273.378 303.9 273.236 303.748C273.093 303.596 273.01 303.392 273 303.176V297.824C273.01 297.609 273.093 297.405 273.236 297.252C273.378 297.1 273.568 297.01 273.769 297H354.231C354.432 297.01 354.622 297.1 354.764 297.252C354.907 297.405 354.991 297.609 355 297.824V303.176C355 303.395 354.919 303.604 354.775 303.759C354.63 303.914 354.435 304 354.231 304Z" fill="white"/>
<path d="M354.231 317H273.769C273.568 316.99 273.378 316.9 273.236 316.748C273.093 316.596 273.01 316.392 273 316.176V310.824C273.01 310.609 273.093 310.405 273.236 310.252C273.378 310.1 273.568 310.01 273.769 310H354.231C354.432 310.01 354.622 310.1 354.764 310.252C354.907 310.405 354.991 310.609 355 310.824V316.176C355 316.395 354.919 316.604 354.775 316.759C354.63 316.914 354.435 317 354.231 317Z" fill="white"/>
<path d="M334.646 339H293.354C292.73 338.999 292.132 338.739 291.691 338.276C291.25 337.813 291.001 337.186 291 336.532V329.468C291 328.814 291.248 328.186 291.689 327.723C292.131 327.26 292.73 327 293.354 327H334.646C335.27 327 335.869 327.26 336.31 327.723C336.752 328.186 337 328.814 337 329.468V336.532C337.003 336.857 336.945 337.18 336.828 337.481C336.711 337.782 336.538 338.055 336.318 338.285C336.099 338.515 335.838 338.697 335.551 338.82C335.264 338.942 334.956 339.004 334.646 339Z" fill="#00E2D5"/>
<path d="M292.502 367C290.513 367 288.605 366.21 287.199 364.804C285.792 363.398 285.001 361.491 285 359.502C285 357.512 285.79 355.604 287.197 354.197C288.604 352.79 290.512 352 292.502 352C294.491 352.001 296.398 352.792 297.804 354.198C299.21 355.605 300 357.513 300 359.502C300 361.49 299.21 363.398 297.804 364.804C296.398 366.21 294.491 367 292.502 367Z" fill="white"/>
<path d="M290.906 364H292.651V359.46H293.867L294 357.922H292.651V357.057C292.651 356.699 292.721 356.557 293.054 356.557H294V355H292.791C291.494 355 290.906 355.596 290.906 356.734V357.945H290V359.483H290.906V364Z" fill="#00E2D5"/>
<path d="M315.498 367C313.509 367 311.602 366.21 310.196 364.804C308.79 363.398 308 361.49 308 359.502C308 357.513 308.79 355.605 310.196 354.198C311.602 352.792 313.509 352.001 315.498 352C317.487 352 319.396 352.79 320.803 354.197C322.21 355.604 323 357.512 323 359.502C322.999 361.491 322.208 363.398 320.801 364.804C319.394 366.21 317.487 367 315.498 367Z" fill="white"/>
<path d="M314.986 356.718C316.053 356.718 316.189 356.718 316.59 356.742C316.843 356.746 317.094 356.794 317.332 356.882C317.505 356.947 317.662 357.049 317.793 357.179C317.923 357.31 318.025 357.467 318.09 357.64C318.179 357.878 318.226 358.129 318.23 358.382C318.23 358.803 318.254 358.931 318.254 359.986C318.254 361.041 318.254 361.189 318.23 361.59C318.226 361.844 318.179 362.094 318.09 362.332C318.023 362.504 317.921 362.661 317.791 362.791C317.66 362.922 317.504 363.024 317.332 363.09C317.094 363.179 316.843 363.225 316.59 363.226C316.189 363.246 316.041 363.25 314.986 363.25C313.931 363.25 313.783 363.25 313.382 363.226C313.129 363.225 312.877 363.179 312.64 363.09C312.466 363.025 312.308 362.922 312.179 362.789C312.049 362.66 311.947 362.504 311.882 362.332C311.793 362.095 311.747 361.843 311.746 361.59C311.746 361.165 311.722 361.041 311.722 359.986C311.722 358.931 311.722 358.783 311.746 358.382C311.747 358.129 311.793 357.878 311.882 357.64C311.946 357.466 312.049 357.308 312.183 357.179C312.311 357.047 312.468 356.944 312.64 356.878C312.878 356.793 313.129 356.747 313.382 356.742C313.783 356.722 313.931 356.718 314.986 356.718ZM314.986 356C313.899 356 313.783 356 313.338 356.024C313.006 356.028 312.677 356.091 312.367 356.209C312.106 356.311 311.869 356.468 311.674 356.67C311.468 356.869 311.31 357.111 311.213 357.379C311.094 357.69 311.03 358.018 311.024 358.35C311.004 358.775 311 358.912 311 359.998C311 361.085 311 361.201 311.024 361.646C311.032 361.978 311.095 362.305 311.209 362.617C311.311 362.884 311.47 363.126 311.674 363.326C311.873 363.531 312.116 363.689 312.383 363.788C312.694 363.906 313.022 363.97 313.354 363.976C313.779 363.976 313.915 364 315.002 364C316.089 364 316.205 364 316.65 363.976C316.982 363.97 317.31 363.906 317.621 363.788C317.888 363.689 318.131 363.531 318.33 363.326C318.532 363.127 318.69 362.886 318.791 362.621C318.905 362.309 318.968 361.982 318.976 361.65C318.996 361.221 319 361.089 319 360.002C319 358.916 319 358.779 318.976 358.354C318.97 358.022 318.908 357.694 318.791 357.383C318.69 357.117 318.533 356.875 318.33 356.674C318.129 356.472 317.887 356.314 317.621 356.213C317.31 356.096 316.982 356.034 316.65 356.028C316.225 356.028 316.089 356.004 315.002 356.004" fill="#00E2D5"/>
<path d="M315 358C314.604 358 314.218 358.117 313.889 358.337C313.56 358.557 313.303 358.869 313.152 359.235C313.001 359.6 312.961 360.002 313.039 360.39C313.116 360.778 313.306 361.134 313.586 361.414C313.866 361.694 314.222 361.884 314.61 361.962C314.998 362.039 315.4 361.999 315.765 361.848C316.131 361.696 316.443 361.44 316.663 361.111C316.883 360.782 317 360.396 317 360C317 359.47 316.789 358.961 316.414 358.586C316.039 358.211 315.53 358 315 358ZM315 361.297C314.743 361.298 314.49 361.222 314.276 361.079C314.061 360.937 313.894 360.734 313.795 360.496C313.696 360.258 313.67 359.996 313.72 359.743C313.77 359.491 313.894 359.259 314.076 359.076C314.259 358.894 314.491 358.77 314.743 358.72C314.996 358.67 315.258 358.696 315.496 358.795C315.734 358.894 315.937 359.061 316.079 359.276C316.222 359.49 316.298 359.743 316.297 360C316.297 360.17 316.263 360.339 316.198 360.496C316.133 360.654 316.037 360.796 315.917 360.917C315.796 361.037 315.653 361.133 315.496 361.198C315.339 361.263 315.17 361.297 315 361.297Z" fill="#00E2D5"/>
<path d="M318 357.5C318 357.599 317.97 357.696 317.916 357.778C317.861 357.86 317.782 357.924 317.691 357.962C317.6 358 317.5 358.01 317.403 357.991C317.305 357.971 317.216 357.923 317.146 357.853C317.076 357.783 317.029 357.695 317.01 357.598C316.99 357.5 317 357.4 317.038 357.309C317.076 357.217 317.14 357.139 317.222 357.084C317.305 357.029 317.401 357 317.5 357C317.566 356.999 317.631 357.012 317.692 357.037C317.753 357.062 317.808 357.099 317.855 357.145C317.901 357.192 317.938 357.247 317.963 357.308C317.988 357.369 318 357.434 318 357.5Z" fill="#00E2D5"/>
<path d="M338.498 367C336.509 367 334.602 366.21 333.196 364.804C331.79 363.398 331 361.49 331 359.502C331 357.512 331.79 355.604 333.197 354.197C334.604 352.79 336.512 352 338.502 352C340.491 352.001 342.398 352.792 343.804 354.198C345.21 355.605 346 357.513 346 359.502C345.999 361.491 345.208 363.398 343.801 364.804C342.395 366.21 340.487 367 338.498 367Z" fill="white"/>
<path d="M334 362.208C334.811 362.704 335.75 362.978 336.712 362.999C337.675 363.02 338.626 362.787 339.46 362.325C340.293 361.865 340.979 361.193 341.44 360.385C341.902 359.577 342.123 358.662 342.078 357.742C342.44 357.492 342.753 357.182 343 356.826C342.663 356.971 342.305 357.065 341.938 357.106C342.325 356.887 342.614 356.54 342.751 356.131C342.39 356.335 341.995 356.48 341.584 356.559C341.305 356.275 340.937 356.087 340.535 356.023C340.134 355.96 339.722 356.026 339.363 356.209C339.005 356.393 338.719 356.685 338.552 357.039C338.384 357.394 338.343 357.791 338.436 358.17C337.701 358.132 336.982 357.947 336.326 357.627C335.67 357.306 335.093 356.857 334.63 356.309C334.395 356.698 334.323 357.158 334.429 357.595C334.535 358.033 334.812 358.415 335.202 358.665C334.909 358.656 334.623 358.581 334.366 358.445C334.36 358.857 334.505 359.258 334.776 359.578C335.047 359.898 335.426 360.118 335.848 360.198C335.575 360.268 335.29 360.278 335.012 360.228C335.13 360.58 335.36 360.887 335.67 361.107C335.98 361.327 336.354 361.449 336.739 361.456C336.357 361.748 335.918 361.964 335.448 362.093C334.978 362.222 334.486 362.261 334 362.208Z" fill="#00E2D5"/>
<path d="M180.546 385C177.494 340.438 174.141 337.498 174 337.389L174.214 337C174.359 337.074 177.88 339.278 181 384.984L180.546 385Z" fill="#3F4249"/>
<path d="M183.867 384L183.265 383.969C185.944 351.784 183.031 334.231 183 334.058L183.597 334C183.628 334.173 186.551 351.765 183.867 384Z" fill="#3F4249"/>
<path d="M186.588 386C184.058 365.655 190.507 350.156 190.566 350L191 350.18C190.936 350.332 184.531 365.725 187.05 385.945L186.588 386Z" fill="#3F4249"/>
<path d="M189.543 388C188.78 380.699 188.822 373.284 189.666 366L190 366.086C189.162 373.319 189.121 380.681 189.879 387.929L189.543 388Z" fill="#3F4249"/>
<path d="M191 351L192.997 350.833C194.415 350.708 195.792 350.273 197.033 349.558C197.638 349.193 198.266 348.868 198.913 348.586C201.383 347.57 204.137 347.754 206.794 347.618C211.148 347.391 215.413 346.272 219.338 344.328C219.568 344.22 219.759 344.042 219.885 343.818C220.293 343.053 219.532 342.372 218.875 341.958C215.511 339.831 212.085 337.676 208.267 336.62C204.448 335.564 200.109 335.744 196.862 338.042C193.039 340.739 191.645 346.28 191 350.992" fill="#00E2D5"/>
<g opacity="0.3">
<g opacity="0.3">
<path opacity="0.3" d="M219.961 343.579C219.843 343.536 219.73 343.482 219.622 343.418L218.672 342.917C217.85 342.479 216.666 341.833 215.166 341.103C213.421 340.237 211.604 339.528 209.736 338.986C207.452 338.323 205.061 338.127 202.701 338.41C200.338 338.676 198.107 339.646 196.29 341.198C194.87 342.529 193.733 344.139 192.948 345.929C192.403 347.137 191.918 348.371 191.495 349.628C191.347 350.05 191.23 350.393 191.14 350.649C191.103 350.77 191.056 350.887 191 351C191.014 350.875 191.043 350.752 191.086 350.633C191.167 350.369 191.269 350.026 191.397 349.592C191.784 348.318 192.244 347.069 192.776 345.851C193.547 344.014 194.688 342.361 196.126 340.997C197.974 339.4 200.252 338.4 202.666 338.126C205.072 337.837 207.51 338.045 209.833 338.737C211.714 339.293 213.54 340.026 215.287 340.926C216.779 341.675 217.951 342.349 218.761 342.818L219.688 343.366C219.799 343.424 219.903 343.493 220 343.572" fill="black"/>
</g>
</g>
<g opacity="0.3">
<g opacity="0.3">
<path opacity="0.3" d="M214 345.998C213.963 346.058 211.469 344.319 208.441 342.112C205.413 339.905 202.967 338.061 203 338.002C203.034 337.942 205.532 339.677 208.559 341.884C211.587 344.091 214.026 345.935 213.985 345.998" fill="black"/>
</g>
</g>
<g opacity="0.3">
<g opacity="0.3">
<path opacity="0.3" d="M211.988 338.002C211.352 338.211 210.686 338.326 210.014 338.341C209.345 338.43 208.666 338.422 208 338.318C208.655 338.202 209.32 338.136 209.986 338.121C210.653 338.032 211.326 337.991 212 338.002" fill="black"/>
</g>
</g>
<g opacity="0.3">
<g opacity="0.3">
<path opacity="0.3" d="M200.992 336C201.06 336.036 200.667 336.733 200.119 337.561C199.81 338.099 199.436 338.583 199.007 339C198.943 338.964 199.336 338.267 199.884 337.439C200.193 336.902 200.566 336.418 200.992 336Z" fill="black"/>
</g>
</g>
<g opacity="0.3">
<g opacity="0.3">
<path opacity="0.3" d="M202.988 348C202.545 347.802 202.121 347.557 201.723 347.27C200.966 346.781 199.939 346.068 198.846 345.222C197.753 344.376 196.784 343.563 196.089 342.995C195.698 342.7 195.333 342.367 195 342C195.423 342.238 195.826 342.516 196.203 342.829L199.002 344.99C200.095 345.819 201.099 346.569 201.829 347.1C202.242 347.364 202.634 347.663 203 347.996" fill="black"/>
</g>
</g>
<path d="M196.336 413H176.66L173 386H200L196.336 413Z" fill="#61656D"/>
<path d="M201.547 391H170.449L170 385H202L201.547 391Z" fill="#61656D"/>
<g opacity="0.2">
<g opacity="0.2">
<path opacity="0.2" d="M173 391H199L195.882 414L192.76 413.786L194.504 392.842L173.198 392.48L173 391Z" fill="black"/>
</g>
</g>
<g opacity="0.2">
<g opacity="0.2">
<path opacity="0.2" d="M194.905 385.043L194 391H201.548L202 385L194.905 385.043Z" fill="black"/>
</g>
</g>
<g opacity="0.2">
<g opacity="0.2">
<path opacity="0.2" d="M198 397H175V397.456H198V397Z" fill="white"/>
</g>
</g>
<g opacity="0.2">
<g opacity="0.2">
<path opacity="0.2" d="M198 399H175V399.456H198V399Z" fill="white"/>
</g>
</g>
<path d="M175.017 337.66C173.105 336.208 171.084 335.922 168.685 336.016C166.285 336.175 163.935 336.781 161.756 337.801C158.006 339.441 154.483 341.863 152.244 345.292C150.004 348.721 149.228 353.259 150.902 357.008C151.033 357.399 151.304 357.727 151.662 357.93C152.079 358.05 152.525 358.015 152.919 357.833C157.179 356.442 161.475 355.036 165.404 352.857C169.333 350.678 172.879 347.643 174.97 343.679C175.51 342.743 175.853 341.706 175.977 340.632C176.037 340.096 175.98 339.553 175.812 339.04C175.644 338.527 175.367 338.057 175.001 337.66" fill="#00E2D5"/>
<g opacity="0.3">
<g opacity="0.3">
<path opacity="0.3" d="M173.977 337C173.883 337.055 173.782 337.098 173.677 337.126L172.806 337.438L172.176 337.655C171.947 337.742 171.704 337.849 171.438 337.955C170.914 338.176 170.298 338.397 169.663 338.721L168.644 339.202C168.291 339.371 167.937 339.596 167.565 339.774C166.805 340.168 166.044 340.65 165.239 341.147C161.757 343.389 158.659 346.217 156.074 349.517C155.497 350.286 154.934 351.008 154.47 351.734C154.235 352.093 153.988 352.432 153.782 352.772L153.193 353.778C152.813 354.397 152.513 354.997 152.235 355.51C152.102 355.767 151.969 356.007 151.855 356.228C151.741 356.449 151.654 356.662 151.566 356.851L151.156 357.708C151.113 357.81 151.061 357.908 151 358C151.027 357.891 151.063 357.785 151.11 357.684C151.205 357.459 151.323 357.167 151.49 356.804L151.756 356.173C151.863 355.944 151.988 355.704 152.118 355.439C152.387 354.918 152.665 354.306 153.045 353.679L153.627 352.677C153.828 352.33 154.071 351.99 154.303 351.623C154.763 350.889 155.326 350.156 155.903 349.374C158.483 346.032 161.603 343.182 165.125 340.95C165.946 340.457 166.717 339.971 167.477 339.592C167.858 339.399 168.211 339.198 168.568 339.028L169.598 338.559C170.252 338.247 170.868 338.038 171.4 337.829C171.67 337.73 171.917 337.627 172.16 337.552L172.799 337.355L173.685 337.091C173.788 337.056 173.893 337.032 174 337.016" fill="black"/>
</g>
</g>
<g opacity="0.3">
<g opacity="0.3">
<path opacity="0.3" d="M160 345.006C160.019 345.083 158.022 345.814 155.536 346.638C153.049 347.462 151.019 348.07 151 347.994C150.981 347.917 152.978 347.186 155.464 346.362C157.951 345.538 159.981 344.93 160 345.006Z" fill="black"/>
</g>
</g>
<g opacity="0.3">
<g opacity="0.3">
<path opacity="0.3" d="M160.119 355C160.039 354.517 160.006 354.026 160.019 353.537C159.996 352.636 159.992 351.385 160.019 349.996C160.046 348.607 160.127 347.372 160.2 346.456C160.214 345.965 160.275 345.478 160.381 345C160.424 345.487 160.424 345.976 160.381 346.463C160.354 347.455 160.316 348.659 160.277 350.004C160.239 351.349 160.215 352.537 160.188 353.525C160.203 354.014 160.175 354.504 160.104 354.988" fill="black"/>
</g>
</g>
<g opacity="0.3">
<g opacity="0.3">
<path opacity="0.3" d="M168.978 350C168.892 350 168.605 347.545 168.343 344.508C168.08 341.47 167.937 339.008 168.027 339C168.118 338.992 168.405 341.455 168.667 344.492C168.93 347.53 169.054 350 168.978 350Z" fill="black"/>
</g>
</g>
<g opacity="0.3">
<g opacity="0.3">
<path opacity="0.3" d="M158 339.063C158.487 338.999 158.978 338.984 159.469 339.016C160.372 339.016 161.626 339.051 163.006 339.094C164.386 339.136 165.636 339.198 166.539 339.252C167.029 339.254 167.518 339.302 168 339.395C167.514 339.453 167.023 339.467 166.535 339.437C165.628 339.437 164.378 339.407 162.994 339.36C161.61 339.314 160.364 339.256 159.461 339.202C158.971 339.198 158.482 339.151 158 339.063Z" fill="black"/>
</g>
</g>
<path d="M171 327.337L168.685 331.771C168.634 331.876 168.56 331.992 168.449 332C168.338 332.007 168.235 331.887 168.169 331.783L162 321.845L163.421 321L171 327.337Z" fill="#00E2D5"/>
<g opacity="0.2">
<g opacity="0.2">
<path opacity="0.2" d="M171 327.337L168.685 331.771C168.634 331.876 168.56 331.992 168.449 332C168.338 332.007 168.235 331.887 168.169 331.783L162 321.845L163.421 321L171 327.337Z" fill="black"/>
</g>
</g>
<path d="M183.208 335L161.547 322.061C161.326 321.926 161.083 321.772 161.018 321.522C160.931 321.195 161.17 320.883 161.398 320.641C162.886 319.074 164.69 317.85 166.687 317.053C168.683 316.256 170.827 315.904 172.97 316.022C177.237 316.334 181.33 318.828 183.432 322.611C185.533 326.394 185.59 331.394 183.192 334.985" fill="#00E2D5"/>
<g opacity="0.3">
<g opacity="0.3">
<path opacity="0.3" d="M165 318.074C165.094 318.053 165.19 318.041 165.286 318.04C165.475 318.04 165.757 317.998 166.12 318.002C167.143 317.986 168.165 318.065 169.172 318.238C172.53 318.794 175.656 320.285 178.18 322.533C180.705 324.782 182.523 327.694 183.42 330.927C183.696 331.898 183.878 332.893 183.965 333.897C183.988 334.107 184 334.317 184 334.528C183.981 334.697 183.924 334.858 183.83 335C183.899 334.639 183.91 334.269 183.865 333.905C183.737 332.915 183.529 331.937 183.243 330.981C182.318 327.801 180.507 324.94 178.015 322.721C175.523 320.504 172.449 319.017 169.142 318.432C168.144 318.245 167.132 318.138 166.117 318.112C165.398 318.112 165 318.112 165 318.086" fill="black"/>
</g>
</g>
<g opacity="0.3">
<g opacity="0.3">
<path opacity="0.3" d="M181 327C180.647 327.252 180.269 327.454 179.877 327.604C179.167 327.931 178.18 328.355 177.072 328.77C175.964 329.184 174.95 329.516 174.213 329.728C173.819 329.876 173.412 329.967 173 330C173.376 329.801 173.768 329.647 174.17 329.539L176.998 328.493L179.814 327.392C180.193 327.217 180.584 327.085 180.984 327" fill="black"/>
</g>
</g>
<g opacity="0.3">
<g opacity="0.3">
<path opacity="0.3" d="M178.044 317C178.113 317 178.271 318.107 178.302 319.496C178.333 320.885 178.237 322.004 178.167 322C178.098 321.996 178.075 320.878 178.04 319.5C178.005 318.122 177.971 317.008 178.04 317" fill="black"/>
</g>
</g>
<g opacity="0.3">
<g opacity="0.3">
<path opacity="0.3" d="M162 322.996C162.505 322.736 163.03 322.527 163.567 322.371C164.547 322.029 165.91 321.596 167.432 321.181C168.954 320.766 170.343 320.449 171.353 320.253C171.895 320.115 172.445 320.03 173 320C172.472 320.192 171.933 320.343 171.387 320.454C170.388 320.706 169.01 321.053 167.492 321.468C165.975 321.883 164.608 322.281 163.616 322.572C163.087 322.756 162.547 322.899 162 323" fill="black"/>
</g>
</g>
<path d="M193.634 359.857C191.745 359.368 189.497 361.177 189.109 363.061C188.72 364.945 189.436 366.875 190.263 368.608C192.126 372.452 194.688 376.02 198.071 378.67C201.453 381.32 205.682 383.023 210 383C209.203 379.349 210.212 375.535 209.769 371.823C209.372 368.56 207.865 365.527 205.494 363.216C203.123 360.905 200.028 359.454 196.713 359.099C195.508 358.97 194.115 358.784 193.634 359.88" fill="#00E2D5"/>
<g opacity="0.3">
<g opacity="0.3">
<path opacity="0.3" d="M208.981 384C208.889 383.969 208.8 383.926 208.718 383.874C208.475 383.734 208.245 383.573 208.03 383.391C207.258 382.686 206.637 381.818 206.211 380.844C205.914 380.246 205.587 379.598 205.267 378.878C204.948 378.159 204.621 377.389 204.275 376.583C203.916 375.742 203.509 374.924 203.054 374.134C202.556 373.294 201.995 372.496 201.377 371.748C200.115 370.196 198.747 368.856 197.589 367.574C196.527 366.455 195.559 365.241 194.699 363.946C194.12 363.07 193.646 362.124 193.286 361.128C193.165 360.77 193.083 360.495 193.038 360.299C193.014 360.201 193.002 360.101 193 360C193.023 360 193.128 360.393 193.398 361.085C193.79 362.056 194.283 362.978 194.868 363.836C195.742 365.105 196.715 366.296 197.777 367.397C198.953 368.667 200.318 370.003 201.592 371.572C202.218 372.331 202.786 373.14 203.291 373.993C203.747 374.793 204.154 375.622 204.508 376.477L205.478 378.78C205.786 379.496 206.106 380.148 206.391 380.746C206.793 381.709 207.379 382.578 208.113 383.296C208.65 383.784 209.015 383.965 209 383.988" fill="black"/>
</g>
</g>
<g opacity="0.3">
<g opacity="0.3">
<path opacity="0.3" d="M200 379.982C200.007 379.573 200.056 379.167 200.147 378.771C200.27 378.038 200.472 377.011 200.752 375.903C201.033 374.795 201.326 373.808 201.564 373.1C201.674 372.717 201.82 372.348 202 372C201.936 372.401 201.84 372.795 201.713 373.177C201.515 373.911 201.244 374.887 200.967 375.991C200.691 377.095 200.463 378.096 200.3 378.826C200.232 379.227 200.132 379.62 200 380" fill="black"/>
</g>
</g>
<g opacity="0.3">
<g opacity="0.3">
<path opacity="0.3" d="M209 370.985C208.552 370.923 208.111 370.822 207.682 370.684C206.871 370.477 205.771 370.195 204.517 369.931C203.264 369.668 202.144 369.442 201.322 369.288C200.874 369.232 200.431 369.136 200 369.002C200.454 368.99 200.907 369.027 201.353 369.111C202.182 369.217 203.325 369.405 204.575 369.683C205.824 369.962 206.936 370.274 207.731 370.526C208.171 370.637 208.596 370.796 209 371" fill="black"/>
</g>
</g>
<g opacity="0.3">
<g opacity="0.3">
<path opacity="0.3" d="M193.014 374C193.035 373.492 193.115 372.987 193.253 372.493C193.448 371.572 193.756 370.305 194.158 368.923C194.561 367.542 195.014 366.298 195.362 365.413C195.52 364.925 195.734 364.451 196 364C195.902 364.499 195.758 364.989 195.57 365.468C195.276 366.369 194.873 367.609 194.457 368.99C194.041 370.371 193.701 371.623 193.452 372.532C193.346 373.031 193.195 373.522 193 374" fill="black"/>
</g>
</g>
<g opacity="0.3">
<g opacity="0.3">
<path opacity="0.3" d="M205 362.986C205 363.05 202.524 362.882 199.484 362.613C196.444 362.343 193.992 362.078 194 362.014C194.008 361.95 196.476 362.118 199.516 362.387C202.556 362.657 205.008 362.922 205 362.986Z" fill="black"/>
</g>
</g>
<path d="M183.481 341.065C183.321 339.33 181.604 338.02 179.894 338C178.183 337.981 176.591 339.027 175.548 340.407C174.504 341.788 173.925 343.472 173.457 345.152C172.314 349.243 171.674 353.544 172.169 357.771C172.664 361.998 174.34 366.159 177.311 369.146C177.795 369.632 178.42 370.118 179.082 369.974C179.438 369.862 179.761 369.658 180.019 369.383C182.928 366.664 185.234 363.341 186.781 359.637C188.329 355.934 189.083 351.935 188.993 347.909C188.947 346.303 188.741 344.627 187.869 343.289C186.997 341.951 184.963 340.528 183.481 341.065Z" fill="#00E2D5"/>
<g opacity="0.3">
<g opacity="0.3">
<path opacity="0.3" d="M178.092 369C178.072 368.905 178.062 368.808 178.063 368.711C178.063 368.49 178.041 368.216 178.026 367.874C177.993 367.151 177.989 366.1 178.026 364.803C178.063 363.505 178.132 361.964 178.282 360.236C178.433 358.509 178.682 356.659 179.015 354.711C179.348 352.762 179.773 350.905 180.202 349.261C180.63 347.618 181.084 346.126 181.502 344.901C181.92 343.675 182.282 342.693 182.557 342.024L182.875 341.263C182.907 341.17 182.949 341.082 183 341C182.987 341.097 182.961 341.192 182.923 341.282C182.85 341.487 182.758 341.746 182.648 342.069C182.399 342.747 182.062 343.736 181.67 344.965C181.279 346.194 180.85 347.675 180.425 349.326C180 350.978 179.605 352.82 179.26 354.76C178.916 356.701 178.682 358.566 178.51 360.267C178.337 361.968 178.246 363.505 178.198 364.799C178.151 366.093 178.129 367.139 178.132 367.843C178.132 368.183 178.132 368.461 178.132 368.677C178.139 368.775 178.132 368.873 178.11 368.97" fill="black"/>
</g>
</g>
<g opacity="0.3">
<g opacity="0.3">
<path opacity="0.3" d="M180 355C179.731 355.362 179.423 355.694 179.082 355.991C178.484 356.573 177.638 357.354 176.656 358.186C175.673 359.019 174.787 359.736 174.12 360.239C173.776 360.532 173.401 360.788 173 361C173.303 360.666 173.637 360.361 173.999 360.089L176.474 357.98L178.932 355.852C179.253 355.535 179.606 355.25 179.984 355" fill="black"/>
</g>
</g>
<g opacity="0.3">
<g opacity="0.3">
<path opacity="0.3" d="M186 361C185.668 360.59 185.367 360.154 185.098 359.697L183 356.5L180.857 353.338C180.541 352.914 180.254 352.467 180 352C180.369 352.376 180.704 352.786 181.002 353.225C181.591 354.003 182.378 355.104 183.209 356.337C184.04 357.57 184.752 358.736 185.251 359.584C185.539 360.028 185.789 360.498 185.996 360.988" fill="black"/>
</g>
</g>
<g opacity="0.3">
<g opacity="0.3">
<path opacity="0.3" d="M183 343.006C183.036 343.07 180.829 344.691 178.068 346.616C175.308 348.542 173.037 350.062 173 349.998C172.964 349.934 175.171 348.317 177.932 346.388C180.692 344.458 182.959 342.942 183 343.002" fill="black"/>
</g>
</g>
<g opacity="0.3">
<g opacity="0.3">
<path opacity="0.3" d="M189.999 350.999C189.947 351.051 188.338 349.529 186.407 347.598C184.476 345.666 182.95 344.058 183.001 344.002C183.053 343.945 184.662 345.471 186.593 347.403C188.524 349.335 190.05 350.942 189.999 350.999Z" fill="black"/>
</g>
</g>
</g>
<defs>
<filter id="filter0_d_174_447" x="0" y="0" width="619" height="564" filterUnits="userSpaceOnUse" color-interpolation-filters="sRGB">
<feFlood flood-opacity="0" result="BackgroundImageFix"/>
<feColorMatrix in="SourceAlpha" type="matrix" values="0 0 0 0 0 0 0 0 0 0 0 0 0 0 0 0 0 0 127 0" result="hardAlpha"/>
<feOffset/>
<feGaussianBlur stdDeviation="75"/>
<feComposite in2="hardAlpha" operator="out"/>
<feColorMatrix type="matrix" values="0 0 0 0 0 0 0 0 0 0.886275 0 0 0 0 0.835294 0 0 0 0.25 0"/>
<feBlend mode="normal" in2="BackgroundImageFix" result="effect1_dropShadow_174_447"/>
<feBlend mode="normal" in="SourceGraphic" in2="effect1_dropShadow_174_447" result="shape"/>
</filter>
</defs>
</svg>
