<svg width="47" height="47" viewBox="0 0 47 47" fill="none" xmlns="http://www.w3.org/2000/svg">
<path fill-rule="evenodd" clip-rule="evenodd" d="M23.5004 16.4499C23.5004 15.709 23.6587 14.6481 23.7998 14.0076C24.094 12.6712 24.7181 11.314 25.4769 10.2015C26.0502 9.36094 26.0163 9.54801 26.4087 9.077C28.8741 6.11817 33.1917 4.96419 36.9092 5.78262C38.3529 6.10039 40.4288 7.05095 41.4933 8.0527C43.8975 10.3153 45.4336 12.8496 45.4336 16.4499C45.4336 20.6688 42.6779 24.9456 38.8884 26.4526C35.4509 27.8195 32.2608 27.7168 29.0134 25.918C28.5306 25.6505 28.2088 25.4147 27.7797 25.0955C27.1485 24.6261 26.9469 24.1853 26.3399 24.1853C25.9086 24.1853 22.7519 24.76 22.5212 24.8707C22.7808 23.7559 24.4795 22.1495 24.4795 21.052C24.4795 20.7337 23.5004 18.9079 23.5004 16.4499ZM12.5338 4.69991H14.1005V3.13318H12.5338V4.69991ZM18.0171 17.2332H21.1504V15.6665H18.0171V17.2332ZM18.0171 14.0999H21.1504V12.5332H18.0171V14.0999ZM15.6671 4.69991H21.9336V3.13318H15.6671V4.69991ZM11.1399 15.154L12.2636 16.2306L14.665 13.881C14.7257 14.3246 15.2938 15.4103 14.1774 16.5267C13.2605 17.4436 11.7794 17.4157 10.8904 16.5267C9.33598 14.9722 10.6405 12.5332 12.5339 12.5332C12.8593 12.5332 13.1427 12.6981 13.5131 12.729L11.1399 15.154ZM14.7096 11.5759C10.0967 9.12471 6.66373 14.6514 9.71462 17.7023C12.2865 20.2743 16.4503 18.1462 16.4503 15.177C16.4503 13.9881 16.4226 13.7867 15.8628 12.729L17.0596 11.4778L15.9373 10.4024L14.7096 11.5759ZM29.767 21.8354V21.15H39.1668C39.1668 21.6684 39.28 22.7167 38.2857 22.7167H30.6483C30.1642 22.7167 29.767 22.3193 29.767 21.8354ZM29.767 13.3166H31.3337V14.8833H32.9004V13.3166H36.0337V14.8833H37.6004V13.3166H39.1671V19.5832H29.7672L29.767 13.3166ZM32.9002 11.2603C32.9002 8.76414 36.0335 8.84423 36.0335 11.2603V11.7499H32.9002V11.2603ZM31.3335 10.7707V11.7499C29.6642 11.7499 28.2002 11.4367 28.2002 12.5332V22.129C28.2002 23.2062 29.2771 24.2832 30.3543 24.2832H38.5793C39.6565 24.2832 40.7334 23.2062 40.7334 22.129V12.5332C40.7334 11.4367 39.2695 11.7499 37.6001 11.7499C37.6001 10.5859 37.6874 9.72396 36.6984 8.73494C34.7667 6.80316 31.3335 8.17501 31.3335 10.7707ZM16.4503 33.6831C16.4503 33.2962 16.8949 32.8998 17.3316 32.8998H20.269C21.4081 32.8998 21.4081 34.4666 20.269 34.4666H17.3316C16.895 34.4666 16.4503 34.0699 16.4503 33.6831ZM31.2962 2.64496L31.8239 4.13463C32.8365 3.94062 33.8554 3.91647 35.1522 3.91647C39.4872 3.91647 44.183 7.22054 45.8534 11.134C46.8547 13.48 47 14.4312 47 17.0373C47 21.4565 43.7814 26.0662 39.8509 27.807C37.5686 28.8178 36.4534 28.9832 33.8793 28.9832C33.2897 28.9832 32.6983 28.9205 32.1168 28.8094V29.7666C32.1168 33.195 32.6585 36.0647 29.9508 38.0777C28.3989 39.2314 27.4584 39.1666 24.871 39.1666C20.7259 39.1666 16.5809 39.1666 12.4357 39.1666C12.5164 39.4689 12.7837 39.826 12.9562 40.1149C14.4982 42.6974 14.1002 43.3073 14.1002 47H12.5335C12.5335 45.6454 12.6727 43.3268 12.243 42.1987C11.8989 41.2953 10.1835 38.9876 10.1835 38.3833C10.1835 37.6136 14.0022 32.0711 14.0022 31.1375C14.0022 29.546 12.0924 29.1456 11.2842 30.0841L7.80049 36.0984C7.18375 37.2612 6.31921 36.9766 5.88752 35.8251C5.72719 35.3978 5.54576 34.84 5.4953 34.3568L5.48345 23.2062C5.25647 23.4673 3.9348 26.4072 3.7775 26.7877C2.84791 29.0384 1.56672 30.6506 1.56672 33.3895V46.9999H0V32.6062C0 31.3798 0.485037 29.9623 0.912823 29.1127L3.00708 24.5487C3.13055 24.2594 3.22698 24.1105 3.36302 23.8276C4.01489 22.4718 4.27324 21.2027 5.4833 20.5624C5.4833 16.2542 5.4833 11.9458 5.4833 7.63749C5.4833 4.97518 5.34394 3.84318 6.53029 2.22194C7.31271 1.15282 8.87596 0 10.673 0H26.927C28.3199 0 30.8836 1.22496 31.2962 2.64496ZM30.2628 4.57616C29.7142 2.81917 28.9598 1.56659 26.3399 1.56659H11.2608C10.0223 1.56659 8.71534 2.0217 8.02617 2.93396C7.15961 4.081 7.04988 4.58715 7.05046 6.56027V33.9769C7.37285 33.7407 9.02515 30.6964 9.51612 29.8822C10.4012 28.4146 11.8742 27.3284 13.7774 28.229C15.2404 28.9213 15.8457 30.4104 15.4712 32.0185C15.8802 31.7447 16.3711 31.3331 17.0379 31.3331H20.5628C21.64 31.3331 22.7169 32.41 22.7169 33.4872C22.7169 35.0038 21.7613 36.033 20.5628 36.033H17.0379C16.4169 36.033 15.6942 35.587 15.4097 35.2133C14.966 34.6308 14.8838 34.2801 14.8838 33.2913C14.7863 33.4034 14.8923 33.2662 14.7591 33.4605C14.7479 33.4768 14.7315 33.5021 14.72 33.5193C14.7084 33.5367 14.6932 33.5614 14.6818 33.579L14.2177 34.3879C13.9935 34.7619 13.8196 35.069 13.6058 35.4404C13.2056 36.1355 12.7798 36.9396 12.3379 37.5996C16.0587 37.5996 19.7794 37.5996 23.5002 37.5996C25.3249 37.5996 27.3843 37.7822 28.554 37.0722C31.0678 35.5462 30.5502 32.9916 30.5502 29.7664V28.3918C29.0107 27.868 27.6334 27.0688 26.6743 26.2985C26.0698 25.8132 26.3623 25.7796 25.459 25.9446C24.7042 26.0825 21.037 26.9071 20.5693 26.7312C19.5682 26.3546 20.3256 25.2785 20.5686 24.8762C20.76 24.559 20.9537 24.2032 21.1449 23.8857C23.279 20.3414 22.8258 21.523 22.3448 19.7595C21.8762 18.0415 21.9338 17.4759 21.9338 15.7642C21.9338 14.1742 22.5797 12.133 23.1073 11.0627C24.4226 8.39461 26.2847 6.49551 28.9503 5.15575C29.4174 4.92097 29.8496 4.73071 30.2628 4.57616Z" fill="#00E2D5"/>
</svg>
