<svg width="48" height="48" viewBox="0 0 48 48" fill="none" xmlns="http://www.w3.org/2000/svg">
<path fill-rule="evenodd" clip-rule="evenodd" d="M40.994 1.23561C40.8102 0.894421 40.4553 0.765866 40.0815 0.765866C39.7115 0.765866 39.0018 1.49927 38.7611 1.74983C38.4685 2.05469 38.1867 2.36977 37.8932 2.67383C37.6269 2.9498 37.3315 3.24265 37.0123 3.45637L36.7313 3.64459L36.4502 3.45637C33.4978 1.47922 28.4134 0 24.8616 0C20.9659 0 17.3662 0.441651 13.8567 2.21064C12.5706 2.85897 11.3388 3.49678 10.1707 4.34692C9.05134 5.16153 7.98607 6.02627 7.00628 7.00616C6.02648 7.98595 5.16174 9.05132 4.34703 10.1706C3.49688 11.3387 2.85907 12.5704 2.21074 13.8566C1.54345 15.1803 1.04442 16.7025 0.685955 18.1382C0.27607 19.7803 0 21.5408 0 23.2342C0 27.0439 0.459421 30.6447 2.17898 34.0813C2.50031 34.7234 2.80557 35.382 3.17654 35.9972C3.65313 36.7875 4.15772 37.6371 4.74312 38.3538C4.936 38.5899 5.1398 38.8179 5.33804 39.0497C5.65809 39.424 5.96632 39.8063 6.26751 40.1957C7.96205 42.3867 11.3294 44.5132 13.7935 45.7572C15.1101 46.4219 16.6306 46.9253 18.057 47.29C19.6899 47.7076 21.4526 48 23.1384 48H24.8615C26.5306 48 28.2775 47.7127 29.8957 47.304C31.3147 46.9456 32.8339 46.4493 34.1433 45.7894C35.4321 45.1397 36.6579 44.5008 37.8307 43.6524C39.5288 42.4238 41.0693 41.0646 42.4114 39.4503C43.7488 37.8416 44.8162 36.0704 45.7573 34.2065C46.422 32.89 46.9254 31.3693 47.29 29.9431C47.7076 28.3102 48 26.5474 48 24.8615C48 22.7327 47.891 20.6073 47.4185 18.525C46.9583 16.4973 46.1732 14.6245 45.2465 12.7699C45.0401 12.3566 44.8007 11.9338 44.5437 11.5499L44.3555 11.2689L44.5437 10.9879C44.7469 10.6845 45.0537 10.3822 45.3147 10.1262C45.5788 9.86741 45.8527 9.61735 46.1139 9.35617C46.3844 9.08566 46.7105 8.81724 46.9461 8.51923C47.1385 8.27592 47.2342 8.04274 47.2342 7.72706C47.2342 7.35639 47.0602 7.15566 46.7294 7.01311C46.3446 6.84733 45.8406 6.80862 45.4266 6.79591C44.281 6.76077 43.1403 6.50922 41.996 6.50922H41.4908V6.00403C41.4908 5.72816 41.4631 5.42718 41.4441 5.15131C41.4089 4.63967 41.3676 4.12813 41.3203 3.61749C41.2726 3.10069 41.22 2.58191 41.1497 2.06769C41.1231 1.87362 41.0681 1.41261 40.9938 1.23541L40.994 1.23561ZM12.8079 12.7019L11.0579 14.7907C9.39481 17.2052 8.13656 20.2641 8.13656 23.2344C8.13656 24.532 8.15235 25.8769 8.39963 27.1547C8.63927 28.393 9.10504 29.5658 9.5996 30.7211C9.7762 31.1336 10.0119 31.545 10.242 31.93C10.483 32.3333 10.7373 32.7297 10.9985 33.1203C11.3202 33.6012 11.6669 34.046 12.06 34.4706C12.4459 34.8874 12.862 35.2779 13.2716 35.6712C13.4261 35.8195 13.5644 35.9878 13.7279 36.1253C16.3446 38.3261 19.9731 39.8638 23.4256 39.8638C24.7035 39.8638 26.0112 39.8327 27.2673 39.5766C28.4657 39.3322 29.6003 38.8804 30.721 38.4006C31.1334 38.224 31.5448 37.9884 31.9299 37.7582C32.3331 37.5172 32.7296 37.2629 33.1201 37.0017C33.5073 36.7427 33.865 36.4526 34.2272 36.161C34.3897 36.0302 34.5266 35.872 34.6741 35.7254C34.7876 35.6126 34.9035 35.5187 35.032 35.4244C35.1027 35.3725 35.1696 35.3234 35.2326 35.263L36.9788 33.1554C37.4882 32.4033 38.0044 31.6126 38.3744 30.7815C40.0418 27.0351 40.3943 22.9437 39.0879 19.0269C38.8228 18.232 38.454 17.4385 38.0799 16.6897C37.9345 16.3988 37.7846 16.1105 37.6331 15.8227C37.5642 15.6919 37.4289 15.4632 37.3919 15.3242L37.2223 14.6887H37.88C38.2276 14.6887 38.5706 14.714 38.9156 14.7543C39.178 14.7849 39.44 14.8255 39.7026 14.8517C40.0714 14.8886 40.3928 14.8928 40.7204 14.6986C41.0201 14.5209 41.3182 14.1845 41.5526 13.9274C41.8637 13.5864 42.1915 13.2134 42.5766 12.9554L43.0619 12.6304L44.3672 15.3651L44.3692 15.3696C45.3125 17.4504 45.8368 19.7265 46.02 21.9992C46.2028 24.2683 46.0521 26.5938 45.5774 28.8202C44.8125 32.4071 43.2951 35.2289 41.0402 38.0851C38.2567 41.611 33.4561 44.6123 29.0576 45.5305C28.2822 45.6924 27.5177 45.8471 26.7294 45.9364L26.7211 45.9374L24.1217 46.1446L24.1057 46.1448C23.7364 46.1509 23.354 46.1228 22.9861 46.0921C22.5184 46.0532 22.0511 46.0024 21.5855 45.9456C20.7962 45.8493 19.9576 45.7433 19.1802 45.5775C17.0326 45.1196 15.0699 44.3356 13.1583 43.2695C12.564 42.938 11.9808 42.5949 11.4249 42.2016C10.9077 41.8356 10.4126 41.4328 9.91538 41.0403C9.63951 40.8224 9.41585 40.6134 9.16748 40.3663C8.46346 39.6655 7.69759 39.0349 7.08202 38.247C6.88894 37.9999 6.69784 37.7521 6.49801 37.5104C4.11732 34.6301 2.46825 30.3426 2.05598 26.6409C1.09763 18.034 4.86492 9.99646 12.1631 5.31063C13.7237 4.30861 15.3448 3.59019 17.1027 3.00053C17.8316 2.75603 18.561 2.53555 19.3143 2.3791C20.044 2.22751 20.7867 2.13321 21.5257 2.0395C22.0834 1.96872 22.6594 2.00684 23.2142 1.92286C24.2506 1.76611 25.5935 1.93963 26.6408 2.05627C28.5913 2.27348 30.5976 2.79683 32.4115 3.53897L32.424 3.54403L35.3716 4.93678L35.0453 5.424C34.8169 5.76509 34.5474 6.05258 34.2444 6.32745C34.0213 6.52987 33.7786 6.72185 33.5685 6.93677C33.1468 7.3682 33.0781 7.7621 33.1696 8.36159C33.2143 8.65483 33.2414 8.9581 33.2655 9.25373C33.2886 9.53824 33.3118 9.83525 33.3118 10.1206V10.7783L32.6764 10.6087C32.2609 10.4978 31.8433 10.243 31.4716 10.0295C30.947 9.72834 30.4333 9.45207 29.8741 9.2173C27.8637 8.37301 25.5872 8.13704 23.4258 8.13704C19.7816 8.13704 16.6403 9.60038 13.8217 11.8031C13.6513 11.9362 13.5275 12.0707 13.3768 12.2236C13.2664 12.3356 13.1542 12.4332 13.029 12.5279C12.953 12.5854 12.8794 12.6401 12.808 12.7024L12.8079 12.7019ZM39.5338 5.04697C39.5338 5.61916 39.5439 6.19622 39.6101 6.76494C39.6454 7.0686 39.7543 7.79823 39.9782 8.02209C40.2105 8.25438 40.9296 8.3607 41.244 8.39643C41.811 8.46076 42.3833 8.46662 42.9533 8.46662H43.6111L43.4414 9.10214C43.328 9.52712 42.4146 10.4089 42.0908 10.732C41.6338 11.1879 41.1571 11.6255 40.7024 12.0808C40.5553 12.2279 40.4179 12.3824 40.2725 12.5301C40.1325 12.6726 39.9928 12.7862 39.7997 12.8484C39.6099 12.9094 39.4153 12.9035 39.2193 12.8889C38.9535 12.8692 38.6881 12.8398 38.422 12.8195C37.985 12.7859 37.5485 12.7562 37.1117 12.7173C36.8386 12.6931 36.564 12.6672 36.2922 12.6315C36.0642 12.6016 35.7678 12.572 35.5981 12.4025C35.4039 12.2083 35.3832 11.7628 35.3536 11.5007C35.3071 11.0883 35.2704 10.674 35.2355 10.2605C35.2009 9.85173 35.169 9.44254 35.1403 9.03335C35.1289 8.87075 35.0849 8.47168 35.1154 8.31761C35.1886 7.94793 35.8846 7.29583 36.1554 7.02741C36.5031 6.68274 36.8667 6.35138 37.2117 6.00622C37.4349 5.78306 37.6585 5.5602 37.8813 5.33664C38.2241 4.99297 38.3802 4.69754 38.8984 4.55916L39.534 4.38951V5.04727L39.5338 5.04697ZM28.1 17.9839C25.8414 16.4786 23.3583 16.3952 20.8825 17.4223C18.6325 18.3559 16.7516 21.1758 16.7516 23.6172C16.7516 24.2071 16.7423 24.853 16.8511 25.4343C16.9583 26.0077 17.1982 26.5814 17.4215 27.1178C17.7344 27.87 18.3065 28.5525 18.8771 29.1231C20.4001 30.6461 22.4502 31.4336 24.602 31.2473C26.7452 31.0618 28.654 29.9385 29.9267 28.2144C31.7251 25.7784 31.6594 22.3653 29.9937 19.878L29.7614 19.531L34.5821 14.7687L34.9236 15.2685C35.3136 15.8393 35.7199 16.3997 36.0824 16.9887C36.4798 17.6344 36.8071 18.2937 37.055 19.0113C38.0095 21.7749 38.3073 24.2293 37.6258 27.1043C37.412 28.0063 37.1338 28.8612 36.743 29.7017C36.6569 29.8868 36.5991 30.0749 36.5038 30.2582C36.4072 30.4442 36.2875 30.6137 36.1923 30.8014C34.4846 34.1686 30.8141 36.7265 27.1835 37.6065C23.3228 38.5422 19.3467 37.7221 16.0766 35.5041C14.8179 34.6505 13.402 33.2356 12.5372 31.9843C12.0405 31.2657 11.6397 30.5582 11.284 29.7597C10.0251 26.9332 9.65698 23.9219 10.3743 20.8961C10.8038 19.0838 11.4528 17.6151 12.4961 16.0768C13.8804 14.0358 15.9903 12.294 18.2398 11.2852C18.6442 11.1038 19.028 10.9416 19.45 10.8017C23.6605 9.40571 27.0309 9.87258 30.9318 11.8719C31.5721 12.2001 32.1113 12.6537 32.7048 13.0511L33.2125 13.3911L28.4468 18.2152L28.1001 17.9841L28.1 17.9839ZM23.0693 23.8089C23.0693 24.6661 23.3341 24.9308 24.1912 24.9308C24.3279 24.9254 24.6763 24.6529 24.7786 24.5678C25.1521 24.2574 25.5028 23.8897 25.8358 23.5363C26.2151 23.1336 26.5857 22.7225 26.9703 22.3249C27.2855 21.999 27.6495 21.6312 28.0265 21.3787L28.492 21.067L28.754 21.5623C30.0303 23.9741 29.319 26.6925 27.1667 28.2856C26.1964 29.0039 24.998 29.4158 23.7862 29.3824C22.4083 29.3443 21.1866 28.7486 20.2191 27.7811C18.6908 26.2529 18.1473 23.8037 19.109 21.8307C20.4673 19.0437 23.6313 17.7611 26.438 19.2462L26.9332 19.5083L26.6215 19.9738C26.3709 20.348 26.0037 20.7105 25.68 21.0233C25.2826 21.4077 24.8715 21.7784 24.4691 22.1578C24.1149 22.4919 23.7465 22.8437 23.4352 23.2183C23.3496 23.3212 23.0752 23.6717 23.0694 23.809L23.0693 23.8089Z" fill="#00E2D5"/>
</svg>
