<svg width="43" height="43" viewBox="0 0 43 43" fill="none" xmlns="http://www.w3.org/2000/svg">
<path fill-rule="evenodd" clip-rule="evenodd" d="M25.3465 36.0977C24.9555 35.7029 24.4754 35.0151 23.8646 35.0151C23.5051 35.0151 23.1574 35.2383 23.0095 35.5654C22.6539 36.3521 23.9013 37.2738 24.4221 37.7967C25.4985 38.8129 26.575 39.8292 27.6514 40.8454C27.6545 40.8486 27.6577 40.8518 27.6608 40.8549C29.3898 42.5965 31.1656 43.8965 33.5052 42.2251C34.196 41.7316 35.0689 40.3421 35.5816 39.628C37.9374 36.3469 40.2931 33.0658 42.6488 29.7847C42.9115 29.4188 43.1562 28.9278 42.8748 28.505C42.7533 28.3226 42.415 28.0533 42.1885 28.0469C41.5233 28.0469 41.3897 28.321 41.0352 28.8258C38.3303 32.6018 35.6254 36.3779 32.9206 40.1539C31.5076 42.1689 30.0426 40.6105 28.8407 39.4107C27.7069 38.2789 26.4601 37.2242 25.3465 36.0977H25.3465ZM41.7758 16.5724C40.6656 16.018 39.5554 15.4635 38.4452 14.909C39.0173 14.0561 39.5209 13.5914 40.1134 12.8341C40.7029 12.0808 41.1204 11.214 41.3736 10.2972C42.9244 4.68009 38.8518 0 33.0936 0C25.4103 0.766014 22.6676 9.98535 28.7309 14.8914C26.4455 15.2437 24.2828 16.5537 23.2154 17.5992C22.4014 11.2481 10.8379 9.20927 7.98176 17.2811C6.99322 20.075 7.56764 23.0776 9.54239 25.296C10.1613 25.9916 10.8981 26.5836 9.65511 27.3285C8.61235 27.571 6.40511 28.9273 5.56408 29.6194C4.70681 30.3249 3.56045 31.3954 2.85403 32.2589C1.72779 33.6357 0 36.6526 0 38.4549C0 40.0189 0.991812 41.717 2.42145 42.3945C2.97154 42.6552 3.52704 42.8528 4.14405 42.8528C9.37959 42.8528 14.6151 42.8528 19.8507 42.8528C20.4162 42.8528 20.9643 41.4673 19.937 41.0785C19.8158 41.0534 19.6435 41.0468 19.5231 41.0393C19.2225 41.0205 18.9202 41.0115 18.6192 41.0045C17.7936 40.9853 16.9661 40.9848 16.1403 40.9876C14.7887 40.9922 13.4351 41.0251 12.0846 41.0251C10.6947 41.0251 9.30341 41.054 7.91263 41.0554C7.07383 41.0562 6.23304 41.0537 5.39451 41.0308C4.93912 41.0184 4.19055 41.0157 3.75794 40.8945C1.97225 40.3939 1.65026 38.8719 2.14525 37.2779C2.49361 36.1561 3.16591 35.0539 3.82274 34.0868C4.34541 33.3173 5.23062 32.3323 5.92954 31.7159C9.96659 28.1555 15.4128 27.1298 20.4927 28.9531C21.3006 29.2431 23.544 30.6527 23.9627 30.7126C24.6049 30.765 24.9546 30.2601 24.9546 29.6576C24.9546 28.5517 21.1385 27.2659 20.2386 27.0566C21.5452 25.109 23.1422 23.8265 23.5327 21.3901C24.3486 16.298 34.6511 15.4108 38.8736 17.1978C39.4958 17.4611 41.6787 18.8126 42.1017 18.8126C43.3581 18.8126 43.2367 17.3658 41.7758 16.5724V16.5724ZM15.6622 26.1306C14.0175 26.1306 12.4422 25.4819 11.2517 24.3544C8.73542 21.9714 8.81185 17.9 11.2614 15.4986C12.6916 14.0965 14.7085 13.4989 16.674 13.8493C19.0978 14.2813 21.0829 16.1695 21.6405 18.5601C22.5257 22.3551 19.5781 26.1306 15.6622 26.1306H15.6622ZM28.717 4.21555C29.8534 2.77132 31.4612 2.01221 33.1007 1.88513C35.7924 1.67649 38.5698 3.17105 39.4875 6.13379C39.9293 7.55985 39.8824 9.15403 39.2398 10.5768C37.6465 14.1049 33.0538 15.4133 29.9394 13.0345C29.2642 12.5188 28.6798 11.8577 28.2422 11.1125C26.964 8.93523 27.1532 6.20317 28.7171 4.21555H28.717Z" fill="#00E2D5"/>
</svg>
